<svg width="28" height="25" viewBox="0 0 28 25" fill="none" xmlns="http://www.w3.org/2000/svg">
<path d="M4.32281 9.59487C3.98226 12.2867 3.77539 15.0221 3.70932 17.7935C7.32929 19.3552 10.7723 21.2675 13.9987 23.4892C17.225 21.2675 20.668 19.3552 24.288 17.7935C24.2219 15.0221 24.0151 12.2868 23.6745 9.59492M4.32281 9.59487C3.22818 9.21467 2.12028 8.86434 1 8.54481C5.05673 5.60649 9.40792 3.07266 13.9987 1C18.5895 3.07267 22.9407 5.6065 26.9974 8.54483C25.8771 8.86437 24.7692 9.21471 23.6745 9.59492M4.32281 9.59487C7.68186 10.7616 10.9159 12.2095 13.9987 13.9116C17.0815 12.2095 20.3155 10.7616 23.6745 9.59492M7.43616 15.8638C7.95392 15.8638 8.37366 15.4301 8.37366 14.895C8.37366 14.36 7.95392 13.9263 7.43616 13.9263C6.91839 13.9263 6.49866 14.36 6.49866 14.895C6.49866 15.4301 6.91839 15.8638 7.43616 15.8638ZM7.43616 15.8638V11.1162C9.5505 9.75871 11.7407 8.51542 13.9987 7.39471M5.23946 22.3126C6.70392 20.7993 7.43615 18.8159 7.43616 16.8325V14.895" stroke="#020817" stroke-width="1.5" stroke-linecap="round" stroke-linejoin="round"/>
</svg>
