<svg width="20" height="20" viewBox="0 0 20 20" fill="none" xmlns="http://www.w3.org/2000/svg">
<path fill-rule="evenodd" clip-rule="evenodd" d="M9.75 0C10.1642 0 10.5 0.335786 10.5 0.75V12.4393L13.7197 9.21967C14.0126 8.92678 14.4874 8.92678 14.7803 9.21967C15.0732 9.51256 15.0732 9.98744 14.7803 10.2803L10.2803 14.7803C9.98744 15.0732 9.51256 15.0732 9.21967 14.7803L4.71967 10.2803C4.42678 9.98744 4.42678 9.51256 4.71967 9.21967C5.01256 8.92678 5.48744 8.92678 5.78033 9.21967L9 12.4393V0.75C9 0.335786 9.33579 0 9.75 0ZM0.75 13.5C1.16421 13.5 1.5 13.8358 1.5 14.25V16.5C1.5 17.3284 2.17157 18 3 18H16.5C17.3284 18 18 17.3284 18 16.5V14.25C18 13.8358 18.3358 13.5 18.75 13.5C19.1642 13.5 19.5 13.8358 19.5 14.25V16.5C19.5 18.1569 18.1569 19.5 16.5 19.5H3C1.34315 19.5 0 18.1569 0 16.5V14.25C0 13.8358 0.335786 13.5 0.75 13.5Z" fill="#020817"/>
</svg>
