<svg width="189" height="28" viewBox="0 0 189 28" fill="none" xmlns="http://www.w3.org/2000/svg">
<g clip-path="url(#clip0_6975_6527)">
<path d="M93.7945 3.6521L86.8555 9.30499H91.3871V27.68L93.7945 25.7411V3.6521Z" fill="#5A29E4"/>
<path d="M95.7969 24.0997L102.858 18.305H98.1994V0.350098L95.7969 2.0228V24.0997Z" fill="#5A29E4"/>
<path d="M183.195 6.953C183.995 7.369 184.571 7.721 184.923 8.009L187.419 3.257C186.171 2.489 184.667 1.801 182.907 1.193C181.179 0.585009 179.307 0.281006 177.291 0.281006C175.371 0.281006 173.595 0.601006 171.963 1.241C170.363 1.881 169.083 2.825 168.123 4.073C167.195 5.321 166.731 6.873 166.731 8.729C166.731 10.8091 167.387 12.4091 168.699 13.5291C170.043 14.6171 172.091 15.5131 174.843 16.2171C177.051 16.7931 178.827 17.3211 180.171 17.8011C181.547 18.2491 182.235 19.0011 182.235 20.0571C182.235 21.6251 180.763 22.4091 177.819 22.4091C176.347 22.4091 174.955 22.2331 173.643 21.8811C172.331 21.5291 171.179 21.0971 170.187 20.5851C169.227 20.0731 168.539 19.6091 168.123 19.1931L165.531 24.2331C167.195 25.2891 169.099 26.1211 171.243 26.7291C173.387 27.3371 175.547 27.6411 177.723 27.6411C179.611 27.6411 181.371 27.3851 183.003 26.8731C184.635 26.3291 185.947 25.4651 186.939 24.2811C187.963 23.0651 188.475 21.465 188.475 19.481C188.475 17.849 188.091 16.5371 187.323 15.5451C186.587 14.5211 185.515 13.7051 184.107 13.0971C182.731 12.4891 181.099 11.9451 179.211 11.4651C177.067 10.9531 175.435 10.4891 174.315 10.0731C173.227 9.657 172.683 8.953 172.683 7.961C172.683 6.265 174.187 5.417 177.195 5.417C178.315 5.417 179.403 5.577 180.459 5.897C181.515 6.185 182.427 6.537 183.195 6.953Z" fill="#5A29E4"/>
<path fill-rule="evenodd" clip-rule="evenodd" d="M132.683 27.4969C130.571 27.4969 128.651 27.1289 126.923 26.3929C125.195 25.6249 123.706 24.6009 122.458 23.3209C121.21 22.0089 120.25 20.5369 119.578 18.9049C118.907 17.2729 118.57 15.5929 118.57 13.8649C118.57 12.1049 118.922 10.4089 119.626 8.77686C120.33 7.14486 121.323 5.70487 122.603 4.45686C123.883 3.17686 125.386 2.16886 127.114 1.43286C128.842 0.696861 130.73 0.328857 132.778 0.328857C134.89 0.328857 136.811 0.72886 138.539 1.52886C140.267 2.29686 141.739 3.33686 142.955 4.64886C144.203 5.92886 145.162 7.38486 145.834 9.01686C146.506 10.6489 146.843 12.3128 146.843 14.0088C146.843 15.7688 146.491 17.4649 145.787 19.0969C145.083 20.6969 144.09 22.1369 142.81 23.4169C141.562 24.6649 140.075 25.6569 138.347 26.3929C136.619 27.1289 134.731 27.4969 132.683 27.4969ZM124.426 13.9129C124.426 15.3529 124.763 16.7289 125.435 18.0409C126.106 19.3209 127.05 20.3609 128.266 21.1609C129.514 21.9609 131.002 22.3609 132.73 22.3609C134.49 22.3609 135.978 21.9449 137.194 21.1129C138.411 20.2489 139.338 19.1769 139.978 17.8968C140.618 16.5848 140.939 15.2409 140.939 13.8649C140.939 12.4249 140.603 11.0648 139.931 9.78486C139.259 8.50486 138.299 7.48086 137.05 6.71286C135.834 5.91286 134.379 5.51286 132.683 5.51286C130.923 5.51286 129.418 5.92886 128.17 6.76086C126.954 7.59286 126.026 8.64887 125.386 9.92887C124.746 11.2089 124.426 12.5369 124.426 13.9129Z" fill="#5A29E4"/>
<path fill-rule="evenodd" clip-rule="evenodd" d="M0.5 27.3049L12.212 0.4729H16.964L28.628 27.3049H22.484L19.796 21.0169H9.38L6.692 27.3049H0.5ZM14.612 7.5289L10.676 15.9769H18.404L14.612 7.5289Z" fill="#5A29E4"/>
<path d="M51.3204 0.4729L58.7124 9.9769L66.1044 0.4729H72.3924L61.7844 14.0569L72.0564 27.3049H65.7684L58.7124 18.1849L51.7044 27.3049H45.3204L55.6404 14.0569L44.9844 0.4729H51.3204Z" fill="#5A29E4"/>
</g>
<defs>
<clipPath id="clip0_6975_6527">
<rect width="188" height="28" fill="white" transform="translate(0.5)"/>
</clipPath>
</defs>
</svg>
