<svg width="36" height="29" viewBox="0 0 36 29" fill="none" xmlns="http://www.w3.org/2000/svg">
<path d="M4.21451 3.79396C4.14786 1.87724 5.64101 0.109863 7.65955 0.109863H28.3427C30.3612 0.109863 31.8544 1.87724 31.7877 3.79396C31.7236 5.63502 31.8068 8.02002 32.407 9.96458C33.0092 11.9153 34.0245 13.1481 35.6875 13.3067V15.103C34.0245 15.2616 33.0092 16.4944 32.407 18.4451C31.8068 20.3897 31.7236 22.7747 31.7877 24.6157C31.8544 26.5325 30.3612 28.2996 28.3427 28.2996H7.65955C5.64101 28.2996 4.14786 26.5322 4.21451 24.6157C4.27864 22.7747 4.19539 20.3897 3.59492 18.4451C2.99305 16.4946 1.97492 15.2616 0.31189 15.103V13.3067C1.97492 13.1483 2.99305 11.9153 3.59492 9.96458C4.19539 8.02002 4.27836 5.63502 4.21451 3.79396V3.79396Z" fill="url(#paint0_linear_7619_4729)"/>
<g filter="url(#filter0_d_7619_4729)">
<path d="M18.8746 21.8006C22.1425 21.8006 24.1116 20.2005 24.1116 17.5614C24.1116 15.5665 22.7066 14.1223 20.6203 13.8937V13.8106C22.1531 13.5612 23.3559 12.1378 23.3559 10.5481C23.3559 8.28307 21.5677 6.80762 18.8427 6.80762H12.7115V21.8006H18.8746ZM15.0958 8.70902H18.2679C19.9923 8.70902 20.9716 9.47788 20.9716 10.8702C20.9716 12.356 19.8326 13.1871 17.7676 13.1871H15.0958V8.70902ZM15.0958 19.8991V14.9638H18.2466C20.5032 14.9638 21.6741 15.795 21.6741 17.4159C21.6741 19.0367 20.5352 19.8991 18.385 19.8991H15.0958Z" fill="url(#paint1_linear_7619_4729)"/>
<path d="M18.8746 21.8006C22.1425 21.8006 24.1116 20.2005 24.1116 17.5614C24.1116 15.5665 22.7066 14.1223 20.6203 13.8937V13.8106C22.1531 13.5612 23.3559 12.1378 23.3559 10.5481C23.3559 8.28307 21.5677 6.80762 18.8427 6.80762H12.7115V21.8006H18.8746ZM15.0958 8.70902H18.2679C19.9923 8.70902 20.9716 9.47788 20.9716 10.8702C20.9716 12.356 19.8326 13.1871 17.7676 13.1871H15.0958V8.70902ZM15.0958 19.8991V14.9638H18.2466C20.5032 14.9638 21.6741 15.795 21.6741 17.4159C21.6741 19.0367 20.5352 19.8991 18.385 19.8991H15.0958Z" stroke="white" stroke-width="0.24566"/>
</g>
<defs>
<filter id="filter0_d_7619_4729" x="8.65809" y="3.73689" width="19.5069" height="23.0996" filterUnits="userSpaceOnUse" color-interpolation-filters="sRGB">
<feFlood flood-opacity="0" result="BackgroundImageFix"/>
<feColorMatrix in="SourceAlpha" type="matrix" values="0 0 0 0 0 0 0 0 0 0 0 0 0 0 0 0 0 0 127 0" result="hardAlpha"/>
<feOffset dy="0.98264"/>
<feGaussianBlur stdDeviation="1.96528"/>
<feColorMatrix type="matrix" values="0 0 0 0 0 0 0 0 0 0 0 0 0 0 0 0 0 0 0.15 0"/>
<feBlend mode="normal" in2="BackgroundImageFix" result="effect1_dropShadow_7619_4729"/>
<feBlend mode="normal" in="SourceGraphic" in2="effect1_dropShadow_7619_4729" result="shape"/>
</filter>
<linearGradient id="paint0_linear_7619_4729" x1="5.56861" y1="0.855917" x2="36.4804" y2="25.394" gradientUnits="userSpaceOnUse">
<stop stop-color="#9013FE"/>
<stop offset="1" stop-color="#6610F2"/>
</linearGradient>
<linearGradient id="paint1_linear_7619_4729" x1="13.7901" y1="7.79425" x2="20.6993" y2="19.4798" gradientUnits="userSpaceOnUse">
<stop stop-color="white"/>
<stop offset="1" stop-color="#F1E5FC"/>
</linearGradient>
</defs>
</svg>
