<svg width="27" height="21" viewBox="0 0 27 21" fill="none" xmlns="http://www.w3.org/2000/svg">
<path fill-rule="evenodd" clip-rule="evenodd" d="M15.9802 0.0310512C16.4464 0.158202 16.7213 0.639226 16.5942 1.10545L11.3442 20.3554C11.217 20.8217 10.736 21.0965 10.2698 20.9694C9.80355 20.8422 9.52868 20.3612 9.65583 19.895L14.9058 0.644992C15.033 0.17877 15.514 -0.0961 15.9802 0.0310512ZM18.6313 3.7565C18.973 3.41479 19.527 3.41479 19.8687 3.7565L25.9937 9.8815C26.3354 10.2232 26.3354 10.7772 25.9937 11.1189L19.8687 17.2439C19.527 17.5856 18.973 17.5856 18.6313 17.2439C18.2896 16.9022 18.2896 16.3482 18.6313 16.0065L24.1376 10.5002L18.6313 4.99394C18.2896 4.65223 18.2896 4.09821 18.6313 3.7565ZM7.61872 3.7565C7.96043 4.09821 7.96043 4.65223 7.61872 4.99394L2.11244 10.5002L7.61872 16.0065C7.96043 16.3482 7.96043 16.9022 7.61872 17.2439C7.27701 17.5856 6.72299 17.5856 6.38128 17.2439L0.256282 11.1189C-0.0854272 10.7772 -0.0854272 10.2232 0.256282 9.8815L6.38128 3.7565C6.72299 3.41479 7.27701 3.41479 7.61872 3.7565Z" fill="white"/>
</svg>
