<svg width="35" height="31" viewBox="0 0 35 31" fill="none" xmlns="http://www.w3.org/2000/svg">
<path d="M10.5328 11.1656L17.1422 7.34063C17.3109 7.25625 17.5078 7.25625 17.6766 7.34063L24.3141 11.1656C24.4828 11.25 24.5953 11.4469 24.5953 11.6156V19.2656C24.5953 19.4625 24.4828 19.6312 24.3141 19.7437L17.7047 23.5688C17.5359 23.6531 17.3391 23.6531 17.1703 23.5688L10.5328 19.7437C10.3641 19.6594 10.2516 19.4625 10.2516 19.2656V11.6156C10.2516 11.4469 10.3641 11.25 10.5328 11.1656" fill="#8080F2"/>
<path d="M34.6359 14.6531L26.7328 0.871875C26.4516 0.365625 25.9172 0 25.3266 0H9.52031C8.95781 0 8.42344 0.365625 8.11406 0.871875L0.210938 14.625C-0.0703125 15.1312 -0.0703125 15.75 0.210938 16.2563L8.11406 29.925C8.39531 30.4313 8.92969 30.6844 9.52031 30.6844H25.3547C25.9172 30.6844 26.4516 30.4313 26.7609 29.9531L34.6641 16.2844C34.9453 15.7219 34.9453 15.1312 34.6359 14.6531M28.0828 21.2625C28.0828 21.4594 27.9703 21.6563 27.7734 21.7406L17.7047 27.5625C17.5359 27.675 17.3109 27.675 17.1422 27.5625L7.04531 21.7688C6.87656 21.6563 6.73594 21.4875 6.73594 21.2906V9.61875C6.73594 9.42188 6.84844 9.225 7.04531 9.14062L17.1422 3.31875C17.3109 3.20625 17.5359 3.20625 17.7047 3.31875L27.8016 9.14062C27.9703 9.25313 28.1109 9.42188 28.1109 9.61875V21.2625H28.0828Z" fill="#4B32C3"/>
</svg>
