<svg width="91" height="24" viewBox="0 0 91 24" fill="none" xmlns="http://www.w3.org/2000/svg">
<path d="M37.0514 0.669371C38.8159 1.74601 39.901 3.5248 40.5043 5.6978C41.0098 8.64353 41.0122 11.9743 39.7071 14.6375C38.5457 16.6441 37.2199 17.6705 35.2014 18.1986C33.4319 18.3641 31.7641 17.9053 30.3974 16.5736C29.1387 15.0397 29.1387 15.0397 28.7264 14.0843C28.6476 17.1877 28.5689 20.2911 28.4877 23.4885C28.2514 23.4885 28.0151 23.4885 27.7716 23.4885C27.7716 16.0038 27.7716 8.51916 27.7716 0.807669C28.0079 0.716393 28.2442 0.625116 28.4877 0.531074C28.5665 1.80895 28.6453 3.08682 28.7264 4.40341C28.9234 4.02119 29.1203 3.63897 29.3232 3.24517C31.0284 0.265041 34.1771 -0.63411 37.0514 0.669371ZM30.0841 3.24517C28.5538 5.84218 28.2037 8.55612 28.6817 11.6295C29.0956 13.8043 29.9091 15.0133 31.3224 16.4872C32.6759 17.4559 34.145 17.6013 35.6872 17.304C37.3379 16.8185 38.2898 15.6935 39.2296 14.0843C39.5906 13.268 39.7933 12.4932 39.9458 11.5949C39.9848 11.3649 40.0239 11.135 40.0642 10.898C40.3732 8.37725 40.0982 5.55135 38.8268 3.41804C37.8057 2.07938 36.8908 1.20118 35.3282 0.962174C33.0791 0.875859 31.5176 1.16387 30.0841 3.24517Z" fill="#616B75"/>
<path d="M60.4748 1.08428C62.2227 2.41831 63.0767 4.29271 63.578 6.6162C63.578 7.52896 63.578 8.44173 63.578 9.38215C59.5605 9.38215 55.5431 9.38215 51.4038 9.38215C51.8159 13.0182 51.8159 13.0182 53.5354 15.9362C54.9694 17.0334 56.3768 17.3222 58.0877 17.1268C59.5576 16.7602 60.6174 16.1608 61.6683 14.9141C62.2123 13.856 62.5482 12.7691 62.8619 11.5949C63.0194 11.5949 63.177 11.5949 63.3393 11.5949C63.4727 13.141 63.1221 14.2078 62.3845 15.4673C61.061 17.1564 59.4431 18.0529 57.4807 18.2311C55.6917 18.2376 54.1593 17.8818 52.769 16.5283C50.8452 14.1472 50.5476 11.1771 50.615 8.064C50.7311 5.56227 51.5249 3.67052 53.03 1.88165C55.0737 -0.156492 58.1374 -0.540741 60.4748 1.08428ZM53.0151 3.05503C51.866 4.7467 51.4038 6.41598 51.4038 8.55237C55.185 8.55237 58.9662 8.55237 62.8619 8.55237C62.8619 5.94493 62.4969 4.27672 60.9205 2.37434C59.5657 0.975259 58.212 0.933137 56.454 0.989201C54.9873 1.1743 54.0239 1.82809 53.0151 3.05503Z" fill="#69737C"/>
<path d="M9.86836 1.08428C11.6162 2.41831 12.4703 4.29271 12.9716 6.6162C12.9716 7.52896 12.9716 8.44173 12.9716 9.38215C8.9541 9.38215 4.93662 9.38215 0.797392 9.38215C1.20948 13.0182 1.20948 13.0182 2.92899 15.9362C4.36295 17.0334 5.77031 17.3222 7.48126 17.1268C8.95119 16.7602 10.0109 16.1608 11.0619 14.9141C11.6059 13.856 11.9418 12.7691 12.2555 11.5949C12.413 11.5949 12.5706 11.5949 12.7329 11.5949C12.8663 13.141 12.5157 14.2078 11.778 15.4673C10.4546 17.1564 8.83665 18.0529 6.87423 18.2311C5.08522 18.2376 3.55285 17.8818 2.16251 16.5283C0.238725 14.1472 -0.0588675 11.1771 0.00853113 8.064C0.124641 5.56227 0.918492 3.67052 2.4236 1.88165C4.46723 -0.156492 7.53096 -0.540741 9.86836 1.08428ZM2.40868 3.05503C1.25955 4.7467 0.797392 6.41598 0.797392 8.55237C4.57855 8.55237 8.35971 8.55237 12.2555 8.55237C12.2555 5.94493 11.8905 4.27672 10.3141 2.37434C8.95924 0.975259 7.60558 0.933137 5.84759 0.989201C4.38088 1.1743 3.4175 1.82809 2.40868 3.05503Z" fill="#69737C"/>
<path d="M88.6425 1.08424C89.4174 1.91896 89.9772 2.68123 90.3135 3.85019C90.323 4.49549 90.324 5.14109 90.3135 5.78636C90.0772 5.69509 89.8409 5.60381 89.5974 5.50977C89.4797 4.96451 89.3634 4.41871 89.2598 3.86964C89.0529 3.0226 88.7056 2.52235 88.1651 1.91402C87.1564 1.30614 86.1911 1.2684 85.0768 1.2744C84.912 1.26994 84.7473 1.26548 84.5775 1.26089C83.2423 1.25942 82.2826 1.62566 81.2724 2.64009C80.8584 3.65283 80.8015 4.69165 81.0038 5.78636C81.686 6.99001 82.2193 7.38422 83.4114 7.74955C83.6927 7.83993 83.9739 7.93032 84.2637 8.02344C84.5567 8.1124 84.8496 8.20136 85.1514 8.29301C89.313 9.58009 89.313 9.58009 90.5522 11.3183C90.8761 12.4442 90.9162 13.4602 90.7909 14.6374C90.1618 16.0683 89.3267 16.985 88.1055 17.7318C85.9431 18.4721 83.5195 18.4072 81.4813 17.1959C79.9846 15.8953 79.6788 14.5391 79.4037 12.4787C79.3804 12.2783 79.357 12.0779 79.3329 11.8715C79.5692 11.8715 79.8055 11.8715 80.049 11.8715C80.0952 12.0551 80.1413 12.2387 80.1889 12.4279C80.3767 13.166 80.5706 13.9017 80.7651 14.6374C80.8341 14.9113 80.903 15.1851 80.974 15.4672C81.3525 16.2469 81.7021 16.3279 82.4361 16.5736C82.697 16.6763 82.958 16.779 83.2268 16.8848C84.8843 17.3405 86.5584 17.2503 88.1651 16.5736C88.8684 16.0605 89.4578 15.5142 89.8361 14.6374C89.9014 14.0733 89.9014 14.0733 89.9107 13.4446C89.9196 13.2346 89.9285 13.0246 89.9377 12.8082C89.7908 11.8537 89.4801 11.4379 88.8813 10.7651C88.2841 10.4758 87.7545 10.2631 87.1357 10.0736C86.7943 9.95862 86.4531 9.84337 86.1119 9.72785C85.9382 9.67081 85.7646 9.61376 85.5857 9.55498C84.7556 9.28102 83.9306 8.99147 83.1075 8.69062C82.8234 8.59079 82.5394 8.49095 82.2468 8.38809C81.2529 7.88311 80.5395 7.19972 80.049 6.06296C79.92 4.70067 79.9191 3.60972 80.4369 2.36349C82.3578 -0.0965633 86.1674 -0.825501 88.6425 1.08424Z" fill="#58636D"/>
<path d="M74.7974 1.08424C75.5723 1.91896 76.1321 2.68123 76.4683 3.85019C76.4778 4.49549 76.4789 5.14109 76.4683 5.78636C76.232 5.69509 75.9957 5.60381 75.7522 5.50977C75.6346 4.96451 75.5183 4.41871 75.4147 3.86964C75.2078 3.0226 74.8604 2.52235 74.32 1.91402C73.3112 1.30614 72.346 1.2684 71.2317 1.2744C71.0669 1.26994 70.9021 1.26548 70.7323 1.26089C69.3972 1.25942 68.4374 1.62566 67.4272 2.64009C67.0132 3.65283 66.9563 4.69165 67.1587 5.78636C67.8408 6.99001 68.3741 7.38422 69.5663 7.74955C69.8475 7.83993 70.1288 7.93032 70.4185 8.02344C70.7115 8.1124 71.0044 8.20136 71.3063 8.29301C75.4678 9.58009 75.4678 9.58009 76.7071 11.3183C77.0309 12.4442 77.071 13.4602 76.9458 14.6374C76.3167 16.0683 75.4815 16.985 74.2603 17.7318C72.0979 18.4721 69.6743 18.4072 67.6361 17.1959C66.1395 15.8953 65.8336 14.5391 65.5586 12.4787C65.5352 12.2783 65.5118 12.0779 65.4877 11.8715C65.724 11.8715 65.9603 11.8715 66.2038 11.8715C66.25 12.0551 66.2961 12.2387 66.3437 12.4279C66.5315 13.166 66.7255 13.9017 66.92 14.6374C66.9889 14.9113 67.0578 15.1851 67.1288 15.4672C67.5073 16.2469 67.8569 16.3279 68.5909 16.5736C68.8519 16.6763 69.1128 16.779 69.3817 16.8848C71.0392 17.3405 72.7133 17.2503 74.32 16.5736C75.0232 16.0605 75.6126 15.5142 75.9909 14.6374C76.0563 14.0733 76.0563 14.0733 76.0655 13.4446C76.0744 13.2346 76.0834 13.0246 76.0926 12.8082C75.9456 11.8537 75.6349 11.4379 75.0361 10.7651C74.439 10.4758 73.9093 10.2631 73.2905 10.0736C72.9492 9.95862 72.6079 9.84337 72.2667 9.72785C72.0931 9.67081 71.9194 9.61376 71.7405 9.55498C70.9104 9.28102 70.0854 8.99147 69.2623 8.69062C68.9783 8.59079 68.6943 8.49095 68.4016 8.38809C67.4077 7.88311 66.6944 7.19972 66.2038 6.06296C66.0748 4.70067 66.0739 3.60972 66.5917 2.36349C68.5126 -0.0965633 72.3223 -0.825501 74.7974 1.08424Z" fill="#58636D"/>
<path d="M14.4038 0.531006C15.0358 0.632791 15.3091 0.747167 15.7549 1.2907C15.8823 1.4971 16.0097 1.70349 16.141 1.91615C16.2833 2.14362 16.4256 2.3711 16.5723 2.60547C16.7183 2.84507 16.8643 3.08468 17.0147 3.33154C17.1598 3.56472 17.3049 3.7979 17.4544 4.03815C17.8723 4.71103 18.2869 5.38657 18.7006 6.06292C18.9345 6.44263 19.1686 6.82224 19.4028 7.20172C19.646 7.59642 19.646 7.59642 19.8942 7.99909C21.3107 6.2007 22.5314 4.28169 23.7378 2.29106C23.8787 2.06394 24.0196 1.83682 24.1648 1.60281C24.2905 1.39673 24.4161 1.19064 24.5455 0.978313C24.7245 0.756896 24.7245 0.756896 24.9071 0.531006C25.1434 0.531006 25.3797 0.531006 25.6232 0.531006C25.254 1.89234 24.5623 2.82448 23.7881 3.90202C22.663 5.49643 21.5986 7.11513 20.6103 8.82888C21.4715 10.1682 22.3424 11.4984 23.2212 12.8222C23.3233 12.9763 23.4253 13.1303 23.5305 13.289C24.001 13.9976 24.4744 14.7026 24.9546 15.4023C25.1063 15.6234 25.258 15.8445 25.4143 16.0722C25.5479 16.2644 25.6814 16.4566 25.819 16.6546C26.1006 17.1268 26.1006 17.1268 26.1006 17.6799C25.3442 17.6061 25.1388 17.3943 24.6227 16.7259C24.4316 16.4294 24.2431 16.1306 24.0567 15.8302C23.848 15.5048 23.6391 15.1796 23.4301 14.8546C23.3214 14.6842 23.2128 14.5138 23.1009 14.3382C22.518 13.4345 21.9145 12.5497 21.3115 11.664C21.1976 11.4958 21.0838 11.3276 20.9664 11.1543C20.4556 10.3811 20.4556 10.3811 19.8942 9.65867C19.7151 9.93642 19.536 10.2142 19.3515 10.5003C17.7974 12.9077 16.2306 15.3025 14.6426 17.6799C14.3275 17.5887 14.0124 17.4974 13.6877 17.4033C13.8151 17.2254 13.9425 17.0475 14.0738 16.8642C15.3086 15.1288 16.506 13.3678 17.6833 11.5797C18.2232 10.765 18.2232 10.765 18.7855 10.0541C19.2418 9.42518 19.2418 9.42518 19.1277 8.72083C18.9225 7.93472 18.6694 7.48066 18.2269 6.84301C18.0823 6.63157 17.9377 6.42014 17.7887 6.2023C17.6367 5.98516 17.4847 5.76802 17.328 5.5443C14.4038 1.30542 14.4038 1.30542 14.4038 0.531006Z" fill="#5D6872"/>
<path d="M60.4748 1.08436C62.2227 2.41839 63.0767 4.29278 63.578 6.61627C63.578 7.43776 63.578 8.25925 63.578 9.10563C59.5605 9.10563 55.5431 9.10563 51.4038 9.10563C51.4038 9.01435 51.4038 8.92308 51.4038 8.82904C55.2638 8.82904 59.1237 8.82904 63.1006 8.82904C62.7816 6.24172 62.2228 3.96049 60.4748 2.19074C59.0008 1.11022 57.406 1.14357 55.7006 1.36095C54.3425 1.80661 53.3235 2.71258 52.5974 4.12691C51.9773 5.64164 51.5298 7.20927 51.1651 8.82904C51.0864 8.82904 51.0076 8.82904 50.9264 8.82904C50.7572 6.21948 51.2356 4.43143 52.6421 2.3809C54.6489 -0.0820572 57.9334 -0.682509 60.4748 1.08436Z" fill="#515D67"/>
<path d="M9.86835 1.08436C11.6162 2.41839 12.4703 4.29278 12.9716 6.61627C12.9716 7.43776 12.9716 8.25925 12.9716 9.10563C8.9541 9.10563 4.93661 9.10563 0.797386 9.10563C0.797386 9.01435 0.797386 8.92308 0.797386 8.82904C4.65732 8.82904 8.51726 8.82904 12.4942 8.82904C12.1752 6.24172 11.6163 3.96049 9.86835 2.19074C8.39438 1.11022 6.79952 1.14357 5.09416 1.36095C3.73604 1.80661 2.71705 2.71258 1.99093 4.12691C1.3708 5.64164 0.923347 7.20927 0.558676 8.82904C0.479902 8.82904 0.401128 8.82904 0.319967 8.82904C0.150705 6.21948 0.629121 4.43143 2.03569 2.3809C4.04249 -0.0820572 7.32693 -0.682509 9.86835 1.08436Z" fill="#515D67"/>
<path d="M49.1809 0.237232C49.4703 0.240976 49.4703 0.240976 49.7655 0.244795C49.9857 0.249609 49.9857 0.249609 50.2103 0.254519C50.1315 0.528349 50.0527 0.802179 49.9716 1.08431C49.7986 1.1114 49.6257 1.1385 49.4475 1.16642C47.5121 1.50498 47.5121 1.50498 45.9135 2.74388C44.7373 4.93863 44.4499 6.85417 44.4057 9.38758C44.4008 9.62506 44.3958 9.86254 44.3907 10.1072C44.3751 10.8624 44.361 11.6176 44.347 12.3729C44.3367 12.8863 44.3263 13.3997 44.3157 13.9131C44.2903 15.1687 44.2661 16.4244 44.2425 17.6801C44.0062 17.6801 43.7699 17.6801 43.5264 17.6801C43.5264 12.1122 43.5264 6.54431 43.5264 0.807711C43.7627 0.716434 43.9991 0.625158 44.2425 0.531115C44.3213 1.53516 44.4001 2.5392 44.4813 3.57367C44.5994 3.32836 44.7176 3.08306 44.8393 2.83032C45.8068 1.13465 47.4553 0.208255 49.1809 0.237232Z" fill="#636D77"/>
<path d="M79.3329 11.8716C79.5692 11.8716 79.8055 11.8716 80.049 11.8716C80.0952 12.0552 80.1413 12.2388 80.1889 12.428C80.3767 13.1661 80.5706 13.9018 80.7651 14.6375C80.8341 14.9114 80.903 15.1852 80.974 15.4673C81.3525 16.247 81.7021 16.328 82.4361 16.5737C82.7364 16.6764 83.0367 16.7791 83.3462 16.8849C83.5973 16.9647 83.8484 17.0446 84.1071 17.1269C84.1071 17.4007 84.1071 17.6746 84.1071 17.9567C82.4673 17.8016 81.3309 17.3002 80.2131 15.8649C79.6661 14.5739 79.4982 13.2883 79.3329 11.8716Z" fill="#606A74"/>
<path d="M65.4877 11.8716C65.724 11.8716 65.9603 11.8716 66.2038 11.8716C66.25 12.0552 66.2961 12.2388 66.3437 12.428C66.5315 13.1661 66.7255 13.9018 66.92 14.6375C66.9889 14.9114 67.0578 15.1852 67.1288 15.4673C67.5073 16.247 67.8569 16.328 68.5909 16.5737C68.8913 16.6764 69.1916 16.7791 69.501 16.8849C69.7521 16.9647 70.0032 17.0446 70.2619 17.1269C70.2619 17.4007 70.2619 17.6746 70.2619 17.9567C68.6222 17.8016 67.4858 17.3002 66.3679 15.8649C65.821 14.5739 65.653 13.2883 65.4877 11.8716Z" fill="#606A74"/>
<path d="M62.8619 11.595C63.0194 11.595 63.177 11.595 63.3393 11.595C63.473 13.144 63.1199 14.2043 62.3845 15.4673C61.3185 16.8912 60.1181 17.4915 58.5651 17.9567C58.5651 17.7741 58.5651 17.5916 58.5651 17.4035C58.4076 17.3122 58.25 17.2209 58.0877 17.1269C58.2262 17.083 58.3646 17.0392 58.5073 16.994C60.1148 16.4377 61.1971 15.8306 62.0861 14.1016C62.3773 13.2748 62.634 12.448 62.8619 11.595Z" fill="#616B75"/>
<path d="M12.2555 11.595C12.413 11.595 12.5706 11.595 12.7329 11.595C12.8666 13.144 12.5134 14.2043 11.778 15.4673C10.7121 16.8912 9.51166 17.4915 7.95868 17.9567C7.95868 17.7741 7.95868 17.5916 7.95868 17.4035C7.80113 17.3122 7.64358 17.2209 7.48126 17.1269C7.61973 17.083 7.7582 17.0392 7.90087 16.994C9.50839 16.4377 10.5907 15.8306 11.4796 14.1016C11.7709 13.2748 12.0276 12.448 12.2555 11.595Z" fill="#616B75"/>
<path d="M35.8877 0.254536C35.8877 0.437089 35.8877 0.619643 35.8877 0.807728C35.6449 0.813611 35.6449 0.813611 35.3972 0.819613C33.6905 0.92096 32.2639 1.26221 30.8748 2.4673C30.3092 3.24833 29.8578 4.05898 29.4426 4.95666C29.285 4.59156 29.1275 4.22645 28.9651 3.85028C30.6566 0.639607 32.7462 -0.00221381 35.8877 0.254536Z" fill="#5B6670"/>
<path d="M89.4827 2.02306C90.3944 3.16863 90.3644 4.28243 90.3135 5.78628C90.0772 5.695 89.8409 5.60372 89.5974 5.50968C89.4797 4.96442 89.3634 4.41862 89.2598 3.86955C89.0529 3.02252 88.7056 2.52226 88.1651 1.91394C87.193 1.3487 86.3045 1.25795 85.226 1.18787C84.7769 1.15685 84.7769 1.15685 84.3187 1.12521C84.0913 1.11166 83.8639 1.09811 83.6296 1.08415C83.6296 0.992872 83.6296 0.901595 83.6296 0.807552C84.1168 0.753115 84.6042 0.701885 85.0917 0.651967C85.3631 0.623087 85.6345 0.594206 85.9142 0.564451C87.4923 0.499888 88.3431 0.795935 89.4827 2.02306Z" fill="#646E78"/>
<path d="M75.6375 2.02306C76.5492 3.16863 76.5193 4.28243 76.4684 5.78628C76.232 5.695 75.9957 5.60372 75.7522 5.50968C75.6346 4.96442 75.5183 4.41862 75.4147 3.86955C75.2078 3.02252 74.8604 2.52226 74.32 1.91394C73.3478 1.3487 72.4594 1.25795 71.3809 1.18787C70.9318 1.15685 70.9318 1.15685 70.4736 1.12521C70.2462 1.11166 70.0188 1.09811 69.7845 1.08415C69.7845 0.992872 69.7845 0.901595 69.7845 0.807552C70.2716 0.753115 70.7591 0.701885 71.2466 0.651967C71.518 0.623087 71.7894 0.594206 72.069 0.564451C73.6471 0.499888 74.498 0.795935 75.6375 2.02306Z" fill="#646E78"/>
<path d="M86.4942 8.82886C88.1283 9.26318 89.4401 9.80497 90.5522 11.3182C90.7816 12.1154 90.8162 12.6178 90.8059 13.4445C90.8037 13.6681 90.8015 13.8917 90.7993 14.122C90.7966 14.2921 90.7938 14.4621 90.7909 14.6374C90.1848 14.028 89.99 13.6316 89.8659 12.7185C89.7035 11.9031 89.608 11.6091 89.12 10.9552C88.1331 10.312 87.1094 9.98315 86.0167 9.65864C86.1743 9.56737 86.3318 9.47609 86.4942 9.38205C86.4942 9.1995 86.4942 9.01694 86.4942 8.82886Z" fill="#5F6A74"/>
<path d="M72.649 8.82886C74.2831 9.26318 75.595 9.80497 76.7071 11.3182C76.9364 12.1154 76.971 12.6178 76.9607 13.4445C76.9585 13.6681 76.9564 13.8917 76.9542 14.122C76.9514 14.2921 76.9486 14.4621 76.9458 14.6374C76.3396 14.028 76.1448 13.6316 76.0208 12.7185C75.8584 11.9031 75.7629 11.6091 75.2748 10.9552C74.288 10.312 73.2642 9.98315 72.1716 9.65864C72.3291 9.56737 72.4867 9.47609 72.649 9.38205C72.649 9.1995 72.649 9.01694 72.649 8.82886Z" fill="#5F6A74"/>
<path d="M28.7264 12.1479C29.2038 12.9777 29.2038 12.9777 29.5171 13.7729C30.2484 15.3421 31.1582 16.1317 32.5458 16.8501C32.8641 17.0345 33.1823 17.2189 33.5006 17.4033C33.3431 17.4033 33.1855 17.4033 33.0232 17.4033C33.0232 17.5858 33.0232 17.7684 33.0232 17.9565C31.3726 17.5011 30.2001 16.8222 29.2038 15.1905C28.8725 14.3815 28.6123 13.5869 28.4877 12.7011C28.5665 12.5186 28.6453 12.336 28.7264 12.1479Z" fill="#58636D"/>
<path d="M79.3329 11.8716C79.5692 11.8716 79.8055 11.8716 80.049 11.8716C80.6287 14.2029 80.6287 14.2029 80.2877 15.4673C79.685 14.769 79.6772 14.3227 79.5417 13.3583C79.5017 13.0809 79.4617 12.8035 79.4205 12.5177C79.3916 12.3045 79.3627 12.0913 79.3329 11.8716Z" fill="#5A656F"/>
<path d="M65.4877 11.8716C65.724 11.8716 65.9603 11.8716 66.2038 11.8716C66.7836 14.2029 66.7836 14.2029 66.4425 15.4673C65.8398 14.769 65.8321 14.3227 65.6966 13.3583C65.6566 13.0809 65.6166 12.8035 65.5754 12.5177C65.5464 12.3045 65.5175 12.0913 65.4877 11.8716Z" fill="#5A656F"/>
<path d="M36.3651 17.1267C36.2864 17.4005 36.2076 17.6744 36.1264 17.9565C34.1144 18.3121 34.1144 18.3121 33.0232 17.9565C33.0232 17.7739 33.0232 17.5914 33.0232 17.4033C35.2695 17.0857 35.2695 17.0857 36.3651 17.1267Z" fill="#505B66"/>
<path d="M32.7845 0.254395C33.8086 0.254395 34.8326 0.254395 35.8877 0.254395C35.8877 0.436948 35.8877 0.619501 35.8877 0.807586C35.7092 0.824344 35.5308 0.841102 35.3469 0.858367C35.1118 0.881543 34.8767 0.904719 34.6345 0.928597C34.4019 0.951059 34.1692 0.973522 33.9295 0.996665C33.3658 1.07056 32.8516 1.18202 32.3071 1.36078C32.4646 0.995671 32.6222 0.630565 32.7845 0.254395Z" fill="#4F5B65"/>
<path d="M83.3909 0.254453C84.1686 0.173419 84.1686 0.173419 85.0917 0.202591C85.5505 0.213823 85.5505 0.213823 86.0186 0.225281C86.2543 0.234908 86.49 0.244534 86.7329 0.254453C86.7329 0.437006 86.7329 0.619559 86.7329 0.807644C84.8423 0.944559 84.8423 0.944559 82.9135 1.08424C83.0711 0.81041 83.2286 0.536581 83.3909 0.254453Z" fill="#495560"/>
<path d="M69.5458 0.254453C70.3235 0.173419 70.3235 0.173419 71.2466 0.202591C71.7054 0.213823 71.7054 0.213823 72.1735 0.225281C72.4092 0.234908 72.6449 0.244534 72.8877 0.254453C72.8877 0.437006 72.8877 0.619559 72.8877 0.807644C70.9971 0.944559 70.9971 0.944559 69.0684 1.08424C69.2259 0.81041 69.3835 0.536581 69.5458 0.254453Z" fill="#495560"/>
<path d="M58.0877 0.254395C59.1512 0.528224 59.1512 0.528224 60.2361 0.807586C59.9998 1.08142 59.7635 1.35525 59.52 1.63737C59.2837 1.5461 59.0473 1.45482 58.8038 1.36078C58.3124 1.29903 57.8198 1.24819 57.3268 1.20519C56.9377 1.17043 56.9377 1.17043 56.5408 1.13496C56.3423 1.11821 56.1438 1.10145 55.9393 1.08418C55.9393 0.992905 55.9393 0.901628 55.9393 0.807586C57.0028 0.670671 57.0028 0.670671 58.0877 0.53099C58.0877 0.439714 58.0877 0.348437 58.0877 0.254395Z" fill="#778088"/>
<path d="M7.48126 0.254395C8.54471 0.528224 8.54471 0.528224 9.62964 0.807586C9.39332 1.08142 9.157 1.35525 8.91352 1.63737C8.67719 1.5461 8.44087 1.45482 8.19739 1.36078C7.7059 1.29903 7.21334 1.24819 6.72037 1.20519C6.33127 1.17043 6.33127 1.17043 5.93431 1.13496C5.73583 1.11821 5.53736 1.10145 5.33287 1.08418C5.33287 0.992905 5.33287 0.901628 5.33287 0.807586C6.39632 0.670671 6.39632 0.670671 7.48126 0.53099C7.48126 0.439714 7.48126 0.348437 7.48126 0.254395Z" fill="#778088"/>
<path d="M86.4942 8.82886C87.2819 9.10269 88.0696 9.37652 88.8813 9.65864C88.6449 10.0694 88.6449 10.0694 88.4038 10.4884C87.6161 10.2146 86.8284 9.94077 86.0167 9.65864C86.1743 9.56737 86.3318 9.47609 86.4942 9.38205C86.4942 9.1995 86.4942 9.01694 86.4942 8.82886Z" fill="#69737C"/>
<path d="M72.649 8.82886C73.4367 9.10269 74.2245 9.37652 75.0361 9.65864C74.7998 10.0694 74.7998 10.0694 74.5587 10.4884C73.7709 10.2146 72.9832 9.94077 72.1716 9.65864C72.3291 9.56737 72.4867 9.47609 72.649 9.38205C72.649 9.1995 72.649 9.01694 72.649 8.82886Z" fill="#69737C"/>
<path d="M51.6425 4.67993C51.9565 5.69188 51.7988 6.36171 51.5381 7.37674C51.4352 7.78535 51.4352 7.78535 51.3302 8.20221C51.2757 8.409 51.2212 8.6158 51.1651 8.82887C51.0864 8.82887 51.0076 8.82887 50.9264 8.82887C50.7943 5.90855 50.7943 5.90855 51.6425 4.67993Z" fill="#4D5964"/>
<path d="M1.0361 4.67993C1.35009 5.69188 1.19238 6.36171 0.931664 7.37674C0.828734 7.78535 0.828734 7.78535 0.723725 8.20221C0.669261 8.409 0.614796 8.6158 0.55868 8.82887C0.479906 8.82887 0.401132 8.82887 0.31997 8.82887C0.187837 5.90855 0.187837 5.90855 1.0361 4.67993Z" fill="#4D5964"/>
<path d="M28.7264 12.1479C29.1908 12.955 29.5525 13.7672 29.92 14.6373C29.9987 14.8199 30.0775 15.0024 30.1587 15.1905C30.0011 15.3731 29.8436 15.5556 29.6813 15.7437C29.0587 14.7431 28.5775 13.949 28.4877 12.7011C28.5665 12.5186 28.6453 12.336 28.7264 12.1479Z" fill="#66717A"/>
<path d="M20.6103 7.72266C20.6891 7.90521 20.7678 8.08776 20.849 8.27585C20.6252 9.00191 20.6252 9.00191 20.3716 9.65883C19.9777 9.65883 19.5838 9.65883 19.178 9.65883C19.2228 9.00191 19.2228 9.00191 19.4167 8.27585C20.0284 7.91282 20.0284 7.91282 20.6103 7.72266Z" fill="#4C5863"/>
<path d="M16.5522 13.2544C16.7886 13.3457 17.0249 13.4369 17.2684 13.531C16.6776 14.4894 16.6776 14.4894 16.0748 15.4672C15.8385 15.2846 15.6022 15.1021 15.3587 14.914C15.7526 14.3663 16.1464 13.8186 16.5522 13.2544Z" fill="#67717A"/>
<path d="M55.9393 17.4033C56.8058 17.4033 57.6724 17.4033 58.5651 17.4033C58.5651 17.5859 58.5651 17.7684 58.5651 17.9565C56.7919 18.3121 56.7919 18.3121 55.9393 17.9565C55.9393 17.774 55.9393 17.5914 55.9393 17.4033Z" fill="#48545F"/>
<path d="M5.33287 17.4033C6.19939 17.4033 7.0659 17.4033 7.95868 17.4033C7.95868 17.5859 7.95868 17.7684 7.95868 17.9565C6.18541 18.3121 6.18541 18.3121 5.33287 17.9565C5.33287 17.774 5.33287 17.5914 5.33287 17.4033Z" fill="#48545F"/>
<path d="M84.5845 8.27563C85.5298 8.54946 85.5298 8.54946 86.4942 8.82883C86.4942 9.01138 86.4942 9.19393 86.4942 9.38202C85.7064 9.29074 84.9187 9.19946 84.1071 9.10542C84.2646 9.01415 84.4222 8.92287 84.5845 8.82883C84.5845 8.64627 84.5845 8.46372 84.5845 8.27563Z" fill="#5D6872"/>
<path d="M70.7393 8.27563C71.6846 8.54946 71.6846 8.54946 72.649 8.82883C72.649 9.01138 72.649 9.19393 72.649 9.38202C71.8613 9.29074 71.0735 9.19946 70.2619 9.10542C70.4195 9.01415 70.577 8.92287 70.7393 8.82883C70.7393 8.64627 70.7393 8.46372 70.7393 8.27563Z" fill="#5D6872"/>
<path d="M62.8619 6.3396C63.0982 6.43088 63.3346 6.52215 63.578 6.6162C63.578 7.43768 63.578 8.25917 63.578 9.10556C63.2629 9.01428 62.9478 8.923 62.6232 8.82896C62.7807 8.82896 62.9383 8.82896 63.1006 8.82896C63.0218 8.00747 62.9431 7.18598 62.8619 6.3396Z" fill="#4E5A64"/>
<path d="M12.2554 6.3396C12.4918 6.43088 12.7281 6.52215 12.9716 6.6162C12.9716 7.43768 12.9716 8.25917 12.9716 9.10556C12.6565 9.01428 12.3414 8.923 12.0167 8.82896C12.1743 8.82896 12.3318 8.82896 12.4942 8.82896C12.4154 8.00747 12.3366 7.18598 12.2554 6.3396Z" fill="#4E5A64"/>
<path d="M62.3845 4.12671C62.542 4.12671 62.6996 4.12671 62.8619 4.12671C63.1619 4.9305 63.3393 5.45327 63.3393 6.33948C63.103 6.43075 62.8667 6.52203 62.6232 6.61607C62.5444 5.79458 62.4657 4.97309 62.3845 4.12671Z" fill="#626C76"/>
<path d="M11.778 4.12671C11.9356 4.12671 12.0931 4.12671 12.2554 4.12671C12.5554 4.9305 12.7329 5.45327 12.7329 6.33948C12.4965 6.43075 12.2602 6.52203 12.0167 6.61607C11.938 5.79458 11.8592 4.97309 11.778 4.12671Z" fill="#626C76"/>
<path d="M45.6748 2.19067C45.8324 2.28195 45.9899 2.37323 46.1522 2.46727C45.7584 3.19748 45.3645 3.9277 44.9587 4.68004C44.8011 4.31493 44.6436 3.94982 44.4813 3.57365C44.8751 3.11727 45.269 2.66089 45.6748 2.19067Z" fill="#5E6872"/>
<path d="M80.5264 14.6375C80.8845 15.0178 80.8845 15.0178 81.2426 15.4672C81.2426 15.6498 81.2426 15.8323 81.2426 16.0204C81.4001 16.1117 81.5577 16.203 81.72 16.297C81.4837 16.4796 81.2473 16.6621 81.0038 16.8502C80.6309 16.5218 80.6309 16.5218 80.2877 16.0204C80.3623 15.2771 80.3623 15.2771 80.5264 14.6375Z" fill="#6C767F"/>
<path d="M66.6813 14.6375C67.0393 15.0178 67.0393 15.0178 67.3974 15.4672C67.3974 15.6498 67.3974 15.8323 67.3974 16.0204C67.5549 16.1117 67.7125 16.203 67.8748 16.297C67.6385 16.4796 67.4022 16.6621 67.1587 16.8502C66.7857 16.5218 66.7857 16.5218 66.4426 16.0204C66.5171 15.2771 66.5171 15.2771 66.6813 14.6375Z" fill="#6C767F"/>
<path d="M54.9845 0.531006C55.2208 0.622282 55.4571 0.713559 55.7006 0.807602C55.7006 0.990155 55.7006 1.17271 55.7006 1.36079C54.5966 1.94856 54.5966 1.94856 53.7909 1.63739C54.181 1.16485 54.4758 0.82571 54.9845 0.531006Z" fill="#5D6771"/>
<path d="M4.37803 0.531006C4.61436 0.622282 4.85068 0.713559 5.09416 0.807602C5.09416 0.990155 5.09416 1.17271 5.09416 1.36079C3.99013 1.94856 3.99013 1.94856 3.18449 1.63739C3.57457 1.16485 3.86936 0.82571 4.37803 0.531006Z" fill="#5D6771"/>
<path d="M24.9071 0.531006C25.1434 0.531006 25.3797 0.531006 25.6232 0.531006C25.4591 1.20521 25.4591 1.20521 25.1458 1.91398C24.5192 2.13872 24.5192 2.13872 23.9522 2.19058C24.3849 1.36079 24.3849 1.36079 24.9071 0.531006Z" fill="#6C767F"/>
<path d="M17.7458 11.595C17.9033 11.595 18.0609 11.595 18.2232 11.595C17.9249 12.6054 17.8243 12.9173 17.0296 13.5311C16.9509 13.3486 16.8721 13.166 16.7909 12.9779C17.0966 12.5057 17.4158 12.0448 17.7458 11.595Z" fill="#54606A"/>
<path d="M31.8297 16.8501C32.3811 16.9414 32.9325 17.0327 33.5006 17.1267C33.2643 17.2636 33.2643 17.2636 33.0232 17.4033C33.0232 17.5858 33.0232 17.7684 33.0232 17.9565C32.6293 17.8652 32.2355 17.7739 31.8297 17.6799C31.8297 17.4061 31.8297 17.1322 31.8297 16.8501Z" fill="#69737D"/>
<path d="M20.3716 9.38208C20.8341 9.60681 20.8341 9.60681 21.3264 9.93527C21.4052 10.2091 21.484 10.4829 21.5651 10.7651C21.3288 10.8563 21.0925 10.9476 20.849 11.0417C20.6127 10.5853 20.3764 10.1289 20.1329 9.65868C20.2116 9.5674 20.2904 9.47612 20.3716 9.38208Z" fill="#626D76"/>
<path d="M29.4426 3.02051C29.6789 3.11178 29.9152 3.20306 30.1587 3.2971C29.9224 3.84476 29.686 4.39242 29.4426 4.95668C29.285 4.59157 29.1275 4.22647 28.9651 3.8503C29.1227 3.57647 29.2802 3.30264 29.4426 3.02051Z" fill="#646E77"/>
</svg>
