<svg width="24" height="36" viewBox="0 0 24 36" fill="none" xmlns="http://www.w3.org/2000/svg">
<path d="M6.00009 36.0001C9.31212 36.0001 12.0002 33.312 12.0002 30V24H6.00009C2.68807 24 0 26.688 0 30C0 33.312 2.68807 36.0001 6.00009 36.0001Z" fill="#0ACF83"/>
<path d="M0 18C0 14.688 2.68807 12 6.00009 12H12.0002V23.9999H6.00009C2.68807 24.0001 0 21.312 0 18Z" fill="#A259FF"/>
<path d="M0 6.00005C0 2.68805 2.68807 0 6.00009 0H12.0002V11.9999H6.00009C2.68807 11.9999 0 9.31204 0 6.00005Z" fill="#F24E1E"/>
<path d="M11.9998 0H17.9999C21.3119 0 24 2.68805 24 6.00005C24 9.31204 21.3119 11.9999 17.9999 11.9999H11.9998V0Z" fill="#FF7262"/>
<path d="M24 18C24 21.312 21.3119 24.0001 17.9999 24.0001C14.6879 24.0001 11.9998 21.312 11.9998 18C11.9998 14.688 14.6879 12 17.9999 12C21.3119 12 24 14.688 24 18Z" fill="#1ABCFE"/>
</svg>
