<svg width="17" height="24" viewBox="0 0 17 24" fill="none" xmlns="http://www.w3.org/2000/svg">
<path d="M4.20006 24.0001C6.40808 24.0001 8.20012 22.208 8.20012 20V16H4.20006C1.99205 16 0.200001 17.792 0.200001 20C0.200001 22.208 1.99205 24.0001 4.20006 24.0001Z" fill="white"/>
<path d="M0.200001 12C0.200001 9.79203 1.99205 8 4.20006 8H8.20012V16H4.20006C1.99205 16.0001 0.200001 14.208 0.200001 12Z" fill="white"/>
<path d="M0.200001 4.00003C0.200001 1.79203 1.99205 0 4.20006 0H8.20012V7.99996H4.20006C1.99205 7.99996 0.200001 6.20803 0.200001 4.00003Z" fill="white"/>
<path d="M8.19988 0H12.1999C14.408 0 16.2 1.79203 16.2 4.00003C16.2 6.20803 14.408 7.99996 12.1999 7.99996H8.19988V0Z" fill="white"/>
<path d="M16.2 12C16.2 14.208 14.408 16.0001 12.1999 16.0001C9.99192 16.0001 8.19988 14.208 8.19988 12C8.19988 9.79203 9.99192 8 12.1999 8C14.408 8 16.2 9.79203 16.2 12Z" fill="white"/>
</svg>
