<svg width="17" height="24" viewBox="0 0 17 24" fill="none" xmlns="http://www.w3.org/2000/svg">
<path d="M4.20006 24.0001C6.40807 24.0001 8.20012 22.208 8.20012 20V16H4.20006C1.99204 16 0.199997 17.792 0.199997 20C0.199997 22.208 1.99204 24.0001 4.20006 24.0001Z" fill="#020817"/>
<path d="M0.199997 12C0.199997 9.79203 1.99204 8 4.20006 8H8.20012V16H4.20006C1.99204 16.0001 0.199997 14.208 0.199997 12Z" fill="#020817"/>
<path d="M0.199997 4.00003C0.199997 1.79203 1.99204 0 4.20006 0H8.20012V7.99996H4.20006C1.99204 7.99996 0.199997 6.20803 0.199997 4.00003Z" fill="#020817"/>
<path d="M8.19987 0H12.1999C14.408 0 16.2 1.79203 16.2 4.00003C16.2 6.20803 14.408 7.99996 12.1999 7.99996H8.19987V0Z" fill="#020817"/>
<path d="M16.2 12C16.2 14.208 14.408 16.0001 12.1999 16.0001C9.99192 16.0001 8.19987 14.208 8.19987 12C8.19987 9.79203 9.99192 8 12.1999 8C14.408 8 16.2 9.79203 16.2 12Z" fill="#020817"/>
</svg>
