<svg width="27" height="34" viewBox="0 0 27 34" fill="none" xmlns="http://www.w3.org/2000/svg">
<path d="M8.31299 32.3784C9.70787 32.9398 11.2211 33.2729 12.8101 33.3284C14.9605 33.4035 17.0054 32.9589 18.8336 32.1144C16.6413 31.2531 14.6559 29.9935 12.9614 28.4275C11.8631 30.1861 10.2385 31.5752 8.31299 32.3784Z" fill="#FF9100"/>
<path d="M12.9612 28.428C9.09328 24.8507 6.7468 19.673 6.9451 13.9939C6.95158 13.8096 6.9613 13.6252 6.9727 13.441C6.27994 13.2618 5.5567 13.1525 4.81246 13.1265C3.74716 13.0893 2.71546 13.2214 1.74148 13.4957C0.708932 15.3044 0.0858376 17.3797 0.00820965 19.6026C-0.192118 25.3392 3.27952 30.3518 8.31274 32.3789C10.2383 31.5757 11.8628 30.1883 12.9612 28.428Z" fill="#FFC400"/>
<path d="M12.9613 28.428C13.8606 26.9888 14.4058 25.3016 14.4693 23.4838C14.6363 18.7021 11.4218 14.5887 6.97277 13.4409C6.96137 13.6252 6.95165 13.8095 6.94517 13.9939C6.74687 19.6729 9.09335 24.8506 12.9613 28.428Z" fill="#FF9100"/>
<path d="M13.9718 0C11.4379 2.02994 9.43703 4.70662 8.22641 7.79008C7.53335 9.55624 7.09781 11.4534 6.97067 13.4421C11.4197 14.5899 14.6342 18.7032 14.4673 23.4849C14.4038 25.3027 13.8569 26.9883 12.9592 28.4291C14.6536 29.9967 16.6391 31.2547 18.8313 32.1159C23.2315 30.0819 26.3535 25.7052 26.5343 20.5283C26.6514 17.1743 25.3627 14.1849 23.5418 11.6616C21.6187 8.99302 13.9718 0 13.9718 0Z" fill="#DD2C00"/>
</svg>
