<svg width="36" height="36" viewBox="0 0 36 36" fill="none" xmlns="http://www.w3.org/2000/svg">
<path d="M10.759 32.058C9.38795 30.8482 7.92611 29.6892 6.92453 28.0579C4.82091 25.1804 3.20024 21.8452 2.09495 18.3428C1.42399 16.0648 1.1971 13.6233 0.331665 11.4326C-0.569425 9.84123 0.487249 8.10458 2.03985 7.59957C2.73025 7.45061 3.94899 6.71671 2.48067 7.24352C1.16469 8.3262 1.03828 6.25893 2.38667 6.12813C3.30721 5.99007 3.64755 5.14718 3.33314 4.38422C2.34453 3.66122 5.73172 2.86555 4.02678 1.7865C2.25053 -0.360695 6.50964 -0.774876 5.45945 1.66661C5.20987 3.54132 8.43499 1.32146 7.68625 3.48682C8.44796 4.52591 10.5386 3.72298 10.4835 5.18351C11.5921 5.27071 11.9745 6.31343 13.0118 6.39335C14.0911 6.93833 16.0456 7.37068 16.4119 8.73311C15.3423 9.68137 12.8627 6.7712 12.746 9.40161C13.0701 13.2855 12.9858 17.2856 14.2532 20.9841C14.8528 23.2222 16.3049 24.9842 17.6177 26.7282C18.8753 28.4358 20.5738 29.6383 22.3111 30.652C23.8313 31.4549 25.4714 31.989 27.131 32.3232C27.802 31.7456 28.9915 29.6056 30.0385 30.5067C30.0903 31.5239 27.9575 32.6284 29.938 32.5194C31.1016 32.127 31.9087 33.5258 32.8682 32.2615C33.7498 33.435 36.5373 31.513 35.9085 33.9073C35.0593 34.5213 33.8211 34.1507 32.9686 34.9972C31.5651 34.2125 30.4501 35.6984 28.8975 35.5132C27.1731 35.8583 25.4196 36 23.6693 36C20.8007 35.7457 17.8705 35.6403 15.1446 34.5213C13.6082 34.0199 12.1074 33.039 10.759 32.058V32.058ZM13.1803 33.2352C14.681 33.9618 16.1494 34.7284 17.7927 34.9609C20.402 35.3678 23.0988 35.9927 25.7178 35.4223C24.5314 34.8229 23.3062 35.6548 22.1264 34.9936C20.7099 35.3351 19.1897 34.9064 17.7506 34.6957C16.1137 33.8782 14.3472 33.3151 12.814 32.2542C10.8984 31.4694 13.8059 33.2606 14.3213 33.4059C15.5173 34.1689 13.0053 33.0135 12.6487 32.6975C11.6472 32.0653 11.5175 32.1997 12.5482 32.8391C12.7557 32.9736 12.9631 33.1189 13.1803 33.2352ZM10.3247 30.9717C11.78 31.5748 10.3182 29.8236 9.65374 29.9254C9.35877 29.3513 8.52575 28.988 9.11243 28.6792C8.05576 29.0897 8.0039 27.1169 7.50797 27.3967C6.38971 27.0007 7.07363 25.5983 5.74145 24.7372C5.62152 23.8289 4.41898 23.0441 4.03651 21.6744C3.86796 20.9732 2.67839 18.9641 3.40769 20.8352C4.03002 22.6372 5.12235 24.1813 6.03317 25.7218C6.73978 27.1896 7.57604 28.7228 8.85961 29.6383C9.29395 30.1106 9.71208 30.8264 10.3247 30.9717V30.9717ZM6.13365 25.8162C6.18551 25.5692 6.39944 26.3467 6.13365 25.8162V25.8162ZM12.0653 31.6947C12.3894 31.5348 11.6018 31.4912 12.0653 31.6947V31.6947ZM12.8562 32.0181C12.7751 31.5712 12.4964 32.2687 12.8562 32.0181V32.0181ZM13.8448 32.4795C14.3148 31.9781 13.1187 32.1634 13.8448 32.4795V32.4795ZM15.5368 33.5367C15.8252 33.0644 14.6227 33.3587 15.5368 33.5367V33.5367ZM12.2857 30.9971C13.015 30.4667 11.3425 30.9899 12.2857 30.9971V30.9971ZM13.028 31.4113C13.0053 31.1316 12.7622 31.5348 13.028 31.4113V31.4113ZM16.7328 34.0018C17.3292 34.4232 20.2108 34.9246 18.4053 34.1762C18.1039 34.2488 15.057 33.2097 16.7328 34.0018ZM10.8498 28.8681C10.7914 28.5883 9.92601 28.5593 10.8498 28.8681V28.8681ZM12.5742 29.9944C13.0247 29.6456 11.6439 29.7255 12.5742 29.9944V29.9944ZM14.0263 30.9935C14.6681 30.721 12.9793 30.721 14.0263 30.9935V30.9935ZM10.1464 28.0107C10.8465 28.6101 12.9664 28.087 11.2161 27.651C10.4219 27.175 8.62623 26.8517 9.84822 27.938L10.1464 28.0107V28.0107ZM15.0084 31.3386C15.3001 30.7828 13.7864 31.0189 15.0084 31.3386V31.3386ZM13.5304 30.0198C15.2385 30.5612 12.0945 28.8063 13.109 29.82L13.3359 29.9362L13.5304 30.0198V30.0198ZM16.4929 31.9381C18.1104 31.9563 15.0311 31.6911 16.4929 31.9381V31.9381ZM9.52408 26.9607C9.4625 26.6228 9.1254 26.9898 9.52408 26.9607V26.9607ZM19.2286 33.6602C19.274 33.0499 18.7035 34.1144 19.2286 33.6602V33.6602ZM12.2857 28.8572C12.1885 28.5375 11.78 28.8427 12.2857 28.8572V28.8572ZM9.67967 26.75C10.6067 26.6882 8.40582 26.2922 9.67967 26.75V26.75ZM6.58744 24.5119C6.47075 24.0106 5.57614 23.6145 6.58744 24.5119V24.5119ZM14.7005 30.2814C14.5319 30.0634 14.6195 30.3286 14.7005 30.2814V30.2814ZM19.7505 33.7547C19.7343 33.4241 19.475 33.8819 19.7505 33.7547V33.7547ZM14.2532 29.7655C14.3439 29.3368 13.4623 29.6347 14.2532 29.7655V29.7655ZM10.4932 27.0915C11.1836 27.0079 9.3847 26.5683 10.4932 27.0915V27.0915ZM16.856 31.5239C17.9321 31.0444 15.8058 31.2914 16.856 31.5239V31.5239ZM13.5466 29.0062C14.788 29.1842 12.0685 28.0579 13.2743 28.9044L13.5466 29.0062ZM17.8608 31.9817C19.0212 31.2042 18.6387 33.8019 19.8283 32.1997C21.0016 31.2406 18.8137 33.3878 20.2594 32.3705C21.3063 31.5857 22.8492 32.7411 23.8248 33.1189C24.525 33.0789 25.2089 33.7983 25.9285 33.3623C27.3125 32.9445 23.2187 32.7411 24.2916 31.9999C23.0242 32.4141 22.0875 31.5058 21.4651 30.5975C20.0422 30.2305 18.3988 29.4167 17.689 28.0034C17.4005 27.473 18.1071 28.0797 17.4394 27.2114C16.5837 26.3576 16.1558 25.3875 15.5821 24.3484C14.895 23.9379 14.8139 22.7281 14.7459 24.3085C14.7524 23.313 13.9161 22.6409 13.7119 22.9206C13.7086 21.9615 14.6065 22.441 13.9777 21.7326C13.8415 20.7371 13.3975 19.7016 13.2646 18.579C13.0571 18.0376 13.2354 16.8787 12.5547 18.103C12.3084 19.4001 12.4737 16.5117 12.8594 17.4636C13.3651 16.4935 12.6779 16.6062 12.6487 16.7406C12.9793 15.9195 12.8562 14.7569 12.5612 15.2001C12.7362 14.3318 12.84 12.003 12.2987 12.4171C12.626 11.5088 12.921 8.2608 11.4981 9.49971C10.9211 9.51061 9.92601 9.73223 9.45277 9.99745C10.9308 10.9094 9.30367 10.3281 8.70078 10.1827C8.62299 11.0293 8.02659 10.6623 7.28108 10.6696C8.47065 10.8331 6.70088 12.032 6.0202 11.567C5.13208 12.0429 6.78516 13.2273 6.03641 13.5943C6.12717 14.1465 4.67829 13.3945 4.79174 14.6697C3.93278 14.2628 4.67505 16.1811 5.10291 15.5344C6.56475 15.9776 6.13365 16.9913 6.1693 17.9504C5.92945 18.51 4.9927 16.6352 5.96186 16.7224C5.1969 15.3309 5.11587 16.2211 4.48381 16.8641C4.33795 16.9114 6.10124 17.7833 4.9927 18.2157C5.96834 18.3864 5.99751 19.3419 6.19523 19.9451C6.78192 20.6281 6.66199 19.1894 7.36211 20.0104C6.91805 19.2765 5.01215 17.9468 6.5453 18.3719C6.53557 17.6344 6.26654 17.0385 6.73978 17.0531C7.20653 16.1084 6.25034 19.3855 7.30053 18.183C7.59225 18.0413 7.66356 17.2383 8.18541 18.2593C8.94388 19.0949 8.46093 19.7016 7.38804 18.935C7.57928 19.6653 8.82071 19.9233 8.58734 21.0641C8.83368 22.0668 9.1805 21.6962 9.48195 21.6381C9.71856 22.6118 9.85146 21.8961 9.86442 21.431C10.947 21.6926 10.6942 22.4083 11.0313 22.9097C11.7768 23.2876 9.9649 20.352 11.2452 22.0269C12.5936 23.3893 11.7509 23.9597 10.5419 23.7417C11.3068 23.6727 11.5532 24.9007 12.5093 24.8571C13.3813 25.3221 13.9744 27.1096 12.4705 26.3648C11.9486 25.838 10.101 25.1877 11.6115 26.1905C13.0053 26.9135 14.1106 27.3458 15.4557 28.2541C16.4152 29.0243 16.8333 29.9036 17.1963 30.0779C16.3892 30.5103 14.7621 29.7328 15.9711 29.493C15.2159 29.3404 14.3699 28.9117 15.0927 29.9653C15.7053 30.5394 17.2676 30.4812 17.5496 30.543C17.313 31.1279 16.9046 31.1752 17.5593 31.2188C16.83 31.662 17.7927 31.731 17.8608 31.9817V31.9817ZM16.3698 27.2586C15.9257 26.7391 15.8123 25.7654 16.292 26.6119C16.5351 26.7209 17.0796 28.2032 16.3698 27.2586ZM21.2285 30.7174C21.504 30.6956 21.235 30.9535 21.2285 30.7174V30.7174ZM15.6696 25.9834C15.6502 25.195 15.8285 26.5901 15.6696 25.9834V25.9834ZM15.1867 25.2531C14.6259 24.0469 15.8901 25.5983 15.1867 25.2531V25.2531ZM9.33284 20.7262C9.66022 20.6281 9.49491 21.3547 9.33284 20.7262V20.7262ZM13.9906 23.5564C14.1916 22.7099 14.2273 24.2685 13.9906 23.5564V23.5564ZM10.7007 20.9914C10.4705 20.5227 11.1869 21.431 10.7007 20.9914V20.9914ZM13.5239 22.0051C12.9955 20.679 13.8999 21.2784 13.6406 22.223L13.5239 22.0051ZM8.65541 18.3683C8.41879 17.9323 8.02983 16.6534 8.153 16.2647C8.26645 16.9005 9.35877 19.0004 8.68782 17.133C7.94879 15.5707 9.5727 17.6416 9.74125 18.0304C9.81904 18.4191 9.28422 17.925 9.64725 18.8333C8.98602 17.7979 9.25829 19.4073 8.65541 18.3683ZM7.15143 17.2056C7.21301 16.192 7.49501 17.8996 7.15143 17.2056V17.2056ZM7.82562 17.4672C8.14976 16.7006 8.37341 18.5318 7.82562 17.4672V17.4672ZM6.19848 16.0539C5.63773 15.429 5.23256 14.855 6.22441 15.6652C6.60688 15.6834 5.37518 14.3572 6.31516 15.2437C7.30701 15.4472 6.8046 17.064 6.19848 16.0539ZM7.05419 16.0285C7.37832 15.6688 7.22598 16.3846 7.05419 16.0285V16.0285ZM7.57928 16.2174C7.0866 15.182 8.17893 16.6534 7.57928 16.2174V16.2174ZM6.53557 15.0984C4.90843 13.4744 8.58085 15.9486 6.80136 15.4L6.53557 15.0984ZM11.1999 18.1357C10.4932 17.6634 11.0119 14.8005 11.2517 16.7588C11.9356 16.5117 11.2128 17.7688 11.7249 17.7579C11.6472 18.5499 11.417 18.8369 11.1999 18.1357ZM12.9275 19.2802C12.9955 18.4155 13.0733 19.8688 12.9275 19.2802V19.2802ZM12.626 18.9459C12.7038 18.579 12.6358 19.3819 12.626 18.9459V18.9459ZM6.85322 14.5643C5.80627 12.9476 9.89359 16.2029 7.52418 14.9749C7.2746 14.8986 6.9764 14.8732 6.85322 14.5643ZM10.1788 16.5371C10.0784 15.1747 10.3992 16.7624 10.1788 16.5371V16.5371ZM12.7006 18.3537C12.8951 17.5762 12.7168 18.866 12.7006 18.3537V18.3537ZM7.01529 13.9467C7.63763 13.7977 9.59215 15.1711 7.79645 14.3391C7.59549 14.0884 7.17088 14.201 7.01529 13.9467ZM12.3538 16.9295C12.4186 15.5344 12.7265 16.0975 12.357 17.1294L12.3538 16.9295ZM7.47556 13.4599C7.72838 13.042 6.80136 11.5779 7.60846 12.933C7.95852 13.2419 8.61651 13.4526 8.03307 13.5834C8.95361 14.4917 7.81266 13.8304 7.47556 13.4599V13.4599ZM12.0912 16.4935C12.2662 14.9059 12.2436 17.4236 12.0912 16.4935V16.4935ZM6.94722 11.9957C7.1417 11.9012 7.05095 12.2827 6.94722 11.9957V11.9957ZM8.14976 12.7986C8.46093 12.0684 8.72347 13.6088 8.14976 12.7986V12.7986ZM11.5434 14.9131C11.5434 14.6334 11.6083 15.32 11.5434 14.9131V14.9131ZM11.349 14.4263C10.879 13.122 11.7865 15.1166 11.349 14.4263V14.4263ZM11.0605 13.5725C10.9794 13.0348 11.3295 14.2483 11.0605 13.5725V13.5725ZM11.5305 12.7151C11.2063 12.0756 11.9389 9.89936 12.0199 11.2509C11.6796 12.3009 11.9227 12.8895 12.1593 11.4798C12.6001 10.368 12.0653 13.6669 11.5305 12.7151ZM12.0134 9.47791C12.156 9.28535 12.0458 9.71407 12.0134 9.47791V9.47791ZM11.2063 27.324C11.0151 27.1351 11.229 27.4439 11.2063 27.324V27.324ZM12.8691 28.2686C13.7962 28.5375 13.7897 28.1088 12.9534 27.9816C12.5029 27.5129 11.0832 27.0152 12.3538 27.9235C12.4413 28.1596 12.7071 28.1524 12.8691 28.2686ZM9.58243 25.8199C10.0913 26.2486 11.5045 27.0261 10.3085 25.9834C10.7104 25.4602 9.53705 25.1804 9.92601 24.828C8.93416 24.1486 9.14485 24.2104 9.83849 24.2322C8.64892 23.6363 10.0103 23.6799 9.94546 23.3748C9.48519 23.273 7.6668 22.4665 8.73644 23.4402C7.64735 22.8189 8.47713 23.6727 8.14652 23.5818C7.0315 23.2403 9.13836 24.5337 7.97148 24.2104C8.61003 24.7772 9.68939 25.6636 8.24051 24.8099C8.05576 25.1187 9.28098 25.5874 9.58243 25.8199V25.8199ZM11.323 26.9425C13.4396 27.7055 10.2858 26.0052 11.323 26.9425V26.9425ZM20.2367 32.9917C20.2626 32.5194 19.945 33.395 20.2367 32.9917V32.9917ZM21.1507 33.4241C21.6402 32.8936 21.1702 34.2706 21.9611 33.2933C21.9708 32.5957 21.9384 32.1815 21.0535 33.0317C20.8104 33.1843 20.7002 33.8274 21.1507 33.4241ZM6.61337 23.1895C6.46102 22.5282 5.55993 22.5319 6.61337 23.1895V23.1895ZM7.58901 23.9088C7.22598 23.2331 6.29247 23.2985 7.58901 23.9088V23.9088ZM13.1544 27.6692C13.6989 28.2105 15.6502 28.0652 13.8124 27.7346C13.5433 27.284 12.088 27.393 13.1544 27.6692ZM20.8039 32.9627C21.6369 32.1779 19.9936 33.3151 20.8039 32.9627V32.9627ZM22.5413 34.3033C22.5478 34.0526 22.1815 34.4123 22.5413 34.3033V34.3033ZM22.5445 33.9509C23.4715 32.85 21.6467 34.0163 22.5445 33.9509V33.9509ZM4.20506 20.9333C3.41741 19.6726 3.71562 19.1058 2.9539 18.074C2.80804 17.2856 1.64765 15.4981 2.35426 17.3909C2.99928 18.4991 3.19052 20.2139 4.20506 20.9333ZM22.2528 33.6021C23.9577 32.3668 21.5559 33.0644 22.2528 33.6021V33.6021ZM23.5526 34.1725C24.4083 33.3514 23.0145 34.0018 23.5526 34.1725V34.1725ZM6.32165 21.7943C6.56799 21.3874 5.69283 21.7435 6.32165 21.7943V21.7943ZM23.2835 33.7801C24.1101 33.1843 23.0923 33.2751 23.1344 33.8346L23.2835 33.7801ZM12.075 25.8635C12.0458 25.4602 11.6374 25.8962 12.075 25.8635V25.8635ZM12.7687 26.3104C12.545 25.809 12.4283 26.3866 12.7687 26.3104V26.3104ZM24.6092 34.1834C25.6692 33.326 23.9675 34.0199 24.3888 34.3469L24.6092 34.1834ZM24.2008 33.9654C25.0663 33.1552 23.2933 34.3251 24.2008 33.9654V33.9654ZM26.272 35.5095C26.8522 35.0772 25.5687 35.3715 26.272 35.5095V35.5095ZM6.85322 21.5C7.6279 21.6962 9.95194 23.64 8.58086 21.6345C7.87749 21.402 8.29886 19.4764 7.58252 19.8179C8.06224 20.7189 7.97797 21.1004 6.96667 20.5336C5.69931 19.8397 6.25358 20.8751 6.50316 21.1622C6.16606 21.253 6.95371 21.4928 6.85322 21.5V21.5ZM3.32017 18.3719C3.45955 17.7288 2.03985 14.8296 2.64922 16.9186C2.86963 17.3582 2.84694 18.1866 3.32017 18.3719ZM9.80608 22.8552C9.40739 22.481 9.78663 22.8007 9.80608 22.8552V22.8552ZM10.7882 23.1132C10.7882 22.4301 9.70235 22.8334 10.7882 23.1132V23.1132ZM19.3129 29.1333C19.1508 28.6683 18.6711 29.1261 19.3129 29.1333V29.1333ZM19.7213 29.4712C19.663 29.2096 19.4879 29.5221 19.7213 29.4712V29.4712ZM23.102 31.8546C23.4262 31.5857 22.6969 31.8219 23.102 31.8546V31.8546ZM5.08346 18.8769C6.01372 18.4736 4.08837 18.5899 5.08346 18.8769V18.8769ZM18.5642 28.3958C18.5512 27.72 17.971 28.5629 18.5642 28.3958V28.3958ZM4.71719 17.9177C5.31359 17.6925 4.16292 17.7688 4.71719 17.9177V17.9177ZM6.44806 18.8587C6.43833 18.6371 6.26654 18.9423 6.44806 18.8587V18.8587ZM27.588 33.3878C28.3562 33.2134 30.1065 33.8274 30.3885 33.1589C29.455 33.1334 27.1634 32.4213 27.0564 33.326L27.2606 33.3623L27.588 33.3878V33.3878ZM6.99908 19.015C7.01529 18.3319 6.52585 18.9895 6.99908 19.015V19.015ZM2.44501 15.4726C2.23757 14.172 1.65737 15.2764 2.44501 15.4726V15.4726ZM3.53086 15.7778C3.54382 15.36 2.53577 15.4036 3.53086 15.7778V15.7778ZM4.14995 16.1193C3.97168 15.9595 4.01058 16.3264 4.14995 16.1193V16.1193ZM8.059 18.9278C8.24376 18.7388 7.62142 18.7897 8.059 18.9278V18.9278ZM3.7383 15.3491C3.63134 14.3645 2.48067 15.2038 3.7383 15.3491V15.3491ZM1.51151 13.7287C1.4791 13.2746 1.29434 13.8995 1.51151 13.7287V13.7287ZM1.84213 13.449C1.78702 12.9112 1.55689 13.518 1.84213 13.449V13.449ZM3.67348 14.6733C4.44816 14.3318 2.2635 13.9685 3.51465 14.6079L3.67348 14.6733ZM28.1747 31.6366C28.6706 31.1279 27.5459 31.4803 28.1747 31.6366V31.6366ZM31.134 33.3587C31.3318 32.7011 30.6349 33.4423 31.134 33.3587V33.3587ZM3.85823 13.5979C3.94251 12.9621 3.24562 13.7251 3.85823 13.5979V13.5979ZM1.25544 11.6433C1.11607 10.7459 1.13551 9.16546 2.47418 9.69953C0.688211 10.0992 3.71237 12.1882 3.3299 10.5388C4.08189 10.5788 4.79822 10.041 4.40602 10.8585C5.88731 10.6769 6.91157 9.23812 8.341 9.43794C9.45601 9.27082 10.6715 9.14729 11.8708 8.64592C12.8562 8.56599 13.8059 7.37431 13.2678 6.66948C11.9227 6.54231 10.5127 6.73124 9.02816 7.06186C7.38156 7.44697 5.88407 8.1736 4.22126 8.48969C2.6006 8.73311 4.5454 9.16182 4.08189 9.25629C3.2359 9.58327 5.08994 9.80853 3.97168 10.1537C3.28128 10.0047 2.5617 9.7395 2.85666 8.92567C1.30406 9.15092 -0.0605361 9.87392 1.16793 11.6433H1.25544V11.6433ZM4.99594 9.50698C5.35897 8.00285 6.94398 10.7423 5.59235 9.7068C5.43028 9.56874 5.16449 9.45975 4.99594 9.50698ZM5.06725 8.77671C5.59235 8.34073 5.346 9.02376 5.06725 8.77671V8.77671ZM5.73497 8.79124C5.78359 8.10094 7.26163 9.15819 5.97807 9.0383L5.73497 8.79124ZM6.64578 8.37706C6.97964 7.94108 6.74302 8.76581 6.64578 8.37706V8.37706ZM6.87916 8.20267C7.43342 7.45424 10.02 7.72673 8.12707 8.13001C7.62142 7.70129 7.23246 8.38433 6.87916 8.20267ZM10.2566 7.62136C10.1723 5.57953 11.9356 8.34436 10.2566 7.62136V7.62136ZM11.2161 7.6141C11.5661 6.58591 12.5774 7.19992 11.3781 7.40701C11.4041 7.516 11.3425 7.93745 11.2161 7.6141ZM3.48224 13.0711C4.52919 12.3517 2.37046 12.4462 3.48224 13.0711V13.0711ZM4.25692 13.3109C4.62319 12.8749 3.45955 13.1329 4.25692 13.3109V13.3109ZM1.97502 11.4979C2.57467 10.982 1.26841 11.3018 1.97502 11.4979V11.4979ZM32.8811 33.1698C32.8973 32.5703 32.4241 33.4386 32.8811 33.1698V33.1698ZM29.7403 30.7682C29.831 30.0779 29.3383 30.8264 29.7403 30.7682V30.7682ZM33.7466 33.4023C34.5828 33.4059 36.2813 33.1116 34.4596 33.1116C34.1744 33.1589 32.7968 33.1516 33.7466 33.4023ZM4.9376 12.8894C5.61504 12.8386 5.99751 12.0538 4.8047 12.0974C2.96038 11.8831 6.43185 12.8059 4.56809 12.5407C4.3185 12.726 4.92139 12.9403 4.9376 12.8894ZM5.534 13.2273C5.46269 12.7405 5.32332 13.4853 5.534 13.2273V13.2273ZM6.24061 11.1128C6.53233 10.7059 5.83221 11.0038 6.24061 11.1128V11.1128ZM3.98789 6.89836C5.1969 6.43695 6.84674 5.92104 7.41722 7.12362C6.83702 6.34249 7.18384 5.56863 7.73163 6.71671C8.5063 7.87568 8.89526 6.1899 8.38962 5.80115C8.96333 6.60045 9.61808 6.97829 8.77533 5.85201C9.69263 4.61674 6.94074 6.01551 6.31516 6.00097C6.01696 6.14993 3.20997 6.80027 3.98789 6.89836ZM4.69774 5.3797C5.38814 4.7984 7.08012 5.72849 5.99427 4.80203C5.88731 4.69303 3.61189 5.50323 4.69774 5.3797ZM7.20977 5.49596C8.01686 5.51776 6.86295 4.28249 7.82238 4.84199C7.66356 4.26432 6.70412 4.15533 6.23413 3.92644C5.96834 4.45325 6.77219 5.50323 7.20977 5.49596ZM5.13856 2.93822C5.41731 2.51677 4.64912 3.15621 5.13856 2.93822V2.93822ZM6.16282 3.21434C7.4626 3.02178 5.83221 2.58943 5.90027 3.1998L6.16282 3.21434ZM4.24719 1.53582C3.33314 0.195179 5.96834 1.76107 5.03808 0.358671C4.25692 -0.338896 3.50493 1.14343 4.24719 1.53582ZM15.9841 8.62048C16.4022 7.78849 14.2532 7.49784 15.7021 8.3262C15.8382 8.37706 15.8058 8.67861 15.9841 8.62048Z" fill="white"/>
</svg>
