<svg width="35" height="35" viewBox="0 0 35 35" fill="none" xmlns="http://www.w3.org/2000/svg">
<path d="M33.4597 15.5321L18.5702 0.643268C17.7128 -0.214423 16.3222 -0.214423 15.4641 0.643268L12.3726 3.73556L16.2944 7.65733C17.2059 7.34929 18.251 7.55601 18.9773 8.28269C19.7081 9.01382 19.9129 10.0678 19.5971 10.9827L23.3775 14.7627C24.2923 14.4472 25.3471 14.6514 26.0775 15.3829C27.0981 16.4035 27.0981 18.0572 26.0775 19.0786C25.0561 20.0996 23.4023 20.0996 22.3806 19.0786C21.6131 18.3104 21.4231 17.1821 21.8124 16.2365L18.2866 12.7111V21.9883C18.5353 22.1115 18.7702 22.2756 18.9773 22.4826C19.9979 23.5033 19.9979 25.157 18.9773 26.1788C17.9567 27.199 16.3018 27.199 15.2819 26.1788C14.2613 25.1567 14.2613 23.5029 15.2819 22.4826C15.5343 22.2306 15.8264 22.0399 16.1381 21.9122V12.5485C15.8264 12.4208 15.535 12.2319 15.2819 11.9781C14.5088 11.2054 14.3229 10.0704 14.7193 9.12108L10.8532 5.25424L0.643268 15.463C-0.214423 16.3215 -0.214423 17.7121 0.643268 18.5698L15.5335 33.4589C16.3909 34.3166 17.7811 34.3166 18.6396 33.4589L33.4597 18.6388C34.3174 17.7811 34.3174 16.3897 33.4597 15.5321Z" fill="#F05133"/>
</svg>
