<svg width="24" height="24" viewBox="0 0 24 24" fill="none" xmlns="http://www.w3.org/2000/svg">
<path fill-rule="evenodd" clip-rule="evenodd" d="M11.996 0C9.1472 0.00152411 6.39177 1.04194 4.22246 2.9352C2.05315 4.82847 0.611409 7.45113 0.155039 10.3342C-0.30133 13.2173 0.257424 16.1728 1.7314 18.6723C3.20538 21.1718 5.49846 23.0522 8.20061 23.9774C8.79675 24.0915 9.0213 23.7105 9.0213 23.3866C9.0213 23.0626 9.00937 22.1234 9.0054 21.0966C5.66702 21.8402 4.96159 19.644 4.96159 19.644C4.41712 18.2179 3.63021 17.843 3.63021 17.843C2.54127 17.081 3.71169 17.0953 3.71169 17.0953C4.91788 17.1829 5.55178 18.3645 5.55178 18.3645C6.62085 20.245 8.35958 19.701 9.04315 19.3832C9.15046 18.5866 9.46244 18.0447 9.80622 17.737C7.13949 17.4274 4.33763 16.372 4.33763 11.6576C4.3211 10.435 4.76363 9.2526 5.57363 8.35512C5.45043 8.04544 5.03909 6.79452 5.69087 5.09538C5.69087 5.09538 6.69835 4.76533 8.9915 6.35649C10.9584 5.80501 13.0337 5.80501 15.0006 6.35649C17.2917 4.76533 18.2972 5.09538 18.2972 5.09538C18.951 6.79044 18.5397 8.04137 18.4165 8.35512C19.229 9.25275 19.6725 10.4372 19.6544 11.6617C19.6544 16.3863 16.8466 17.4274 14.1759 17.7309C14.6051 18.114 14.9887 18.8617 14.9887 20.0107C14.9887 21.6569 14.9747 22.9811 14.9747 23.3866C14.9747 23.7146 15.1913 24.0976 15.7994 23.9774C18.5019 23.0521 20.7952 21.1714 22.2691 18.6715C23.7431 16.1716 24.3015 13.2156 23.8447 10.3322C23.3878 7.44886 21.9453 4.82617 19.7753 2.93323C17.6053 1.04029 14.8492 0.000558055 12 0H11.996Z" fill="white"/>
<path d="M4.54005 17.6655C4.51422 17.7267 4.41883 17.745 4.34134 17.7022C4.26384 17.6594 4.20622 17.58 4.23404 17.5168C4.26186 17.4537 4.35525 17.4374 4.43275 17.4801C4.51025 17.5229 4.56986 17.6044 4.54005 17.6655Z" fill="white"/>
<path d="M5.02693 18.2217C4.98578 18.243 4.9387 18.2489 4.89375 18.2385C4.8488 18.2281 4.80878 18.202 4.78053 18.1647C4.70303 18.0791 4.68713 17.961 4.74674 17.908C4.80636 17.855 4.91367 17.8795 4.99117 17.965C5.06866 18.0506 5.08655 18.1688 5.02693 18.2217Z" fill="white"/>
<path d="M5.49983 18.9288C5.4263 18.9817 5.30111 18.9288 5.23156 18.8228C5.21233 18.8038 5.19703 18.781 5.18659 18.7558C5.17614 18.7306 5.17075 18.7035 5.17075 18.6762C5.17075 18.6488 5.17614 18.6217 5.18659 18.5965C5.19703 18.5713 5.21233 18.5485 5.23156 18.5295C5.30508 18.4785 5.43028 18.5295 5.49983 18.6334C5.56938 18.7373 5.57136 18.8758 5.49983 18.9288V18.9288Z" fill="white"/>
<path d="M6.1417 19.6135C6.07612 19.6889 5.94299 19.6685 5.8337 19.5667C5.72441 19.4648 5.69857 19.3263 5.76414 19.2529C5.82972 19.1796 5.96286 19.2 6.07612 19.2998C6.18939 19.3996 6.21125 19.5402 6.1417 19.6135V19.6135Z" fill="white"/>
<path d="M7.04183 20.0127C7.01202 20.1085 6.8769 20.1513 6.74177 20.1105C6.60665 20.0698 6.51723 19.9557 6.54306 19.8579C6.56889 19.7601 6.706 19.7153 6.84312 19.7601C6.98023 19.8049 7.06766 19.9129 7.04183 20.0127Z" fill="#020817"/>
<path d="M8.02357 20.0819C8.02357 20.1817 7.9123 20.2673 7.76923 20.2693C7.62615 20.2714 7.50891 20.1899 7.50891 20.0901C7.50891 19.9902 7.62018 19.9047 7.76326 19.9026C7.90633 19.9006 8.02357 19.98 8.02357 20.0819Z" fill="#020817"/>
<path d="M8.93755 19.9251C8.95543 20.0249 8.85608 20.1288 8.713 20.1533C8.56993 20.1777 8.44474 20.1186 8.42686 20.0208C8.40897 19.923 8.5123 19.8171 8.6514 19.7906C8.7905 19.7641 8.91967 19.8252 8.93755 19.9251Z" fill="#020817"/>
</svg>
