<svg width="36" height="36" viewBox="0 0 36 36" fill="none" xmlns="http://www.w3.org/2000/svg">
<path d="M34.4963 0H17.1606C17.1606 2.07551 17.9851 4.06602 19.4527 5.53363C20.9203 7.00124 22.9108 7.82574 24.9862 7.82574H28.1797V10.9089C28.1824 15.227 31.6822 18.7269 36.0002 18.7296V1.50399C36.0002 0.673357 35.3269 0 34.4963 0Z" fill="#2684FF"/>
<path d="M25.9177 8.63818H8.58203C8.5848 12.9563 12.0846 16.4561 16.4026 16.4589H19.596V19.5521C19.6016 23.8702 23.1036 27.3678 27.4216 27.3678V10.1422C27.4216 9.31154 26.7483 8.63818 25.9177 8.63818Z" fill="url(#paint0_linear_7619_4904)"/>
<path d="M17.3356 17.2703H0C0 21.5923 3.50364 25.096 7.8256 25.096H11.029V28.1792C11.0318 32.4934 14.5255 35.9916 18.8396 35.9999V18.7742C18.8396 17.9436 18.1662 17.2703 17.3356 17.2703Z" fill="url(#paint1_linear_7619_4904)"/>
<defs>
<linearGradient id="paint0_linear_7619_4904" x1="23.2257" y1="5.00258" x2="15.8961" y2="12.6506" gradientUnits="userSpaceOnUse">
<stop offset="0.18" stop-color="#0052CC"/>
<stop offset="1" stop-color="#2684FF"/>
</linearGradient>
<linearGradient id="paint1_linear_7619_4904" x1="548.688" y1="508.254" x2="233.792" y2="819.885" gradientUnits="userSpaceOnUse">
<stop offset="0.18" stop-color="#0052CC"/>
<stop offset="1" stop-color="#2684FF"/>
</linearGradient>
</defs>
</svg>
