<svg width="37" height="36" viewBox="0 0 37 36" fill="none" xmlns="http://www.w3.org/2000/svg">
<path d="M16.9297 23.8289L18.8804 21.7859L20.8304 23.8289V32.2499H16.9297V23.8289Z" fill="#546E7A"/>
<path d="M13.8008 21.7936L16.5796 21.2874L16.9568 24.0864L12.0068 30.8994L8.85156 28.6059L13.8008 21.7936Z" fill="#F50057"/>
<path d="M12.4702 18.3066L15.0149 19.5306L13.6754 22.0169L5.66619 24.6186L4.46094 20.9091L12.4702 18.3066Z" fill="#D500F9"/>
<path d="M13.4411 14.7053L14.7806 17.1915L12.2358 18.4155L4.22656 15.813L5.43181 12.1028L13.4411 14.7053Z" fill="#29B6F6"/>
<path d="M16.3443 12.3616L15.967 15.1606L13.1883 14.6543L8.23828 7.84133L11.3943 5.54858L16.3443 12.3616Z" fill="#00E5FF"/>
<path d="M20.0687 12.171L18.118 14.214L16.168 12.171V3.75H20.0687V12.171Z" fill="#546E7A"/>
<path d="M23.1982 14.2073L20.4202 14.7136L20.043 11.9146L24.9922 5.10156L28.1482 7.39431L23.1982 14.2073Z" fill="#F50057"/>
<path d="M24.5299 17.6926L21.9844 16.4686L23.3239 13.9824L31.3331 11.3806L32.5384 15.0901L24.5299 17.6926Z" fill="#D500F9"/>
<path d="M23.5582 21.2947L22.2188 18.8085L24.7635 17.5852L32.7727 20.187L31.5675 23.8972L23.5582 21.2947Z" fill="#29B6F6"/>
<path d="M20.6562 23.6386L21.0342 20.8396L23.8123 21.3459L28.7622 28.1588L25.6062 30.4516L20.6562 23.6386Z" fill="#00E5FF"/>
</svg>
