<svg width="111" height="25" viewBox="0 0 111 25" fill="none" xmlns="http://www.w3.org/2000/svg">
<path d="M2.32812 24V1.45312H6.98438L13.8906 18.6875H14L20.9062 1.45312H25.5625V24H21.9375V7.95312H20.0781L24.1875 2.07812L15.3125 24H12.5781L3.70312 2.07812L7.8125 7.95312H5.95312V24H2.32812ZM33.6406 24.2812C32.5469 24.2812 31.5781 24.0729 30.7344 23.6562C29.901 23.2292 29.25 22.6406 28.7812 21.8906C28.3229 21.1302 28.0938 20.2604 28.0938 19.2812V19.25C28.0938 18.2604 28.3385 17.4167 28.8281 16.7188C29.3281 16.0104 30.0469 15.4531 30.9844 15.0469C31.9219 14.6302 33.0573 14.3802 34.3906 14.2969L40.7188 13.9062V16.4844L34.9375 16.8438C33.9792 16.9062 33.2448 17.1354 32.7344 17.5312C32.224 17.9271 31.9688 18.4531 31.9688 19.1094V19.125C31.9688 19.8021 32.224 20.3385 32.7344 20.7344C33.2552 21.1198 33.9427 21.3125 34.7969 21.3125C35.5469 21.3125 36.2135 21.1615 36.7969 20.8594C37.3906 20.5573 37.8594 20.1458 38.2031 19.625C38.5469 19.1042 38.7188 18.5156 38.7188 17.8594V12.8906C38.7188 12.0573 38.4531 11.401 37.9219 10.9219C37.401 10.4323 36.6458 10.1875 35.6562 10.1875C34.7396 10.1875 34.0052 10.3854 33.4531 10.7812C32.901 11.1667 32.5573 11.6667 32.4219 12.2812L32.3906 12.4219H28.7969L28.8125 12.2344C28.8958 11.2552 29.224 10.3802 29.7969 9.60938C30.3698 8.82812 31.1615 8.21354 32.1719 7.76562C33.1927 7.31771 34.401 7.09375 35.7969 7.09375C37.1823 7.09375 38.3802 7.32292 39.3906 7.78125C40.4115 8.23958 41.1979 8.88021 41.75 9.70312C42.3125 10.526 42.5938 11.4948 42.5938 12.6094V24H38.7188V21.4531H38.625C38.3125 22.026 37.9062 22.526 37.4062 22.9531C36.9062 23.3802 36.3333 23.7083 35.6875 23.9375C35.0521 24.1667 34.3698 24.2812 33.6406 24.2812ZM45.75 24V7.4375H49.625V10.2969H49.7188C49.9688 9.29688 50.4219 8.51562 51.0781 7.95312C51.7448 7.38021 52.5573 7.09375 53.5156 7.09375C53.7552 7.09375 53.9844 7.10938 54.2031 7.14062C54.4219 7.17188 54.6042 7.20833 54.75 7.25V10.7656C54.5938 10.7031 54.3698 10.651 54.0781 10.6094C53.7969 10.5677 53.4896 10.5469 53.1562 10.5469C52.4271 10.5469 51.7969 10.6979 51.2656 11C50.7344 11.2917 50.3281 11.724 50.0469 12.2969C49.7656 12.8698 49.625 13.5677 49.625 14.3906V24H45.75ZM56.8594 24V7.4375H60.75V24H56.8594ZM58.7969 5.0625C58.1927 5.0625 57.6823 4.85417 57.2656 4.4375C56.849 4.02083 56.6406 3.52083 56.6406 2.9375C56.6406 2.34375 56.849 1.84375 57.2656 1.4375C57.6823 1.02083 58.1927 0.8125 58.7969 0.8125C59.4115 0.8125 59.9271 1.02083 60.3438 1.4375C60.7604 1.84375 60.9688 2.34375 60.9688 2.9375C60.9688 3.52083 60.7604 4.02083 60.3438 4.4375C59.9271 4.85417 59.4115 5.0625 58.7969 5.0625ZM68.9531 24.2812C67.8594 24.2812 66.8906 24.0729 66.0469 23.6562C65.2135 23.2292 64.5625 22.6406 64.0938 21.8906C63.6354 21.1302 63.4062 20.2604 63.4062 19.2812V19.25C63.4062 18.2604 63.651 17.4167 64.1406 16.7188C64.6406 16.0104 65.3594 15.4531 66.2969 15.0469C67.2344 14.6302 68.3698 14.3802 69.7031 14.2969L76.0312 13.9062V16.4844L70.25 16.8438C69.2917 16.9062 68.5573 17.1354 68.0469 17.5312C67.5365 17.9271 67.2812 18.4531 67.2812 19.1094V19.125C67.2812 19.8021 67.5365 20.3385 68.0469 20.7344C68.5677 21.1198 69.2552 21.3125 70.1094 21.3125C70.8594 21.3125 71.526 21.1615 72.1094 20.8594C72.7031 20.5573 73.1719 20.1458 73.5156 19.625C73.8594 19.1042 74.0312 18.5156 74.0312 17.8594V12.8906C74.0312 12.0573 73.7656 11.401 73.2344 10.9219C72.7135 10.4323 71.9583 10.1875 70.9688 10.1875C70.0521 10.1875 69.3177 10.3854 68.7656 10.7812C68.2135 11.1667 67.8698 11.6667 67.7344 12.2812L67.7031 12.4219H64.1094L64.125 12.2344C64.2083 11.2552 64.5365 10.3802 65.1094 9.60938C65.6823 8.82812 66.474 8.21354 67.4844 7.76562C68.5052 7.31771 69.7135 7.09375 71.1094 7.09375C72.4948 7.09375 73.6927 7.32292 74.7031 7.78125C75.724 8.23958 76.5104 8.88021 77.0625 9.70312C77.625 10.526 77.9062 11.4948 77.9062 12.6094V24H74.0312V21.4531H73.9375C73.625 22.026 73.2188 22.526 72.7188 22.9531C72.2188 23.3802 71.6458 23.7083 71 23.9375C70.3646 24.1667 69.6823 24.2812 68.9531 24.2812ZM81.1719 24V1.45312H85.0625V10.2188H85.1406C85.5781 9.21875 86.2292 8.44792 87.0938 7.90625C87.9688 7.36458 89.0208 7.09375 90.25 7.09375C91.4479 7.09375 92.4844 7.36979 93.3594 7.92188C94.2344 8.46354 94.9115 9.22917 95.3906 10.2188C95.8698 11.1979 96.1094 12.3542 96.1094 13.6875V24H92.2188V14.4531C92.2188 13.1823 91.9115 12.1875 91.2969 11.4688C90.6823 10.7396 89.8177 10.375 88.7031 10.375C87.974 10.375 87.3333 10.5521 86.7812 10.9062C86.2396 11.25 85.8177 11.7292 85.5156 12.3438C85.2135 12.9479 85.0625 13.651 85.0625 14.4531V24H81.1719Z" fill="#020817"/>
<circle cx="107" cy="20" r="4" fill="#2563EB"/>
</svg>
