<svg width="16" height="35" viewBox="0 0 16 35" fill="none" xmlns="http://www.w3.org/2000/svg">
<path fill-rule="evenodd" clip-rule="evenodd" d="M14.4692 11.1938C14.9206 12.4997 15.2457 13.8328 15.3526 15.2146C15.4853 16.9288 15.4246 18.6309 15.0632 20.317C15.0533 20.3634 15.0325 20.407 15.0171 20.452C14.9037 20.4523 14.7881 20.4383 14.6773 20.4554C13.741 20.6025 12.8056 20.7549 11.8701 20.9065C10.9032 21.0632 9.93487 21.2137 8.96962 21.381C8.62762 21.4401 8.20434 21.3695 8.06625 21.8425C8.06231 21.8555 8.02293 21.8577 8.00015 21.865L8.04684 19.0382L7.99931 12.2173L8.44987 12.14C9.18674 12.0193 9.92362 11.897 10.6611 11.7797C11.5411 11.6399 12.422 11.5041 13.3026 11.3677C13.691 11.3072 14.0799 11.2518 14.4692 11.1938V11.1938Z" fill="#439934"/>
<path fill-rule="evenodd" clip-rule="evenodd" d="M7.06977 30.1055C6.59446 29.6969 6.10255 29.3062 5.64693 28.8764C3.19527 26.564 1.40202 23.8424 0.518899 20.561C0.275618 19.6579 0.113337 18.7402 0.0613056 17.807C0.0247431 17.1539 -0.0281328 16.495 0.0179922 15.8453C0.140898 14.1173 0.390649 12.4059 0.897462 10.7414L0.925305 10.7026C0.974524 10.7682 1.0454 10.8261 1.07043 10.9001C1.56515 12.3569 2.05621 13.8149 2.54474 15.2738C4.07981 19.8582 5.6129 24.4437 7.15049 29.0269C7.18059 29.1164 7.25849 29.1898 7.31446 29.2705L7.06977 30.1055V30.1055Z" fill="#45A538"/>
<path fill-rule="evenodd" clip-rule="evenodd" d="M14.4692 11.1938C14.0799 11.2518 13.6907 11.3072 13.3023 11.3671C12.4217 11.5035 11.5408 11.6393 10.6608 11.7791C9.92334 11.8964 9.18647 12.0187 8.44959 12.1394L7.99903 12.2167L7.99566 11.9228C7.98075 11.6812 7.95515 11.4399 7.95234 11.1983C7.93293 9.65764 7.92084 8.11696 7.90172 6.57627C7.8899 5.61186 7.87219 4.64774 7.8525 3.68361C7.8404 3.08455 7.82747 2.48521 7.80047 1.88699C7.78584 1.56552 7.73409 1.24574 7.713 0.92427C7.70119 0.739488 7.7175 0.553301 7.72115 0.367676C7.95093 0.812895 8.17565 1.26149 8.4119 1.70333C8.78512 2.40196 9.37969 2.91664 9.9149 3.4783C12.0307 5.69793 13.5329 8.27868 14.4692 11.1938V11.1938Z" fill="#46A037"/>
<path fill-rule="evenodd" clip-rule="evenodd" d="M7.99987 21.8646C8.02265 21.8573 8.06231 21.855 8.06596 21.8421C8.20406 21.369 8.62734 21.4396 8.96934 21.3805C9.93459 21.2135 10.9029 21.0627 11.8699 20.9061C12.8053 20.7545 13.7407 20.602 14.677 20.4549C14.7878 20.4375 14.9034 20.4519 15.0168 20.4516C14.8418 21.0759 14.704 21.7138 14.4821 22.321C14.2301 23.0098 13.9252 23.682 13.6015 24.341C13.1169 25.3239 12.5171 26.2456 11.8147 27.0868C11.275 27.7359 10.6734 28.3359 10.0704 28.9284C9.73715 29.2561 9.34424 29.523 8.97862 29.8175L8.88384 29.7528L8.5424 29.4609L8.18915 28.6866C7.94786 27.7833 7.81623 26.8543 7.79709 25.9196L7.80356 25.7619L7.85165 25.0795C7.86768 24.8467 7.88906 24.6141 7.8989 24.3806C7.93518 23.5419 7.96668 22.7033 7.99987 21.8646V21.8646Z" fill="#409433"/>
<path fill-rule="evenodd" clip-rule="evenodd" d="M7.99987 21.8646C7.96668 22.7033 7.93518 23.542 7.89946 24.3809C7.88962 24.6144 7.86825 24.847 7.85222 25.0799L7.63706 25.1611C7.15921 23.7543 6.68109 22.3624 6.21337 20.9669C5.43993 18.6581 4.67578 16.3456 3.90346 14.0363C3.27968 12.1723 2.65155 10.3098 2.01909 8.44869C1.98956 8.36151 1.90462 8.29345 1.84556 8.21638L3.22256 5.68457C3.26981 5.7667 3.33225 5.84348 3.36206 5.93179C3.9998 7.81676 4.6343 9.70282 5.26556 11.59C6.08568 14.0453 6.90075 16.5026 7.72031 18.9582C7.75293 19.0563 7.80693 19.1469 7.8584 19.2569L8.04684 19.0375L7.99987 21.8646V21.8646Z" fill="#4FAA41"/>
<path fill-rule="evenodd" clip-rule="evenodd" d="M1.84584 8.2168C1.9049 8.29386 1.98956 8.36192 2.01937 8.44911C2.65184 10.3102 3.27996 12.1727 3.90375 14.0367C4.67606 16.346 5.44022 18.6585 6.21365 20.9673C6.68109 22.3625 7.15922 23.7547 7.63734 25.1615L7.8525 25.0803L7.8044 25.7626L7.76081 25.9198C7.686 26.6668 7.623 27.4155 7.53187 28.1608C7.48603 28.5343 7.38872 28.901 7.31475 29.2709C7.25906 29.1902 7.18087 29.1168 7.15078 29.0273C5.61318 24.4438 4.08009 19.8586 2.54503 15.2742C2.05667 13.8153 1.56523 12.3574 1.07072 10.9005C1.04568 10.8265 0.975091 10.7686 0.925591 10.703L1.84584 8.2168Z" fill="#4AA73C"/>
<path fill-rule="evenodd" clip-rule="evenodd" d="M8.04656 19.0379L7.85812 19.2573C7.80665 19.1473 7.75265 19.0564 7.72002 18.9586C6.90074 16.503 6.0854 14.0457 5.26527 11.5904C4.63402 9.70323 3.99952 7.81717 3.36177 5.9322C3.33224 5.84389 3.26981 5.76682 3.22227 5.68498L4.92524 3.44482C4.97896 3.51654 5.05546 3.58039 5.08331 3.66111C5.55609 5.04514 6.02465 6.43086 6.4904 7.81742C6.92549 9.11229 7.35412 10.4091 7.79427 11.7023C7.82381 11.7889 7.92646 11.8503 7.99509 11.9234L7.99846 12.2173C8.01477 14.4904 8.03081 16.7643 8.04656 19.0379V19.0379Z" fill="#57AE47"/>
<path fill-rule="evenodd" clip-rule="evenodd" d="M7.99566 11.9227C7.92703 11.8496 7.82437 11.7883 7.79484 11.7017C7.35469 10.4085 6.92606 9.11166 6.49097 7.81678C6.02522 6.43022 5.55666 5.04478 5.08387 3.66047C5.05603 3.57975 4.97953 3.51591 4.92581 3.44419C5.47959 2.90194 6.01622 2.34028 6.59222 1.82306C7.10437 1.3635 7.51612 0.87075 7.53497 0.144562C7.53581 0.114469 7.55156 0.084375 7.57575 0L7.72172 0.367312C7.71806 0.553219 7.70147 0.739125 7.71356 0.923906C7.73466 1.24537 7.78641 1.56516 7.80103 1.88663C7.82803 2.48484 7.84097 3.08419 7.85306 3.68325C7.87247 4.64737 7.89019 5.6115 7.90228 6.57591C7.92113 8.11659 7.9335 9.65728 7.95291 11.198C7.95516 11.4401 7.98047 11.6812 7.99566 11.9227V11.9227Z" fill="#60B24F"/>
<path fill-rule="evenodd" clip-rule="evenodd" d="M7.31418 29.2707C7.38815 28.9008 7.48546 28.5338 7.53131 28.1606C7.62271 27.4155 7.68543 26.6666 7.76025 25.9196L7.77881 25.9167L7.79737 25.9198C7.81651 26.8545 7.94814 27.7835 8.18943 28.6868C8.13993 28.752 8.0699 28.8102 8.04375 28.8839C7.83928 29.4605 7.64662 30.0416 7.44103 30.6181C7.4129 30.6969 7.33471 30.7582 7.27959 30.8274L7.0695 30.1057L7.31418 29.2707V29.2707Z" fill="#A9AA88"/>
<path fill-rule="evenodd" clip-rule="evenodd" d="M7.27987 30.8276C7.33499 30.7584 7.41346 30.6971 7.44131 30.6184C7.6469 30.0418 7.83984 29.461 8.04403 28.8842C8.07018 28.8105 8.13993 28.7523 8.18971 28.687L8.54268 29.4616C8.47293 29.5606 8.37674 29.6497 8.33793 29.76L7.66181 31.7453C7.63396 31.8249 7.5389 31.8812 7.47534 31.9484L7.27987 30.8276V30.8276Z" fill="#B6B598"/>
<path fill-rule="evenodd" clip-rule="evenodd" d="M7.47534 31.948C7.53919 31.8811 7.63397 31.8245 7.66181 31.7449L8.33793 29.7596C8.37647 29.6496 8.47294 29.5602 8.54269 29.4612L8.8844 29.7528C8.71931 29.916 8.62762 30.1044 8.68275 30.3426L8.57897 30.6824C8.53172 30.7406 8.46337 30.7912 8.44003 30.8579C8.20406 31.5337 7.97878 32.2132 7.74112 32.8891C7.71103 32.9748 7.6275 33.0421 7.56843 33.1174C7.53778 32.7273 7.50656 32.3381 7.47534 31.948V31.948Z" fill="#C2C1A7"/>
<path fill-rule="evenodd" clip-rule="evenodd" d="M7.56871 33.1174C7.62749 33.0418 7.71102 32.9746 7.7414 32.8891C7.97906 32.2135 8.20434 31.534 8.44031 30.8579C8.46365 30.7915 8.53171 30.7406 8.57924 30.6824L8.43609 32.2419C8.39784 32.2861 8.34243 32.3246 8.32415 32.3761C8.16243 32.83 8.01 33.2873 7.84771 33.7412C7.81425 33.8349 7.75012 33.9176 7.70006 34.0051C7.65562 33.9468 7.57603 33.8906 7.57237 33.8298C7.55803 33.5933 7.56787 33.3551 7.56871 33.1174V33.1174Z" fill="#CECDB7"/>
<path fill-rule="evenodd" clip-rule="evenodd" d="M7.69978 34.0051C7.74984 33.9173 7.81396 33.8347 7.84743 33.7413C8.00999 33.2876 8.16215 32.8303 8.32387 32.3761C8.34215 32.3246 8.39784 32.2864 8.43581 32.2419L8.43918 33.2657L8.09662 34.1443L7.69978 34.0051V34.0051Z" fill="#DBDAC7"/>
<path fill-rule="evenodd" clip-rule="evenodd" d="M8.09662 34.1445L8.43918 33.2659L8.50978 34.3054L8.09662 34.1445V34.1445Z" fill="#EBE9DC"/>
<path fill-rule="evenodd" clip-rule="evenodd" d="M8.68275 30.343C8.62762 30.1047 8.71903 29.916 8.8844 29.7532L8.97918 29.8179L8.68275 30.343V30.343Z" fill="#CECDB7"/>
<path fill-rule="evenodd" clip-rule="evenodd" d="M7.79737 25.92L7.77881 25.9169L7.76025 25.9197L7.80384 25.7625L7.79737 25.92V25.92Z" fill="#4FAA41"/>
</svg>
