<svg width="36" height="35" viewBox="0 0 36 35" fill="none" xmlns="http://www.w3.org/2000/svg">
<path d="M32.582 26.8647C30.6518 26.8121 29.1778 26.9918 27.9175 27.5231C27.5595 27.6742 26.988 27.6784 26.9295 28.127C27.1264 28.3331 27.157 28.6414 27.3134 28.8951C27.6143 29.3816 28.1223 30.0347 28.5756 30.3767C29.0712 30.7508 29.5817 31.1504 30.1127 31.4741C31.0571 32.0498 32.1115 32.3789 33.0208 32.9558C33.5569 33.2961 34.0893 33.7244 34.6121 34.108C34.8709 34.2979 35.0444 34.5929 35.3805 34.7119V34.6573C35.2039 34.4323 35.1583 34.1235 34.9963 33.8887L34.2828 33.1751C33.5853 32.2493 32.6996 31.4359 31.7583 30.7606C31.0076 30.2217 29.3277 29.4938 29.0147 28.6206L28.9598 28.5657C29.492 28.5055 30.1149 28.3132 30.6063 28.1813C31.4315 27.9602 32.1689 28.0173 33.0208 27.7973L34.1731 27.468V27.2486C33.7425 26.8068 33.4354 26.2218 32.966 25.8218C31.7369 24.7756 30.3959 23.7302 29.015 22.8583C28.2488 22.3751 27.3024 22.061 26.4905 21.6512C26.2174 21.5131 25.7375 21.4414 25.5573 21.2119C25.1306 20.6685 24.8986 19.9794 24.5698 19.3463C23.881 18.0197 23.2046 16.571 22.5943 15.1751C22.178 14.2234 21.9061 13.2851 21.3869 12.4313C18.895 8.33428 16.213 5.86181 12.0581 3.43125C11.1739 2.91431 10.1093 2.71041 8.98433 2.44322C8.38105 2.40694 7.77721 2.37009 7.17364 2.33325C6.80492 2.17969 6.42186 1.72884 6.0762 1.51003C4.69977 0.640407 1.16896 -1.251 0.149705 1.23581C-0.494076 2.80547 1.11186 4.33659 1.68589 5.13225C2.08921 5.68969 2.6053 6.31547 2.8933 6.94294C3.08286 7.35553 3.11549 7.76925 3.27777 8.20547C3.6763 9.28041 4.02364 10.4498 4.53974 11.4429C4.80046 11.9458 5.08789 12.4751 5.4178 12.9246C5.61974 13.2005 5.96652 13.322 6.02108 13.7478C5.68246 14.222 5.66305 14.9583 5.47264 15.559C4.61483 18.2633 4.93855 21.6248 6.18617 23.6261C6.56867 24.2409 7.47064 25.5586 8.71039 25.0529C9.79489 24.6113 9.55274 23.2422 9.86295 22.0345C9.93299 21.7609 9.88996 21.5595 10.0275 21.3761V21.431L11.0155 23.4065C11.7468 24.5841 13.0439 25.8145 14.1436 26.6448C14.7137 27.0754 15.1625 27.8196 15.8997 28.0716V28.0164H15.8449C15.702 27.794 15.4784 27.7017 15.2961 27.5228C14.8667 27.1018 14.3891 26.5784 14.0342 26.0961C13.034 24.7385 12.1504 23.2526 11.3451 21.706C10.9604 20.9672 10.626 20.1527 10.302 19.4009C10.1771 19.1112 10.1788 18.6728 9.91836 18.5228C9.56314 19.0735 9.0403 19.519 8.7658 20.1693C8.32677 21.2088 8.27024 22.4767 8.10739 23.7912C8.0112 23.8255 8.05395 23.8019 7.99742 23.8458C7.23299 23.6616 6.96467 22.8749 6.68033 22.1996C5.96202 20.4924 5.82842 17.7441 6.46067 15.779C6.62436 15.2702 7.36349 13.6693 7.06424 13.1993C6.92136 12.7308 6.44999 12.4597 6.18646 12.1016C5.85992 11.6589 5.53424 11.0762 5.30783 10.5649C4.72002 9.23428 4.44552 7.74 3.82649 6.3945C3.53033 5.75128 3.02999 5.10019 2.61908 4.52869C2.1643 3.89503 1.65467 3.42844 1.30199 2.66259C1.17655 2.39034 1.00639 1.95441 1.19202 1.67456C1.25108 1.48584 1.33489 1.40709 1.52136 1.3455C1.83974 1.09997 2.72624 1.42706 3.05755 1.56459C3.93758 1.93022 4.67221 2.27841 5.4178 2.77228C5.77527 3.00966 6.13752 3.46838 6.57008 3.5955H7.06395C7.83655 3.77297 8.70196 3.65035 9.42392 3.86972C10.6997 4.25728 11.843 4.86056 12.881 5.51616C16.044 7.51359 18.6304 10.3565 20.3994 13.7481C20.684 14.2943 20.8072 14.8151 21.0578 15.3945C21.5635 16.5625 22.2005 17.7643 22.7037 18.9068C23.206 20.0464 23.6954 21.1964 24.4053 22.1448C24.7785 22.6432 26.2196 22.9106 26.8749 23.1877C27.3339 23.3814 28.0863 23.5839 28.5214 23.8458C29.3519 24.347 30.1568 24.9435 30.9362 25.4925C31.3251 25.7667 32.5224 26.3689 32.582 26.8647V26.8647ZM8.05171 5.95631C7.64924 5.94872 7.36461 6.00019 7.06367 6.06572V6.12056H7.11852C7.31061 6.51488 7.64952 6.76913 7.88661 7.10859C8.06942 7.49306 8.25252 7.87697 8.43561 8.26088L8.49017 8.20659C8.83021 7.96669 8.98574 7.58391 8.98377 6.99891C8.84764 6.85575 8.82767 6.67631 8.70955 6.50531C8.55317 6.27722 8.24971 6.14756 8.05171 5.95631Z" fill="#00618A"/>
</svg>
