<svg width="32" height="36" viewBox="0 0 32 36" fill="none" xmlns="http://www.w3.org/2000/svg">
<path d="M15.1728 35.2163C15.4236 35.3613 15.7082 35.4376 15.9978 35.4376C16.2875 35.4376 16.5721 35.3613 16.8229 35.2163L30.4933 27.3278C30.7445 27.183 30.953 26.9746 31.098 26.7235C31.2429 26.4724 31.3192 26.1876 31.3191 25.8977V10.1086C31.319 9.81886 31.2427 9.53424 31.0979 9.28328C30.9531 9.03232 30.7449 8.82383 30.4942 8.67872L16.824 0.783747C16.5728 0.638804 16.288 0.5625 15.998 0.5625C15.708 0.5625 15.4231 0.638804 15.1719 0.783747L1.50516 8.67843C1.2542 8.82346 1.04581 9.03195 0.900921 9.28298C0.756029 9.53401 0.679731 9.81874 0.679688 10.1086V25.8985C0.679729 26.1883 0.756067 26.4729 0.901023 26.7237C1.04598 26.9746 1.25444 27.1828 1.50544 27.3276L15.1728 35.2163Z" fill="#76D04B"/>
<path d="M24.849 14.2374L24.2393 13.8867C25.177 12.5037 25.7369 10.425 25.0347 7.31665C25.0347 7.31665 23.4526 11.7506 20.2728 11.6037L16.5491 9.46062C16.4102 9.37927 16.2532 9.33375 16.0923 9.32815H16.0065C15.8452 9.33419 15.6877 9.37978 15.5481 9.4609L11.8243 11.6037C8.64453 11.7508 7.06222 7.31693 7.06222 7.31693C6.35938 10.4247 6.92047 12.5037 7.85788 13.8867L7.24813 14.2374C7.09527 14.3257 6.96838 14.4527 6.88025 14.6057C6.79211 14.7587 6.74584 14.9321 6.74609 15.1087L6.76438 27.9702C6.76438 28.15 6.85719 28.3162 7.01469 28.4034C7.16881 28.4962 7.35922 28.4962 7.5125 28.4034L12.4456 25.5788C12.7578 25.3932 12.9477 25.0663 12.9477 24.7089V18.7002C12.9472 18.5243 12.9933 18.3513 13.0812 18.1989C13.1691 18.0465 13.2958 17.92 13.4483 17.8323L15.5484 16.6229C15.7008 16.5338 15.8743 16.487 16.051 16.4874C16.222 16.4874 16.3975 16.5315 16.5496 16.6224L18.6494 17.832C18.8021 17.9196 18.9289 18.0461 19.017 18.1985C19.1051 18.3509 19.1513 18.5239 19.1509 18.7V24.7089C19.1509 25.0663 19.343 25.396 19.6532 25.5788L24.5847 28.4034C24.7393 28.4962 24.9328 28.4962 25.0861 28.4034C25.2388 28.3162 25.335 28.1497 25.335 27.9702L25.3511 15.1087C25.3518 14.9321 25.3058 14.7585 25.2177 14.6055C25.1296 14.4524 25.0026 14.3254 24.8496 14.2374H24.849Z" fill="#4F4D3F"/>
</svg>
