<svg width="30" height="36" viewBox="0 0 30 36" fill="none" xmlns="http://www.w3.org/2000/svg">
<path d="M28.8143 7.97681L16.4507 0.353691C15.6709 -0.117897 14.6557 -0.117897 13.8698 0.353691L1.37411 7.97681C0.569439 8.46835 0 9.39217 0 10.3803V25.6063C0 26.5944 0.584299 27.5186 1.38897 28.0128L4.69037 30.0039C6.26832 30.8292 6.82598 30.8292 7.54402 30.8292C9.88037 30.8292 11.215 29.329 11.215 26.7123V11.6804C11.215 11.4682 11.1109 11.1523 10.9147 11.1523H9.33813C9.1385 11.1523 8.69159 11.4682 8.69159 11.6801V26.712C8.69159 27.8719 7.70355 29.0262 5.85701 28.0458L2.4457 25.9579C2.32682 25.8894 2.24299 25.7516 2.24299 25.6063V10.3803C2.24299 10.2368 2.3986 10.0927 2.51832 10.0192L14.9736 2.40915C15.09 2.33919 15.261 2.33919 15.3771 2.40915L27.6805 10.0174C27.7982 10.0927 27.7567 10.2323 27.7567 10.3803V25.6063C27.7567 25.7516 27.808 25.893 27.6917 25.963L15.3311 33.5775C15.2251 33.645 15.0936 33.645 14.9776 33.5775L11.8074 31.5681C11.7118 31.5092 11.5982 31.4881 11.5065 31.5425C10.6245 32.0734 10.4619 32.1439 9.63449 32.4485C9.43093 32.5238 9.13065 32.6545 9.74944 33.0228L13.8984 35.629C14.2945 35.872 14.7439 35.9999 15.2013 36C15.6617 36 16.1125 35.8732 16.5098 35.629L28.814 28.0128C29.6187 27.515 30 26.5944 30 25.6063V10.3803C30 9.39217 29.6187 8.47073 28.8143 7.97681V7.97681ZM19.0402 23.1936C15.7525 23.1936 15.0283 22.2305 14.7869 20.4944C14.7589 20.3075 14.6094 20.0839 14.4303 20.0839H12.8235C12.6247 20.0839 12.4649 20.3399 12.4649 20.5501C12.4649 22.7729 13.6029 25.4661 19.0405 25.4661C22.9766 25.4661 25.2334 23.842 25.2334 20.9678C25.2334 18.118 23.4202 17.3702 19.6029 16.8337C15.7444 16.2921 15.3524 16.0185 15.3524 15.0587C15.3524 14.2673 15.6844 13.2119 18.5414 13.2119C21.0942 13.2119 22.0351 13.7937 22.4223 15.6208C22.4554 15.7926 22.6032 15.9158 22.77 15.9158H24.3833C24.4825 15.9158 24.5773 15.8732 24.6468 15.7979C24.7141 15.7169 24.7497 15.6154 24.7407 15.5064C24.4909 12.3601 22.5224 10.8939 18.5411 10.8939C14.9997 10.8939 12.8871 12.4819 12.8871 15.1438C12.8871 18.0311 14.9891 18.829 18.3886 19.186C22.4554 19.6093 22.7717 20.2405 22.7717 21.0899C22.7717 22.5651 21.6564 23.1936 19.0402 23.1936Z" fill="#83CD29"/>
</svg>
