<svg width="35" height="36" viewBox="0 0 35 36" fill="none" xmlns="http://www.w3.org/2000/svg">
<path d="M12.3282 0.74302C6.70919 1.15879 1.9324 1.54116 1.70781 1.58594C1.07811 1.69824 0.505261 2.12538 0.235896 2.68757L-6.48499e-05 3.18223L0.0226784 14.9717L0.0560825 26.7613L0.41571 27.4919C0.618266 27.8963 1.98926 29.7847 3.48391 31.7285C6.43982 35.5608 6.65304 35.7747 7.7767 35.887C8.10292 35.9204 10.5528 35.8081 13.2052 35.651C15.869 35.4826 20.1391 35.2239 22.7019 35.0782C33.6478 34.4137 33.0856 34.4698 33.7146 33.9304C34.5014 33.2786 34.4453 34.3461 34.4787 20.0172C34.5014 7.86805 34.49 7.07061 34.3102 6.69961C34.097 6.28384 33.7146 5.99173 28.7246 2.48501C25.3871 0.147432 25.1511 0.0237655 23.6557 0.00102227C23.0381 -0.0210102 17.9358 0.315874 12.3282 0.74302ZM24.9599 2.28245C25.4318 2.49567 28.8824 4.90077 29.3877 5.36203C29.5228 5.49707 29.5675 5.60936 29.5 5.67688C29.343 5.81192 7.9892 7.08198 7.37158 6.99172C7.09085 6.94695 6.67507 6.7785 6.43911 6.62072C5.46115 5.95762 3.03402 3.96829 3.03402 3.82259C3.03402 3.44022 2.95513 3.44022 12.4746 2.75508C14.2955 2.63142 17.2848 2.40683 19.1057 2.26042C23.0495 1.94557 24.23 1.95694 24.9599 2.28245ZM31.7481 8.43023C31.9051 8.5873 32.0402 8.89078 32.0849 9.18289C32.1183 9.45296 32.1411 14.4877 32.1183 20.3541C32.0849 30.4236 32.0736 31.0533 31.8824 31.3455C31.7701 31.5253 31.5455 31.7165 31.3763 31.7726C30.9051 31.9638 8.52935 33.2339 8.0688 33.0988C7.85559 33.0427 7.56277 32.8629 7.4057 32.7058L7.13562 32.4137L7.10222 21.5573C7.07947 13.9376 7.10222 10.566 7.19248 10.2625C7.26 10.0379 7.42844 9.76782 7.57485 9.67826C7.77741 9.54323 9.10362 9.43093 13.6665 9.16157C16.8697 8.98175 21.8256 8.67827 24.6692 8.50983C31.4332 8.09335 31.4112 8.09335 31.7481 8.43023Z" fill="#020817"/>
<path d="M25.7353 12.1502C24.5214 12.2291 23.4425 12.3414 23.3188 12.4089C22.9478 12.6001 22.7233 12.9149 22.6785 13.2746C22.6451 13.6456 22.7574 13.6903 23.9706 13.8367L24.4986 13.9043V18.7031C24.4986 21.5574 24.4539 23.4458 24.3977 23.3896C24.3416 23.3221 22.746 20.895 20.8462 17.9952C18.9472 15.0848 17.3736 12.6903 17.3509 12.6683C17.3281 12.6456 16.0922 12.7131 14.6089 12.8147C12.788 12.9384 11.788 13.0507 11.5855 13.163C11.2593 13.3314 10.8996 13.927 10.8996 14.3207C10.8996 14.5567 11.3268 14.6804 12.2258 14.6804H12.6978V28.4812L11.9337 28.7172C11.3381 28.897 11.1356 29.0093 11.0347 29.2339C10.8548 29.6163 10.8662 29.9645 11.046 29.9645C11.1136 29.9645 12.3836 29.8856 13.8442 29.7961C16.7325 29.6276 17.0581 29.5488 17.3615 28.9532C17.4518 28.7734 17.53 28.5822 17.53 28.526C17.53 28.4812 17.137 28.3462 16.6643 28.2339C16.181 28.1216 15.6977 28.0093 15.5968 27.9866C15.4056 27.9304 15.3943 27.5822 15.3943 22.7492V17.5681L18.8107 22.9291C22.3956 28.5481 22.8455 29.1891 23.3963 29.4699C24.0822 29.8295 25.8242 29.5822 26.7005 29.0093L26.9706 28.8409L26.9933 21.1764L27.0267 13.5006L27.6223 13.3883C28.3302 13.2532 28.6564 12.9277 28.6564 12.3655C28.6564 12.0059 28.6337 11.9832 28.2968 11.9945C28.0956 12.0038 26.9379 12.0713 25.7353 12.1502Z" fill="#020817"/>
</svg>
