<svg width="23" height="24" viewBox="0 0 23 24" fill="none" xmlns="http://www.w3.org/2000/svg">
<path d="M8.21883 0.496825C4.47283 0.774835 1.28831 1.03051 1.13858 1.06045C0.718781 1.13554 0.336884 1.42115 0.157307 1.79706L0 2.12782L0.0151621 10.011L0.0374315 17.8941L0.277183 18.3826C0.412221 18.653 1.32621 19.9157 2.32265 21.2155C4.29326 23.7779 4.4354 23.921 5.18451 23.9961C5.40199 24.0184 7.03524 23.9433 8.80352 23.8383C10.5794 23.7256 13.4261 23.5527 15.1347 23.4552C22.4319 23.0109 22.0571 23.0484 22.4765 22.6877C23.001 22.252 22.9635 22.9658 22.9858 13.3846C23.001 5.26102 22.9934 4.72781 22.8735 4.47974C22.7314 4.20173 22.4765 4.00641 19.1498 1.66162C16.9247 0.0985811 16.7674 0.0158909 15.7705 0.000683549C15.3588 -0.0140486 11.9572 0.211211 8.21883 0.496825ZM16.64 1.52618C16.9546 1.66874 19.255 3.27693 19.5919 3.58535C19.6819 3.67565 19.7117 3.75073 19.6667 3.79588C19.562 3.88617 5.32618 4.73541 4.91443 4.67506C4.72727 4.64512 4.45009 4.53249 4.29278 4.42699C3.64081 3.9836 2.02273 2.65342 2.02273 2.556C2.02273 2.30033 1.97013 2.30033 8.31644 1.8422C9.53036 1.75951 11.5232 1.60934 12.7372 1.51144C15.3664 1.30092 16.1534 1.30852 16.64 1.52618ZM21.1654 5.63692C21.2701 5.74195 21.3601 5.94487 21.39 6.14019C21.4123 6.32078 21.4274 9.68732 21.4123 13.6099C21.39 20.343 21.3824 20.764 21.255 20.9593C21.1801 21.0796 21.0304 21.2074 20.9176 21.2449C20.6035 21.3728 5.68628 22.222 5.37925 22.1317C5.2371 22.0942 5.04189 21.9739 4.93717 21.8689L4.75712 21.6736L4.73485 14.4144C4.71969 9.31949 4.73485 7.06499 4.79503 6.86207C4.84004 6.7119 4.95234 6.53131 5.04994 6.47143C5.18498 6.38114 6.06912 6.30605 9.11103 6.12594C11.2465 6.0057 14.5504 5.80278 16.4462 5.69015C20.9555 5.41167 20.9408 5.41167 21.1654 5.63692Z" fill="#020817"/>
<path d="M17.1569 8.12429C16.3477 8.17704 15.6284 8.25212 15.546 8.29727C15.2986 8.42511 15.1489 8.63564 15.1191 8.8761C15.0968 9.12417 15.1716 9.15411 15.9804 9.25201L16.3325 9.29716V12.5059C16.3325 14.4144 16.3026 15.6771 16.2652 15.6396C16.2278 15.5944 15.1641 13.9715 13.8975 12.0326C12.6315 10.0865 11.5825 8.48546 11.5673 8.47073C11.5522 8.45552 10.7282 8.50067 9.73933 8.56863C8.52541 8.65132 7.85875 8.7264 7.72371 8.80149C7.50623 8.91412 7.26648 9.31236 7.26648 9.57564C7.26648 9.73342 7.55124 9.81611 8.15062 9.81611H8.46524V19.0441L7.95588 19.2019C7.55882 19.3222 7.42379 19.3972 7.3565 19.5474C7.23663 19.8031 7.24421 20.036 7.36409 20.036C7.4091 20.036 8.25581 19.9832 9.2295 19.9233C11.1551 19.8107 11.3721 19.7579 11.5744 19.3597C11.6346 19.2395 11.6867 19.1116 11.6867 19.0741C11.6867 19.0441 11.4247 18.9539 11.1096 18.8788C10.7874 18.8037 10.4652 18.7286 10.3979 18.7134C10.2705 18.6758 10.2629 18.443 10.2629 15.2114V11.747L12.5405 15.3316C14.9305 19.0888 15.2304 19.5175 15.5976 19.7052C16.0548 19.9457 17.2162 19.7803 17.8004 19.3972L17.9804 19.2846L17.9956 14.1597L18.0179 9.02723L18.4149 8.95214C18.8868 8.86185 19.1043 8.64419 19.1043 8.26828C19.1043 8.02781 19.0892 8.01261 18.8646 8.02021C18.7305 8.02639 17.9586 8.07154 17.1569 8.12429Z" fill="#020817"/>
</svg>
