<svg width="32" height="32" viewBox="0 0 32 32" fill="none" xmlns="http://www.w3.org/2000/svg">
<path d="M0 11.4C0 7.40963 0 5.41444 0.776579 3.89032C1.45968 2.54966 2.54966 1.45968 3.89032 0.776579C5.41444 0 7.40963 0 11.4 0H20.1C24.0904 0 26.0856 0 27.6097 0.776579C28.9503 1.45968 30.0403 2.54966 30.7234 3.89032C31.5 5.41444 31.5 7.40963 31.5 11.4V20.1C31.5 24.0904 31.5 26.0856 30.7234 27.6097C30.0403 28.9503 28.9503 30.0403 27.6097 30.7234C26.0856 31.5 24.0904 31.5 20.1 31.5H11.4C7.40963 31.5 5.41444 31.5 3.89032 30.7234C2.54966 30.0403 1.45968 28.9503 0.776579 27.6097C0 26.0856 0 24.0904 0 20.1V11.4Z" fill="#001E36"/>
<path d="M6.75 23.0808V9.22885C6.75 9.13462 6.78938 9.08077 6.88125 9.08077C8.23758 9.08077 9.5933 9 10.95 9C13.1514 9 15.5351 9.75273 16.3706 12.0558C16.5675 12.6212 16.6725 13.2 16.6725 13.8058C16.6725 14.9635 16.41 15.9192 15.885 16.6731C14.4185 18.7789 11.8766 18.7462 9.59813 18.7462V23.0673C9.61594 23.1952 9.50692 23.2558 9.40125 23.2558H6.9075C6.8025 23.2558 6.75 23.2019 6.75 23.0808ZM9.61125 11.6788V16.2019C10.5147 16.2681 11.4601 16.2753 12.3281 15.9865C13.2864 15.7101 13.8113 14.8805 13.8113 13.8865C13.8379 13.0395 13.3763 12.2268 12.5906 11.9212C11.733 11.5646 10.537 11.5432 9.61125 11.6788Z" fill="#31A8FF"/>
<path d="M24.8587 15.3083C24.4616 15.099 24.0387 14.9459 23.6014 14.8532C23.0396 14.7209 20.8235 14.2579 20.8227 15.4167C20.8423 16.0636 21.8692 16.3805 22.323 16.5653C23.9158 17.1122 25.7183 18.0897 25.6828 20.0547C25.7315 22.5009 23.3614 23.4788 21.3298 23.479C20.2721 23.49 19.1703 23.3262 18.2024 22.8722C18.11 22.8233 18.0505 22.7187 18.0544 22.6121V20.2714C18.044 20.1776 18.1447 20.0955 18.2235 20.1631C19.1719 20.7366 20.2961 21.0151 21.3932 21.03C21.8775 21.03 22.8374 20.983 22.8301 20.2714C22.8301 19.5885 21.6819 19.2745 21.2241 19.1011C20.5606 18.8642 19.9315 18.5361 19.354 18.1258C18.547 17.5501 18.0407 16.6271 18.0545 15.6117C18.0497 13.3084 20.2314 12.2745 22.1962 12.2741C23.1147 12.2665 24.1011 12.3345 24.9561 12.7075C25.079 12.7437 25.1045 12.8732 25.104 12.9893V15.1782C25.1118 15.3141 24.9609 15.3604 24.8587 15.3083Z" fill="#31A8FF"/>
</svg>
