<svg width="34" height="36" viewBox="0 0 34 36" fill="none" xmlns="http://www.w3.org/2000/svg">
<path d="M25.3838 25.9064C25.6046 24.069 25.5385 23.7993 26.907 24.0971L27.2544 24.1275C28.3068 24.1753 29.6835 23.9582 30.4924 23.5824C32.2336 22.7744 33.2658 21.4258 31.5493 21.7799C27.6332 22.5879 27.3641 21.2619 27.3641 21.2619C31.4993 15.1264 33.2278 7.33773 31.7355 5.43114C27.6658 0.231104 20.6214 2.69007 20.5035 2.75364L20.4658 2.76067C19.6921 2.60007 18.8262 2.50417 17.8533 2.48842C16.0812 2.45917 14.7365 2.95304 13.7164 3.72648C13.7164 3.72648 1.14931 -1.45105 1.73403 10.2377C1.85834 12.7242 5.29803 29.0528 9.40091 24.1208C10.9005 22.3174 12.3495 20.7924 12.3495 20.7924C13.069 21.2703 13.9307 21.5144 14.8341 21.4267L14.9041 21.367C14.8822 21.5909 14.8917 21.81 14.932 22.0693C13.8753 23.2503 14.1858 23.4576 12.0728 23.8924C9.93472 24.3328 11.1908 25.1172 12.0106 25.3223C13.0048 25.5709 15.3046 25.923 16.8588 23.7478L16.7969 23.9959C17.2115 24.3278 17.1837 26.38 17.2422 27.8462C17.3009 29.3126 17.3991 30.6809 17.6981 31.4878C17.997 32.2944 18.3497 34.3723 21.1268 33.7772C23.4477 33.2811 25.2221 32.5653 25.3838 25.9064Z" fill="black"/>
<path d="M20.2226 35.2281C18.9943 35.2281 18.1945 34.7531 17.7087 34.2944C16.9755 33.6025 16.6847 32.7112 16.5109 32.1788L16.4358 31.9566C16.0859 31.0122 15.9672 29.6524 15.8969 27.9013C15.8862 27.6383 15.8789 27.3675 15.8708 27.0803C15.8649 26.8702 15.8576 26.6067 15.8469 26.3311C15.4044 26.5421 14.9347 26.6905 14.4513 26.7721C13.5853 26.92 12.6544 26.8722 11.6838 26.6295C10.999 26.4582 10.2874 26.1033 9.88184 25.5551C8.69975 26.5904 7.57222 26.45 6.95797 26.245C5.87431 25.8836 4.90456 24.868 3.99303 23.1409C3.34362 21.9104 2.71559 20.3073 2.12609 18.3756C1.09953 15.0119 0.447312 11.469 0.389375 10.3057C0.207125 6.66495 1.18728 4.06114 3.302 2.56742C6.63791 0.211105 11.6922 1.59682 13.535 2.22598C14.7731 1.47982 16.2297 1.11673 17.8755 1.14289C18.7595 1.15723 19.6013 1.23486 20.3832 1.37436C21.1988 1.11786 22.8098 0.749699 24.6539 0.772761C28.0517 0.813261 30.8673 2.13739 32.7958 4.60198C34.1723 6.36036 33.4917 10.0529 32.9638 12.0976C32.2207 14.9736 30.9188 18.0325 29.3196 20.6954C29.7538 20.6985 30.383 20.6464 31.2774 20.4617C33.0419 20.0974 33.558 21.0436 33.6981 21.4671C34.2592 23.1665 31.8202 24.4506 31.0594 24.8039C30.0846 25.2564 28.4953 25.532 27.1936 25.4724L27.1368 25.4688L26.7948 25.4387L26.7611 25.7239L26.7284 26.0026C26.641 29.3773 26.1589 31.5145 25.1669 32.9267C24.1272 34.4072 22.6821 34.822 21.4092 35.0948C20.9749 35.1876 20.5803 35.2281 20.2226 35.2281V35.2281ZM17.6379 22.9457C18.4307 23.5802 18.5002 24.7741 18.5623 27.0052C18.5702 27.2837 18.5775 27.5472 18.5874 27.7933C18.6172 28.5386 18.6872 30.2838 18.9606 31.0212C18.9991 31.1255 19.0337 31.2313 19.0703 31.3435C19.3749 32.2761 19.5276 32.7439 20.8447 32.4623C21.9503 32.2252 22.5187 32.0126 22.9636 31.3792C23.6102 30.4584 23.9719 28.6061 24.0383 25.8738L25.3835 25.9064L24.0476 25.7461L24.0869 25.4125C24.2149 24.3128 24.3072 23.5186 25.0421 22.9932C25.6318 22.5719 26.3038 22.6127 26.839 22.7091C26.2509 22.2648 26.0883 21.7436 26.045 21.5299L25.9328 20.9772L26.2481 20.5095C28.0641 17.8151 29.5615 14.5037 30.3568 11.424C31.1742 8.25964 30.925 6.57917 30.6758 6.26136C27.377 2.04626 21.6567 3.78664 21.0593 3.98407L20.9583 4.03864L20.4521 4.13286L20.1927 4.07914C19.4778 3.93064 18.6836 3.84851 17.8322 3.83473C16.4946 3.81223 15.4154 4.12836 14.5306 4.7997L13.9167 5.26517L13.2042 4.97182C11.6821 4.34942 7.21137 3.09814 4.85225 4.76904C3.54275 5.69661 2.94622 7.51404 3.07897 10.171C3.12284 11.0482 3.71881 14.3689 4.70206 17.5895C6.06078 22.0403 7.29547 23.5189 7.811 23.6907C7.901 23.7211 8.13444 23.5397 8.36675 23.2607C9.33538 22.0995 10.3384 20.9674 11.3744 19.866L12.1535 19.0461L13.0954 19.6719C13.4751 19.9242 13.8939 20.0674 14.3239 20.0944L16.5702 18.1785L16.2448 21.4995C16.2375 21.574 16.2339 21.6755 16.2631 21.864L16.361 22.4934L15.9363 22.9682L15.8874 23.0233L17.1215 23.5928L17.6379 22.9457V22.9457Z" fill="black"/>
<path d="M31.5493 21.7799C27.6329 22.5879 27.3638 21.2618 27.3638 21.2618C31.499 15.1261 33.2276 7.33713 31.7358 5.43109C27.6661 0.231344 20.6211 2.69031 20.5035 2.75416L20.4656 2.76091C19.6918 2.60031 18.8259 2.50469 17.8525 2.48894C16.0803 2.45997 14.7362 2.95356 13.7161 3.727C13.7161 3.727 1.14875 -1.45025 1.73319 10.2382C1.8575 12.725 5.29719 29.0536 9.40006 24.1216C10.8997 22.3182 12.3484 20.7933 12.3484 20.7933C13.0681 21.2711 13.9296 21.5152 14.8327 21.4275L14.903 21.3678C14.8811 21.5917 14.8912 21.8108 14.9311 22.0701C13.8742 23.2511 14.1847 23.4584 12.0717 23.8932C9.93359 24.3336 11.1897 25.118 12.0098 25.3231C13.0037 25.5717 15.3038 25.9238 16.8577 23.7486L16.7955 23.9967C17.2098 24.3286 17.5006 26.1544 17.452 27.8096C17.403 29.4648 17.3704 30.6013 17.6969 31.4889C18.0232 32.3765 18.3483 34.3734 21.1259 33.7783C23.4468 33.281 24.6494 31.9921 24.8171 29.8422C24.9357 28.3136 25.2043 28.5397 25.2215 27.1731L25.4372 26.5263C25.6858 24.4543 25.4766 23.786 26.9067 24.0968L27.2541 24.1272C28.3065 24.175 29.6838 23.9579 30.4924 23.5821C32.2333 22.7747 33.2658 21.4258 31.5493 21.7799V21.7799Z" fill="#336791"/>
<path d="M20.3629 34.3988C18.0477 34.3988 17.3142 32.5654 17.0141 31.8155C16.5748 30.7167 16.48 26.4524 16.5778 22.9553C16.5793 22.8964 16.5924 22.8382 16.6164 22.7844C16.6404 22.7305 16.6749 22.6819 16.7177 22.6413C16.7606 22.6008 16.8111 22.5692 16.8662 22.5483C16.9214 22.5273 16.9801 22.5175 17.0391 22.5194C17.098 22.521 17.156 22.5342 17.2098 22.5582C17.2636 22.5823 17.3121 22.6167 17.3526 22.6595C17.3931 22.7023 17.4248 22.7527 17.4458 22.8077C17.4668 22.8628 17.4767 22.9215 17.475 22.9804C17.3623 27.0138 17.5223 30.6689 17.8474 31.4823C18.3548 32.7504 19.1243 33.8597 21.2998 33.3936C23.365 32.9507 24.1384 32.1677 24.4829 30.1705C24.7473 28.638 25.2702 24.278 25.3346 23.4177C25.3389 23.3589 25.3547 23.3015 25.3813 23.2489C25.4078 23.1962 25.4444 23.1493 25.4891 23.1109C25.5338 23.0724 25.5856 23.0432 25.6416 23.0248C25.6976 23.0064 25.7567 22.9992 25.8155 23.0037C25.9341 23.0127 26.0444 23.0684 26.122 23.1585C26.1996 23.2487 26.2383 23.366 26.2295 23.4846C26.1623 24.3804 25.642 28.7319 25.3675 30.3232C24.9608 32.6821 23.9092 33.7519 21.4879 34.2711C21.0764 34.3592 20.7027 34.3985 20.3629 34.3988V34.3988ZM7.80903 25.4435C7.60666 25.4429 7.40572 25.4096 7.21391 25.3451C5.71006 24.8434 4.27766 22.3942 2.95634 18.065C1.95059 14.7695 1.31328 11.3299 1.25731 10.2119C1.09166 6.89764 1.94497 4.55286 3.79419 3.24308C7.45241 0.651075 13.6064 3.11933 13.8666 3.22564C13.9768 3.27065 14.0646 3.35761 14.1107 3.46737C14.1568 3.57713 14.1574 3.70071 14.1124 3.81092C14.0674 3.92113 13.9804 4.00894 13.8707 4.05504C13.7609 4.10114 13.6373 4.10175 13.5271 4.05673C13.4678 4.03254 7.56659 1.66836 4.31112 3.97658C2.72994 5.09764 2.00403 7.18058 2.15337 10.1672C2.20034 11.1091 2.79575 14.4661 3.81444 17.8028C4.994 21.6678 6.33641 24.1065 7.49769 24.4938C7.67994 24.5545 8.23456 24.7393 9.02741 23.7859C9.952 22.6754 10.9113 21.5943 11.9038 20.5442C11.9868 20.4613 12.099 20.4143 12.2163 20.4131C12.3335 20.412 12.4466 20.4567 12.5313 20.5379C12.616 20.6191 12.6656 20.7301 12.6694 20.8474C12.6732 20.9646 12.631 21.0787 12.5517 21.1652C12.5382 21.1792 11.1885 22.5903 9.71759 24.3599C9.02094 25.1977 8.35325 25.4435 7.80903 25.4435V25.4435ZM27.3359 21.6621C27.2546 21.662 27.1748 21.6398 27.1051 21.5979C27.0354 21.5559 26.9784 21.4958 26.9402 21.424C26.902 21.3521 26.884 21.2712 26.8883 21.19C26.8925 21.1087 26.9187 21.0302 26.9641 20.9627C31.1443 14.7597 32.6116 7.26467 31.355 5.65873C29.7732 3.63767 27.5398 2.58214 24.7164 2.52111C22.6258 2.47611 20.9642 3.00992 20.6925 3.10301L20.6242 3.13086C20.3511 3.21664 20.1416 3.06701 20.0625 2.89208C20.0175 2.79185 20.0106 2.67859 20.0433 2.57368C20.076 2.46876 20.146 2.37943 20.24 2.32254C20.2529 2.31495 20.294 2.29751 20.3607 2.27304L20.3548 2.27473L20.3607 2.27276C20.8222 2.10373 22.5091 1.59776 24.5985 1.62167C27.7227 1.65486 30.3034 2.85945 32.0612 5.10579C32.8929 6.16864 32.8948 8.6172 32.0666 11.824C31.2222 15.0935 29.6335 18.6072 27.708 21.4644C27.622 21.593 27.4802 21.6621 27.3359 21.6621ZM27.5497 24.5337C26.8359 24.5337 26.196 24.433 25.813 24.2035C25.4192 23.9675 25.3441 23.6469 25.3343 23.4768C25.2268 21.5896 26.268 21.2611 26.799 21.1112C26.7251 20.9992 26.6199 20.8676 26.511 20.7318C26.2014 20.3448 25.7772 19.8149 25.4504 19.0223C25.3992 18.8986 25.2389 18.6109 25.0533 18.2776C24.0467 16.4725 21.9522 12.7164 23.2977 10.7929C23.9204 9.90279 25.1605 9.55236 26.9875 9.74783C26.45 8.11039 23.8906 2.98826 17.8176 2.8887C15.9912 2.85833 14.4932 3.41998 13.3677 4.55651C10.8477 7.10154 10.9388 11.7064 10.9402 11.7526C10.9417 11.8115 10.9317 11.8701 10.9106 11.9251C10.8894 11.9802 10.8577 12.0305 10.8171 12.0732C10.7766 12.116 10.728 12.1503 10.6742 12.1743C10.6203 12.1983 10.5623 12.2114 10.5034 12.213C10.4445 12.2145 10.3859 12.2045 10.3308 12.1834C10.2758 12.1622 10.2255 12.1305 10.1827 12.0899C10.14 12.0494 10.1056 12.0008 10.0817 11.947C10.0577 11.8931 10.0446 11.8351 10.043 11.7762C10.0374 11.5717 9.94344 6.73929 12.7301 3.92483C14.0342 2.60773 15.751 1.95748 17.8325 1.99151C21.7177 2.05536 24.2186 4.03057 25.6321 5.67617C27.1731 7.4697 27.9285 9.44801 27.9907 10.1084C28.0371 10.5995 27.6847 10.6976 27.6135 10.7122L27.4515 10.7159C25.6586 10.4287 24.5082 10.6281 24.0327 11.3076C23.0092 12.7704 24.9906 16.3234 25.8366 17.8408C26.0526 18.2278 26.2084 18.5076 26.2798 18.6803C26.5577 19.3542 26.9202 19.807 27.2113 20.171C27.4676 20.491 27.6895 20.7686 27.7688 21.0943C27.8056 21.159 28.3285 21.9324 31.4309 21.292C32.2086 21.1317 32.6749 21.2687 32.8175 21.6998C33.0979 22.5478 31.5246 23.537 30.6536 23.9414C29.8731 24.3042 28.6274 24.5337 27.5497 24.5337V24.5337ZM26.2289 23.4028C26.3274 23.5021 26.8198 23.6734 27.8397 23.6295C28.7464 23.5907 29.7027 23.3935 30.2764 23.1272C31.0102 22.7863 31.5001 22.4052 31.7538 22.145L31.6132 22.1709C29.6295 22.5804 28.2264 22.5259 27.4428 22.0086C27.3902 21.9738 27.3395 21.9362 27.2909 21.8959C27.206 21.9293 27.1275 21.9513 27.0716 21.967C26.6272 22.0916 26.1676 22.2207 26.2289 23.4028ZM13.4146 25.9101C12.9219 25.9101 12.4032 25.8429 11.8737 25.7105C11.3249 25.5732 10.3999 25.16 10.414 24.4814C10.43 23.72 11.5373 23.4917 11.9541 23.4059C13.4599 23.0957 13.5581 22.9714 14.0286 22.3737C14.1658 22.1996 14.3366 21.9828 14.5694 21.7229C14.9151 21.3359 15.2928 21.1399 15.6922 21.1399C15.9703 21.1399 16.1984 21.2341 16.3492 21.2968C16.8296 21.4959 17.2303 21.9774 17.3952 22.5531C17.5439 23.0726 17.4728 23.5727 17.1955 23.9611C16.2851 25.236 14.9775 25.9101 13.4146 25.9101ZM11.3834 24.5199C11.5187 24.6245 11.7898 24.7643 12.0916 24.8397C12.5503 24.9545 12.9953 25.0127 13.4149 25.0127C14.6935 25.0127 15.72 24.4834 16.4656 23.4394C16.6212 23.2217 16.5745 22.9452 16.5328 22.7998C16.4457 22.4952 16.2291 22.2182 16.0061 22.1256C15.8851 22.0756 15.7847 22.0373 15.6925 22.0373C15.643 22.0373 15.4922 22.0373 15.2385 22.3211C15.0635 22.518 14.8952 22.7208 14.734 22.9292C14.1478 23.6734 13.8792 23.9259 12.1355 24.2851C11.71 24.3723 11.4917 24.4611 11.3834 24.5199ZM14.8341 22.4499C14.727 22.4497 14.6234 22.4113 14.5422 22.3414C14.4609 22.2716 14.4074 22.175 14.3911 22.0691C14.38 21.9946 14.3725 21.9196 14.3686 21.8444C13.2256 21.823 12.1228 21.3325 11.2856 20.4589C10.2269 19.3545 9.74516 17.8242 9.96397 16.2607C10.2016 14.5628 10.1127 13.064 10.0649 12.2588C10.0517 12.035 10.0422 11.8732 10.0427 11.7613C10.0436 11.6193 10.0464 11.2427 11.3052 10.6045C11.753 10.3775 12.6507 9.98154 13.6315 9.88001C15.2562 9.71211 16.3273 10.4358 16.6479 11.9179C17.5133 15.9196 16.7165 17.6895 16.1346 18.9821C16.0263 19.2229 15.9239 19.4501 15.8421 19.6703L15.7698 19.8644C15.4624 20.6887 15.1966 21.4009 15.2782 21.9327C15.2871 21.9909 15.2845 22.0504 15.2705 22.1076C15.2565 22.1649 15.2313 22.2188 15.1965 22.2663C15.1616 22.3138 15.1177 22.354 15.0673 22.3845C15.0169 22.4151 14.961 22.4354 14.9027 22.4443L14.8341 22.4499ZM10.943 11.8856L10.9604 12.2059C11.0099 13.0424 11.1022 14.5988 10.8524 16.3853C10.6722 17.6749 11.0659 18.9335 11.9333 19.838C12.6187 20.5529 13.5207 20.9475 14.4477 20.9475H14.4668C14.5706 20.5101 14.743 20.0483 14.9286 19.5508L15.0003 19.3579C15.0928 19.1092 15.2011 18.8685 15.3159 18.6137C15.8758 17.3694 16.5731 15.8206 15.7701 12.1078C15.6112 11.3723 15.2256 10.9468 14.5919 10.8064C13.2903 10.519 11.3505 11.498 10.943 11.8856V11.8856ZM13.6514 11.6952C13.6289 11.8538 13.942 12.2774 14.3503 12.3339C14.7579 12.391 15.1066 12.0597 15.1288 11.9011C15.1511 11.7424 14.8383 11.5675 14.4299 11.5107C14.0218 11.4539 13.6731 11.5366 13.6514 11.6952ZM14.444 12.49L14.3295 12.4821C14.0764 12.447 13.8205 12.2875 13.6452 12.0552C13.5837 11.9736 13.4833 11.8156 13.5032 11.6744C13.5316 11.4674 13.7842 11.3434 14.1782 11.3434C14.2662 11.3434 14.3579 11.3498 14.4502 11.3628C14.6656 11.3926 14.8656 11.4547 15.0132 11.5371C15.2692 11.68 15.288 11.8395 15.2765 11.9219C15.245 12.1505 14.8813 12.49 14.444 12.49V12.49ZM13.8002 11.7216C13.8129 11.8195 14.0553 12.1424 14.3709 12.186L14.4443 12.191C14.7357 12.191 14.9533 11.9618 14.9789 11.8867C14.9519 11.8355 14.7646 11.7084 14.4094 11.6589C14.3329 11.6479 14.2558 11.6424 14.1785 11.6423C13.9501 11.6423 13.8289 11.6938 13.8002 11.7216V11.7216ZM26.0641 11.3715C26.0863 11.5301 25.7736 11.9537 25.3655 12.0105C24.9577 12.0673 24.6087 11.7363 24.5862 11.5776C24.5648 11.419 24.8775 11.2438 25.2853 11.1873C25.6932 11.1302 26.0416 11.2131 26.0641 11.3715V11.3715ZM25.2713 12.0915C24.8787 12.0915 24.5397 11.786 24.5119 11.5878C24.4796 11.3498 24.8713 11.169 25.2747 11.113C25.3635 11.1006 25.4516 11.0944 25.5362 11.0944C25.8844 11.0944 26.115 11.1965 26.1381 11.3614C26.153 11.4679 26.0712 11.6325 25.9302 11.781C25.8372 11.8786 25.6417 12.0476 25.3753 12.0844L25.2713 12.0915V12.0915ZM25.5365 11.2441C25.4589 11.2441 25.3779 11.25 25.2958 11.2612C24.8905 11.3178 24.6486 11.4803 24.6604 11.5675C24.6739 11.6634 24.9327 11.9421 25.2716 11.9421L25.3551 11.9362C25.5764 11.9056 25.7427 11.761 25.822 11.6778C25.9466 11.547 25.9961 11.4238 25.9902 11.3819C25.9823 11.3262 25.8327 11.2441 25.5365 11.2441ZM26.6517 20.4812C26.5704 20.4812 26.4906 20.4592 26.4208 20.4173C26.3511 20.3755 26.2941 20.3155 26.2558 20.2438C26.2176 20.1721 26.1995 20.0913 26.2037 20.0101C26.2078 19.9289 26.2339 19.8503 26.2793 19.7828C27.235 18.3555 27.06 16.9 26.891 15.4924C26.8187 14.8927 26.7445 14.2726 26.7636 13.6774C26.7833 13.0652 26.8612 12.56 26.9363 12.0715C27.0254 11.4927 27.1098 10.946 27.0749 10.2968C27.0718 10.238 27.0802 10.1791 27.0998 10.1235C27.1194 10.068 27.1497 10.0168 27.1891 9.97293C27.2284 9.92909 27.276 9.89342 27.3292 9.86797C27.3823 9.84252 27.4399 9.82778 27.4988 9.82461C27.5576 9.82143 27.6165 9.82987 27.6721 9.84945C27.7276 9.86904 27.7788 9.89937 27.8227 9.93873C27.8665 9.97809 27.9022 10.0257 27.9276 10.0788C27.9531 10.132 27.9678 10.1896 27.971 10.2485C28.0109 10.9904 27.9156 11.6091 27.8233 12.2079C27.7522 12.67 27.6785 13.1479 27.6608 13.7061C27.6436 14.2332 27.7108 14.7929 27.782 15.3852C27.962 16.882 28.1659 18.5785 27.0252 20.282C26.9841 20.3434 26.9285 20.3937 26.8633 20.4284C26.7982 20.4631 26.7255 20.4813 26.6517 20.4812V20.4812Z" fill="white"/>
</svg>
