<svg width="36" height="36" viewBox="0 0 36 36" fill="none" xmlns="http://www.w3.org/2000/svg">
<g clip-path="url(#clip0_6926_1990)">
<path d="M5.90859 9.19554C5.95754 9.23248 6.04251 9.25649 5.95754 9.32946C5.89658 9.41443 5.82362 9.4874 5.77513 9.58484C5.72664 9.67027 5.69015 9.69429 5.61719 9.63379C5.71417 9.47539 5.81115 9.329 5.90811 9.19507L5.90859 9.19554ZM30.3357 21.9494C30.3357 21.9854 30.3477 22.0094 30.3477 22.0464C30.3722 21.9979 30.3722 21.9734 30.3847 21.9494H30.3357ZM27.8567 26.8045L25.7417 15.0735C25.7056 15.062 25.6572 15.038 25.5717 15.0135C25.5962 15.062 25.6087 15.0985 25.6207 15.1349C25.6807 15.1229 25.7056 15.1229 25.7297 15.1109C25.7297 15.0989 25.7297 15.0869 25.7421 15.074L27.8572 26.8058L27.8567 26.8045ZM25.6692 12.4331C25.6572 12.4692 25.6571 12.5061 25.6571 12.5426C25.6571 12.5057 25.6572 12.4687 25.6701 12.4327L25.6692 12.4331ZM25.6812 12.6761C25.6692 12.6761 25.6692 12.6761 25.6572 12.6631V12.6751C25.6701 12.6871 25.6701 12.6871 25.6821 12.6751L25.6812 12.6761ZM25.6572 12.773V12.6876C25.6216 12.6996 25.5851 12.6996 25.5362 12.7121C25.5971 12.7352 25.6581 12.7481 25.6581 12.7721L25.6572 12.773Z" fill="#DD3735"/>
<path d="M35.9231 15.6598C35.8991 15.185 35.8871 14.7103 35.8382 14.236C35.7532 13.5909 35.6682 12.9337 35.5223 12.3011C35.4128 11.7778 35.2314 11.2786 35.0485 10.7799C34.8176 10.1957 34.5867 9.59948 34.2948 9.03976C33.821 8.13923 33.2012 7.3357 32.63 6.49614C32.2523 5.96044 31.7664 5.52265 31.4016 4.97494C31.1952 4.65859 30.8913 4.39121 30.5874 4.14832C30.1011 3.75809 29.5908 3.40481 29.0805 3.06447C28.6917 2.79662 28.3029 2.54123 27.8891 2.30987C27.5612 2.12653 27.2089 1.98061 26.8685 1.82221C26.4797 1.6398 26.1028 1.42045 25.6655 1.33548C25.5556 1.31239 25.4586 1.27545 25.3491 1.2385C25.0697 1.14152 24.8023 1.03208 24.5225 0.946649C24.0976 0.812726 23.6843 0.654796 23.2465 0.544883C22.8226 0.435435 22.3848 0.362931 21.947 0.301512C21.4612 0.229931 20.9634 0.204531 20.4766 0.156966C20.1607 0.120021 19.8449 0.0840017 19.541 0.0719952C19.0792 0.0479812 18.6054 0.0479812 18.1436 0.0359755C17.9127 0.0235068 17.6698 -0.000969501 17.4388 0.0114997C17.0865 0.0235066 16.7341 0.05999 16.3813 0.10848C16.0414 0.145425 15.7011 0.205461 15.3732 0.254874C14.9728 0.303364 14.572 0.327838 14.1707 0.37679C13.7938 0.425742 13.405 0.498706 13.0286 0.559664C12.8947 0.58414 12.7608 0.632629 12.6269 0.656645C12.3359 0.717603 12.032 0.74208 11.7402 0.839519C11.2184 0.998381 10.6951 1.18127 10.1848 1.37522C9.71054 1.5701 9.24873 1.77698 8.79941 2.02035C8.33759 2.27526 7.8998 2.57914 7.46249 2.87192C7.04871 3.15177 6.63586 3.44364 6.23407 3.75996C5.84614 4.06475 5.48133 4.40509 5.1285 4.74591C4.93455 4.93987 4.77615 5.1717 4.59374 5.39059C4.29032 5.74387 3.98646 6.08421 3.69461 6.44953C3.45262 6.75432 3.2328 7.07019 3.00189 7.38699C2.58949 7.94578 2.23714 8.54242 1.90926 9.13909C1.77534 9.38247 1.65388 9.62583 1.53241 9.86874C1.35 10.2336 1.15557 10.5869 0.985636 10.9642C0.86372 11.22 0.766739 11.4999 0.693783 11.7797C0.524299 12.3763 0.353892 12.985 0.195942 13.5807C0.0500099 14.1164 0.0135289 14.6761 0.00198363 15.2239C-0.010485 15.7106 0.0380033 16.1853 0.0864936 16.6721C0.0989623 16.794 0.026458 16.9399 0.171465 17.0369C0.122975 17.1708 0.159458 17.2447 0.231501 17.2678C0.147452 17.4017 0.268445 17.4876 0.220417 17.6096C0.207948 17.6336 0.257362 17.6821 0.280453 17.7185C0.280453 17.7555 0.268908 17.804 0.280453 17.8405C0.293383 17.9499 0.341872 18.0594 0.341872 18.1813C0.341872 18.2662 0.414375 18.3637 0.438853 18.4491C0.450859 18.4851 0.438853 18.5461 0.414377 18.5706C0.341412 18.6556 0.353419 18.7285 0.462867 18.7775C0.524287 18.9354 0.499812 19.0084 0.487805 19.0823C0.511819 19.1912 0.475336 19.2277 0.487805 19.2522C0.584786 19.4471 0.621728 19.666 0.633273 19.8849C0.633273 19.9338 0.657749 19.9828 0.682225 20.0433C0.694232 20.0433 0.682225 20.2742 0.682225 20.2742C0.74226 20.2382 0.791673 20.2262 0.85217 20.2017C0.889115 20.3596 0.925135 20.5065 0.973625 20.6404C1.03458 20.7374 1.03458 20.7854 1.01057 20.7974C1.05906 21.0163 1.08307 21.2232 1.16758 21.4301C1.16758 21.1992 1.14449 20.9683 1.10755 20.7489C1.27749 20.8099 1.42342 20.8704 1.52087 20.8704C1.53334 20.8334 1.54535 20.7854 1.55782 20.7609C1.48485 20.6884 1.42389 20.579 1.35093 20.506C1.3754 20.603 1.35093 20.6399 1.35093 20.6769C1.30244 20.6519 1.24148 20.6275 1.18098 20.603C1.22947 20.543 1.27796 20.4815 1.35093 20.409C1.35093 20.2991 1.29089 20.2012 1.12002 20.2137C1.19299 20.1897 1.26596 20.1537 1.35093 20.1287C1.48485 20.0562 1.33892 19.9223 1.33892 19.7519C1.35093 19.5454 1.22947 19.3385 1.19299 19.1192C1.13203 18.7789 1.1445 18.2676 1.10802 17.9268C1.03506 17.8659 0.974097 18.0238 0.962088 18.0363C0.999033 18.3281 1.03505 18.62 1.05907 18.9123C0.986565 18.6689 0.937613 18.4011 0.877116 18.1088C0.864648 18.1942 0.852641 18.2307 0.852641 18.2796C0.792605 18.3397 0.840634 18.4136 0.877116 18.4985C0.792145 18.4616 0.694703 18.4745 0.694703 18.4745V18.8153C0.573709 18.6934 0.53769 18.5964 0.476268 18.5105C0.452254 18.4136 0.439323 18.3166 0.416232 18.2196C0.439322 18.1582 0.416232 18.1217 0.416232 18.0857C0.403301 17.9998 0.391294 17.9028 0.379287 17.7929C0.391294 17.7809 0.36728 17.599 0.36728 17.599C0.464261 17.6105 0.52568 17.6221 0.586177 17.6221C0.464722 17.465 0.549232 17.3671 0.598646 17.2697C0.623122 17.2207 0.708094 17.2097 0.732569 17.1598C0.829549 16.9774 0.987947 16.8319 0.987947 16.6001C0.987947 16.4906 1.02489 16.3692 1.03644 16.2593C1.06091 16.0524 1.08493 15.8455 1.09647 15.6386C1.12141 15.3707 1.09647 15.1029 1.15789 14.8475C1.25579 14.4227 1.37725 13.9964 1.51072 13.5702C1.6077 13.2654 1.71761 12.9744 1.8386 12.6696C2.02101 12.1949 2.19143 11.7202 2.42234 11.2704C2.75022 10.6127 3.12706 9.98007 3.49187 9.33539C3.72278 8.93362 3.96569 8.55632 4.22152 8.16702C4.46397 7.78972 4.70642 7.40042 4.98674 7.04714C5.37605 6.5484 5.80136 6.08566 6.27518 5.67188C6.76146 5.23409 7.22327 4.78383 7.74558 4.38207C8.42536 3.85745 9.143 3.39564 9.90775 2.99387C10.528 2.66599 11.1717 2.40924 11.8159 2.16585C12.2293 2.00791 12.6786 1.93494 13.1044 1.80101C13.5902 1.64261 14.0765 1.57011 14.5868 1.55764C14.9147 1.54517 15.231 1.50869 15.5589 1.4722C15.8508 1.44911 16.1422 1.42417 16.4585 1.38769C16.4216 1.43618 16.4096 1.46066 16.3976 1.48467C16.2646 1.67955 16.1186 1.87443 15.9847 2.06886C15.8753 2.22726 15.7538 2.39767 15.6444 2.55559C15.4495 2.81189 15.2426 3.06727 15.0606 3.33513C14.7812 3.73689 14.5259 4.15067 14.234 4.55199C13.9431 4.94129 13.6267 5.30658 13.3229 5.6834C12.922 6.20709 12.5452 6.74233 12.1443 7.26554C11.7795 7.76428 11.3916 8.23996 11.0388 8.7387C10.7229 9.17605 10.443 9.63924 10.1392 10.0886C9.68985 10.7582 9.24005 11.4149 8.7907 12.0845C8.43787 12.5952 8.08552 13.0944 7.72116 13.6057C7.69668 13.6426 7.6602 13.6537 7.62418 13.6782C7.5272 13.8361 7.5272 13.9216 7.49026 13.9945C7.39328 14.1769 7.2963 14.3594 7.18639 14.5302C7.12543 14.6272 7.04046 14.7122 6.9675 14.8096C6.95549 14.6637 7.16145 14.5907 7.06448 14.4079C7.00444 14.5058 6.94302 14.5907 6.88252 14.6882L6.7366 14.9791C6.78509 15.016 6.87052 15.0405 6.78509 15.113C6.74814 15.1744 6.71212 15.2469 6.67564 15.3084C6.7366 15.2714 6.77262 15.2354 6.80956 15.1865C6.80956 15.3204 6.7366 15.4294 6.67564 15.5388C6.62715 15.6358 6.50569 15.7097 6.42072 15.7822C6.43273 15.7946 6.5177 15.8311 6.53017 15.8431C6.63962 15.8062 6.6761 15.7461 6.68857 15.7822C6.72551 15.7337 6.76153 15.6972 6.77354 15.6607C6.82157 15.5388 6.89453 15.4418 7.01599 15.3929C7.06494 15.3684 7.10096 15.3319 7.13744 15.2959C7.50228 14.9181 7.8791 14.5533 8.20698 14.1515C8.71773 13.5304 9.17954 12.8862 9.6663 12.2535C9.87227 11.9857 10.1156 11.7178 10.3341 11.462C10.3701 11.7419 10.3461 12.0092 10.3341 12.2655C10.2971 12.7153 10.2731 13.1661 10.2371 13.6279C10.2246 13.8103 10.2371 13.9927 10.2246 14.1756C10.2246 14.224 10.1877 14.2605 10.1877 14.3095C10.1877 14.4309 10.2246 14.5649 10.2246 14.6868C10.1877 15.137 10.1387 15.5748 10.1022 16.0251C10.0898 16.1221 10.1383 16.22 10.1623 16.3054C10.1022 16.9621 10.2362 17.6562 10.1263 18.3498C10.2112 18.2159 10.2357 18.1309 10.2357 18.0459C10.2473 17.973 10.2357 17.9 10.2357 17.815V17.6931C10.2473 17.4738 10.2957 17.2429 10.2717 17.0235C10.2473 16.7801 10.2473 16.5492 10.2962 16.3179C10.3207 16.2209 10.2842 16.099 10.3452 15.977V16.1595C10.3332 16.8522 10.3576 17.5463 10.2607 18.2399C10.2482 18.3008 10.2976 18.4108 10.1637 18.3983C10.0538 18.6172 10.1877 18.7756 10.0667 18.897C10.0418 18.9215 10.0898 19.031 10.1023 19.1039C10.0533 19.2503 10.0533 19.2503 10.1263 19.2623C10.1383 19.5302 10.1632 19.7731 10.1748 20.0289C10.3687 19.5671 10.2717 19.0915 10.3576 18.6167C10.3696 18.8116 10.3821 19.0065 10.3696 19.2125C10.3696 19.5297 10.3576 19.8336 10.3456 20.1499C10.3456 20.2109 10.3332 20.2718 10.3211 20.3328C10.2842 20.5037 10.2727 20.6736 10.2117 20.8315C10.1632 20.9534 10.1877 21.1363 10.1877 21.2818V21.745C10.2362 21.9519 10.1752 22.0613 10.2117 22.1828C10.1748 22.3051 10.1632 22.3416 10.1748 22.3781L10.2117 22.5605C10.4551 22.536 10.3456 22.7189 10.4426 22.8159C10.3696 22.9138 10.3941 22.9498 10.3941 22.9992C10.3941 23.1087 10.3826 23.2061 10.3701 23.3156C10.3701 23.5954 10.3581 23.8753 10.3581 24.1431C10.3581 24.1801 10.3701 24.2156 10.3701 24.2521C10.3701 24.2771 10.3581 24.5939 10.3581 24.5939C10.3826 24.6299 10.3581 24.6664 10.3211 24.7029C10.3096 24.7029 10.2731 23.1572 10.2731 23.1572H10.0907C10.0667 23.8868 10.1277 24.544 9.99373 25.2261C9.8478 25.2376 9.79977 25.2621 9.6409 25.2621C9.26405 25.2621 8.88723 25.2621 8.51039 25.2741C8.06058 25.2741 7.62372 25.2861 7.17346 25.2861C6.95549 25.2861 6.72459 25.3111 6.50569 25.3111C6.21384 25.3111 5.90995 25.2741 5.61902 25.2741C5.16877 25.2741 4.73143 25.3111 4.28162 25.3231C3.95374 25.3351 3.62586 25.3351 3.29798 25.3476C3.07862 25.3591 2.85926 25.3706 2.64129 25.3956C2.54431 25.4076 2.45888 25.4441 2.33743 25.4806C2.30048 25.4806 2.21597 25.4685 2.14347 25.4806C2.02109 25.505 1.91256 25.5775 1.79019 25.6025C1.60778 25.6394 1.55929 25.6874 1.5833 25.8703V25.9918C1.57129 26.0158 1.85115 25.9548 1.85115 25.9548C1.82621 25.9548 1.8142 26.0278 1.77726 26.0888C1.87516 26.0518 1.93566 26.0278 1.99662 26.0038C2.17903 26.0892 2.33696 26.0407 2.48245 26.0777C2.95627 26.1987 3.44207 26.2485 3.9279 26.2961C4.24425 26.3206 4.54812 26.3331 4.86399 26.3446C5.31331 26.3691 5.76312 26.3936 6.21247 26.3936C6.58932 26.3936 6.95412 26.3566 7.33004 26.3566C7.85187 26.3566 8.37556 26.3806 8.89787 26.3936C9.00732 26.3936 9.12878 26.3806 9.25022 26.3806H10.1369C10.9275 26.3566 11.7172 26.3437 12.5073 26.3206C12.9576 26.3077 13.4194 26.2836 13.8688 26.2712L15.2542 26.2342C15.7889 26.2222 16.3237 26.2222 16.8465 26.2111C17.2473 26.2111 17.6362 26.1973 18.0379 26.1857C18.4868 26.1737 18.9486 26.1373 19.3984 26.1132C19.6418 26.1008 19.8852 26.0763 20.1281 26.0523C20.4199 26.0283 20.7238 25.9922 21.0147 25.9798C21.4525 25.9548 21.9023 25.9428 22.3401 25.9184C22.8869 25.8823 23.4337 25.8338 23.9925 25.8214C24.5032 25.7974 25.0255 25.8094 25.5363 25.7974C25.9861 25.7849 26.4359 25.7604 26.8977 25.7484L27.6643 25.7115C27.6643 25.7115 28.1741 25.6995 28.4295 25.6745C28.8669 25.6505 29.3042 25.602 29.742 25.59C30.0209 25.5775 30.3008 25.59 30.5802 25.5775C31.0295 25.5655 31.4913 25.5406 31.9411 25.5406C32.1106 25.5406 32.293 25.5655 32.5119 25.5775C32.4149 25.663 32.354 25.7115 32.281 25.7724C32.3295 25.7844 32.378 25.8094 32.4269 25.8334C32.354 25.8819 32.293 25.8934 32.233 25.8934C32.2081 25.9548 32.1836 25.9793 32.1591 26.1012H32.378C32.293 26.1012 32.22 26.2107 32.1351 26.2836C32.0381 26.2587 31.9527 26.2836 31.9042 26.4176C31.9891 26.4656 31.9771 26.5021 31.9651 26.5515C31.8192 26.5995 31.7097 26.6485 31.7712 26.8064C31.7218 26.8304 31.6613 26.8549 31.6003 26.8914C31.5403 26.9884 31.4304 27.0128 31.4544 27.1468C31.5033 27.1583 31.5514 27.1837 31.5883 27.1948C31.5273 27.2193 31.4668 27.2557 31.4059 27.2798C31.1874 27.4137 31.2849 27.4746 31.3334 27.5356C31.2964 27.5601 31.2604 27.5841 31.2239 27.5966C31.2479 27.706 31.284 27.7305 31.2964 27.7305C31.2479 27.7665 31.187 27.8155 31.114 27.8764C31.0771 27.9859 31.0286 28.0343 30.9801 28.1073C30.9316 28.1803 30.9071 28.2782 30.8462 28.3507C30.5913 28.631 30.4089 28.9603 30.0809 29.1787C29.959 29.2641 29.85 29.3736 29.7406 29.4835C29.5217 29.6899 29.3273 29.9213 29.0964 30.1162C28.793 30.3716 28.4775 30.6025 28.1488 30.8338C27.7484 31.1137 27.3475 31.3935 26.9462 31.6614C26.7273 31.8068 26.4844 31.9163 26.2535 32.0502C26.0226 32.1841 25.8037 32.3061 25.5728 32.4395C25.4269 32.5365 25.2929 32.6704 25.135 32.7443C24.7342 32.9152 24.3084 33.0607 23.8955 33.2191C23.4937 33.3899 23.2028 33.5354 22.8989 33.6448C22.6195 33.7418 22.3277 33.8157 22.0363 33.8757C21.9393 33.9007 21.8294 33.8757 21.7199 33.8882C21.513 33.9252 21.3066 33.9741 21.0997 33.9981C20.5649 34.0711 20.0302 34.12 19.4958 34.193C19.1795 34.2299 18.8756 34.29 18.5598 34.3269C18.3413 34.3389 18.1104 34.3149 17.8915 34.3149C17.7336 34.3149 17.5637 34.3519 17.4053 34.3274C17.1503 34.2904 16.895 34.2304 16.6396 34.1814C16.5795 34.1694 16.4937 34.1445 16.4456 34.1694C16.3486 34.2184 16.2628 34.1454 16.1653 34.1694C16.1053 34.1819 16.0443 34.1325 15.9834 34.1325C15.9344 34.121 15.8734 34.1454 15.8125 34.1325C15.6786 34.0965 15.5576 34.048 15.4107 34.06C15.2662 34.072 15.1198 33.999 14.9628 33.963C14.7434 33.9141 14.5379 33.866 14.3181 33.8166C14.2336 33.7921 14.1611 33.7557 14.0756 33.7072C13.7593 33.7072 13.5524 33.6952 13.358 33.6217C13.1881 33.5617 13.0301 33.4763 12.8477 33.5007C12.7997 33.5127 12.7632 33.4887 12.7138 33.4887C12.6768 33.4398 12.6413 33.3423 12.6053 33.3423C12.3624 33.3548 12.2164 33.1484 12.0095 33.087C11.9005 33.05 11.8156 32.9286 11.7061 32.8921C11.4383 32.7826 11.2203 32.5517 10.9164 32.5153C10.8194 32.5028 10.7225 32.4543 10.6125 32.4183C10.6495 32.4663 10.6726 32.5028 10.7095 32.5393C10.3572 32.3684 10.0293 32.1744 9.70094 31.9916C9.65291 31.9796 9.61643 31.9315 9.57994 31.9066L9.25206 31.6877C9.06965 31.7246 8.99669 31.6507 8.94727 31.6267C8.61939 31.3958 8.24302 31.2494 7.92667 30.9941C7.79275 30.8842 7.63575 30.8112 7.53875 30.6773C7.36788 30.4704 7.16145 30.3244 6.93054 30.203C6.74859 30.106 6.57864 29.9961 6.40871 29.8867C6.32328 29.8257 6.23784 29.7527 6.23784 29.6188C6.23784 29.5334 6.20182 29.448 6.09238 29.4969C6.04389 29.4239 5.99539 29.339 5.93444 29.3145C5.78851 29.2545 5.69153 29.1436 5.58209 29.0466C5.47264 28.9497 5.38813 28.8157 5.2542 28.7673C5.01083 28.6703 4.8649 28.4634 4.71944 28.293C4.37862 27.8912 4.07476 27.4525 3.75888 27.0276C3.73441 26.9907 3.68592 26.9662 3.64944 26.9297C3.69793 27.0637 3.75888 27.1731 3.81938 27.2946C3.69839 27.2461 3.61342 27.1607 3.54045 27.0757C3.52798 27.0881 4.37863 28.4874 4.37863 28.4874C4.45252 28.5969 4.51255 28.7068 4.58552 28.8162C4.40311 28.8282 4.28166 28.7308 4.22068 28.6213C4.1117 28.4274 3.98978 28.3055 3.74686 28.3304C3.72285 28.2445 3.69837 28.1471 3.68683 28.0626C3.63741 28.0626 3.60139 28.0626 3.51596 28.0501C3.68683 28.3179 3.83231 28.5488 3.99023 28.8167C3.92881 28.7797 3.89325 28.7557 3.86785 28.7437C4.08629 28.9746 4.24422 29.267 4.52362 29.4134C4.58457 29.6927 4.90046 29.8267 4.97342 30.0945C4.91338 30.0821 4.86351 30.07 4.80255 30.0576C4.70557 29.9361 4.59613 29.8147 4.48713 29.6807C4.51114 29.7657 4.54717 29.8387 4.59612 29.8996C4.74205 30.0821 4.87597 30.2645 5.04592 30.4229C5.10688 30.4848 5.19185 30.5092 5.19185 30.6187C5.28883 30.6672 5.32577 30.6787 5.36179 30.6787C5.38673 30.7526 5.35025 30.8621 5.49572 30.8376C5.5927 31.02 5.68968 31.02 5.8236 30.9595C5.982 31.1179 6.06743 31.1304 6.17643 31.0334C6.17643 31.0934 6.18843 31.1544 6.18843 31.2033C6.23692 31.1789 6.22538 31.1424 6.22538 31.0814C6.28541 31.1299 6.32236 31.1544 6.34637 31.1784C6.46783 31.3493 6.57728 31.5072 6.74721 31.6411C6.97811 31.836 7.185 32.0429 7.40297 32.2253C7.82876 32.5786 8.30351 32.8709 8.77685 33.1383C9.36059 33.4671 9.91982 33.82 10.5151 34.1358C11.2318 34.5136 11.9975 34.7694 12.7872 34.9518C13.079 35.0128 13.3584 35.0733 13.6507 35.1458C13.9047 35.2197 14.1606 35.3291 14.416 35.3896C14.8048 35.4751 15.2057 35.548 15.5945 35.6205C15.679 35.633 15.7654 35.6455 15.8623 35.6575C15.9709 35.682 16.1043 35.633 16.1288 35.6699C16.1898 35.7669 16.2383 35.718 16.3112 35.706C16.3962 35.6815 16.4936 35.6815 16.5906 35.6815C16.9309 35.6935 17.2588 35.7665 17.5992 35.7425C17.6731 35.7425 17.7821 35.681 17.843 35.8025C17.952 35.754 18.013 35.754 18.0615 35.7425C18.0744 35.8514 18.0615 35.8514 18.0384 35.8634C18.0134 35.8755 17.977 35.8879 17.9285 35.9244C18.3658 36.0094 18.7791 36.0214 19.143 35.9244C19.7757 35.9729 20.3225 35.8999 20.8452 35.7175C20.8937 35.7785 20.9302 35.8634 21.0032 35.742C21.0272 35.705 21.0881 35.6926 21.1371 35.6806C21.2461 35.6561 21.38 35.6076 21.477 35.6436C21.5869 35.6806 21.6234 35.5836 21.7079 35.5836C21.8543 35.5836 21.9877 35.5711 22.1217 35.5466C22.1946 35.5346 22.2676 35.4981 22.3526 35.4737C22.2556 35.4243 22.1586 35.4123 22.0847 35.4123C22.2311 35.3393 22.3646 35.2783 22.4985 35.2183C22.474 35.2543 22.4495 35.3028 22.4015 35.3028H22.571C22.534 35.3028 22.4856 35.4123 22.4251 35.4852C22.8619 35.3758 23.2628 35.2783 23.6521 35.1804C23.5181 34.9255 23.7975 35.011 23.895 34.8646C23.7735 34.9015 23.6521 34.9375 23.5301 34.9615C23.9435 34.7551 24.3688 34.5727 24.7817 34.3903C24.7216 34.4633 24.6477 34.4997 24.5392 34.5612C24.6122 34.5727 24.6607 34.5727 24.6971 34.5842C24.8911 34.6457 24.8431 34.4633 24.9036 34.3533C25.1345 34.3533 25.2314 34.3173 25.3409 34.2804C25.4624 34.2434 25.5838 34.2074 25.7057 34.1589C25.8997 34.074 26.0821 33.965 26.2765 33.868C26.3135 33.8551 26.3735 33.868 26.4225 33.868C26.5564 33.7821 26.6044 33.7091 26.6409 33.7211C26.8118 33.7456 26.9318 33.6842 26.9808 33.5272C27.0658 33.4658 27.1267 33.4173 27.1872 33.3803C27.4541 33.2344 27.7091 33.0885 27.9769 32.9425C28.0739 32.9425 28.1228 32.9425 28.1469 32.9301C28.3057 32.8562 28.4517 32.7721 28.5971 32.6867C28.5602 32.6747 28.4757 32.6267 28.4757 32.6267C28.5967 32.6018 28.6327 32.5897 28.7066 32.5653C28.9975 32.2235 29.3993 31.9926 29.7027 31.7248C29.8366 31.7128 29.8366 31.6763 29.8366 31.6523C29.8846 31.5913 29.9336 31.5183 29.9936 31.4694C30.2615 31.226 30.5524 31.0191 30.7958 30.7637C31.1481 30.41 31.4885 30.0447 31.8044 29.6674C32.0953 29.3266 32.3881 28.9863 32.631 28.609C32.9713 28.0857 33.2627 27.5501 33.5666 27.0019C33.7855 26.613 33.9799 26.2237 34.1993 25.8344C34.2223 25.7975 34.2718 25.749 34.3082 25.749C34.6361 25.7121 34.9649 25.689 35.2808 25.652C35.3538 25.64 35.4387 25.592 35.5117 25.555C35.4748 25.4941 35.4508 25.4211 35.4147 25.3602C35.3658 25.2863 35.2928 25.2262 35.2439 25.1523C35.1958 25.0923 35.1593 25.0184 35.1229 24.9459C35.0859 24.8859 35.0499 24.8369 35.0134 24.775C34.9395 24.6411 34.867 24.5072 34.8056 24.3622C34.7936 24.3253 34.7687 24.2652 34.7816 24.2283C35.0005 23.754 35.0854 23.2428 35.2919 22.7681C35.4983 22.2813 35.5597 21.7336 35.6567 21.2104C35.7417 20.7116 35.7907 20.2129 35.8507 19.7141C35.8876 19.3613 35.9361 19.0205 35.9477 18.6677C36.0216 18.108 35.9966 17.5843 35.9846 17.0606C35.9726 16.5988 35.9477 16.1241 35.9246 15.6613L35.9231 15.6598ZM5.43282 30.6397C5.34785 30.5427 5.27488 30.4328 5.18991 30.3358L5.22686 30.2989C5.35939 30.4453 5.49332 30.5912 5.62679 30.7496C5.55383 30.7127 5.46884 30.6887 5.43282 30.6397ZM5.62679 30.7496C5.66374 30.7372 5.70067 30.7372 5.73669 30.7251C5.77363 30.7861 5.79765 30.8591 5.83367 30.932C5.66372 30.9196 5.57875 30.8466 5.62724 30.7496L5.62679 30.7496ZM18.2664 35.7756V35.7386C18.4973 35.7146 18.7158 35.6901 18.9467 35.6661V35.7017C18.7158 35.7386 18.4973 35.7617 18.2664 35.7746V35.7756ZM21.3281 35.4592C21.1586 35.4962 20.9762 35.5206 20.8063 35.5451C20.7453 35.5571 20.6724 35.6181 20.6484 35.5082C20.6239 35.5206 20.5994 35.5206 20.5754 35.5331C20.6354 35.715 20.7818 35.5691 20.9033 35.6421C20.6354 35.679 20.3814 35.703 20.1256 35.739V35.715C20.1995 35.703 20.284 35.6906 20.3565 35.6781V35.6421C20.2355 35.6296 20.114 35.6176 19.9917 35.6176C19.9561 35.6176 19.9071 35.6665 19.8707 35.6786C19.8222 35.6906 19.7737 35.703 19.7127 35.703C19.5063 35.715 19.2999 35.715 19.105 35.727C19.0925 35.727 19.068 35.715 19.056 35.715V35.6781C19.8702 35.5691 20.6724 35.4596 21.4865 35.3502C21.499 35.3742 21.499 35.3987 21.511 35.4227C21.438 35.4227 21.3895 35.4481 21.3286 35.4596L21.3281 35.4592ZM21.511 35.3382C21.7909 35.3013 22.0467 35.2773 22.3136 35.2412C21.7548 35.3992 21.5724 35.4232 21.5115 35.3382H21.511ZM10.9259 10.7679C11.3138 10.2322 11.7156 9.69654 12.1044 9.14931C12.2258 8.98999 12.3228 8.81957 12.4443 8.66165C12.4812 8.6127 12.5297 8.58869 12.5902 8.53974L12.5782 8.51664C12.6267 8.45522 12.6752 8.40581 12.6997 8.35778C12.7615 8.2608 12.798 8.15089 12.8465 8.04143C12.8585 8.01834 12.895 7.99387 12.895 7.99387C13.0659 8.07884 13.0659 7.89689 13.1259 7.83547C13.2354 7.71355 13.3448 7.58009 13.4418 7.45817C13.5147 7.36119 13.5877 7.27576 13.6487 7.16632C13.6607 7.12937 13.6242 7.06934 13.6117 7.01993H13.5757C13.6127 6.99591 13.6487 6.95989 13.6852 6.93495C13.6972 6.93495 13.6972 6.93495 13.7092 6.92295C13.7821 6.81304 13.8551 6.70359 13.9281 6.60615C14.0735 6.41219 14.2315 6.21732 14.4014 6.04736C14.3774 6.1074 14.3529 6.16881 14.3284 6.21731C14.3409 6.21731 14.3409 6.22978 14.3529 6.22978C14.4988 6.03489 14.6568 5.85248 14.8027 5.65712C14.7902 5.64558 14.7782 5.63311 14.7658 5.63311C14.7057 5.69407 14.6568 5.75503 14.5958 5.81598C14.5838 5.80351 14.5718 5.79151 14.5589 5.79151C14.6813 5.63311 14.8027 5.47516 14.9237 5.29277C14.9482 5.32971 14.9727 5.37774 15.0207 5.47518C15.0701 5.35372 15.1186 5.26875 15.1546 5.18333C15.1186 5.22027 15.0701 5.25629 15.0336 5.29324L14.9967 5.25629L15.2156 4.92841C15.4465 4.5996 15.6774 4.25878 15.9083 3.92997C15.9937 3.80852 16.1023 3.71107 16.1762 3.58915C16.4071 3.12734 16.7719 2.7616 17.0508 2.33582C17.1118 2.25085 17.1967 2.17788 17.2697 2.10492C17.3297 2.03103 17.3792 2.05596 17.4276 2.11692C17.7555 2.5307 18.0834 2.95648 18.4113 3.37026C18.6551 3.67505 18.898 3.966 19.1289 4.28277C19.4083 4.67253 19.6757 5.06183 19.9555 5.45114C20.2714 5.90139 20.5873 6.35168 20.8912 6.81346C21.353 7.49555 21.7903 8.17718 22.2521 8.85834C22.5924 9.35708 22.9328 9.84429 23.2607 10.3431H22.64C22.0692 10.3315 21.4855 10.283 20.9147 10.307C20.137 10.344 19.3473 10.429 18.5697 10.4899C17.5851 10.5753 16.5885 10.5869 15.6047 10.5869C15.2514 10.5869 14.8991 10.6363 14.5472 10.6608C14.1214 10.6848 13.7081 10.7093 13.2828 10.7208C12.784 10.7458 12.2991 10.7578 11.8004 10.7702C11.5205 10.7822 11.2291 10.7702 10.9253 10.7702L10.9259 10.7679ZM24.8646 16.3651V16.475C24.8526 16.475 24.8406 16.4875 24.8161 16.4875C24.7676 16.3166 24.7192 16.1337 24.6582 15.9633C24.5367 15.6101 24.4028 15.2568 24.1839 14.9409C23.9401 14.6006 23.7221 14.2482 23.4783 13.8949C23.4183 13.8095 23.3324 13.7365 23.2594 13.664C23.004 13.3837 22.7486 13.0914 22.4208 12.8849C21.9345 12.5802 21.4362 12.3248 20.9014 12.1054C20.7555 12.0454 20.622 11.9715 20.4766 11.8865H20.7675L22.8456 11.8496C23.2954 11.838 23.7332 11.838 24.1825 11.8135C24.2915 11.8135 24.3525 11.8505 24.4134 11.9475C24.5224 12.1299 24.6319 12.3123 24.7533 12.4952C24.7658 12.5192 24.7903 12.5552 24.7903 12.5921C24.7903 12.86 24.7903 13.1399 24.8023 13.4077C24.8138 13.6875 24.8392 13.9554 24.8503 14.2352C24.8503 14.5151 24.8258 14.807 24.8383 15.0988C24.8508 15.5131 24.8628 15.9393 24.8628 16.3642L24.8646 16.3651ZM11.7882 12.2901C12.3594 12.2656 12.9058 12.2291 13.4655 12.2046C13.9019 12.1802 14.3521 12.1677 14.789 12.1437C14.9714 12.1321 15.1418 12.1206 15.3238 12.1437C15.1298 12.2416 14.9349 12.339 14.765 12.4605C14.5461 12.6064 14.3401 12.8008 14.1208 12.9592C13.9014 13.1171 13.707 13.312 13.525 13.5189C13.2941 13.7983 13.0387 14.0417 12.7954 14.3095C12.6245 14.5044 12.4305 14.6868 12.2851 14.8937C12.0786 15.1616 11.8962 15.4525 11.7018 15.7573C11.7628 14.6009 11.8357 13.4575 11.7868 12.2892L11.7882 12.2901ZM19.7242 23.9968C19.3349 24.0938 18.9345 24.2037 18.5328 24.2522C18.1929 24.3011 17.84 24.2891 17.4877 24.2891C17.1709 24.2891 16.867 24.2771 16.5512 24.2522C16.1988 24.2162 15.8464 24.1797 15.5061 24.0213C15.2138 23.8874 14.9103 23.7659 14.6194 23.6195C14.3266 23.4736 14.0352 23.3036 13.8159 23.0358C13.6589 22.8404 13.4395 22.6825 13.2451 22.5121C13.282 22.658 13.3665 22.7799 13.5005 22.8649C13.4395 22.9379 13.3545 22.9019 13.2326 22.7065C13.1966 22.731 13.1601 22.7435 13.1356 22.7555C13.1726 22.67 13.2086 22.5846 13.2451 22.5121C13.1966 22.4151 13.1356 22.3052 13.0871 22.2073C12.9902 22.0494 12.8932 21.8794 12.8078 21.721C12.7833 21.6841 12.7833 21.6481 12.7593 21.6116C12.6983 21.5386 12.6373 21.4652 12.5884 21.3922C12.4914 21.2468 12.4064 21.0888 12.285 20.9424C12.285 20.9794 12.2975 21.0154 12.2975 21.0643C12.285 21.0643 12.273 21.0763 12.273 21.0763L12.0171 20.4557C12.0051 20.4557 12.0051 20.4557 11.9931 20.4677L12.2116 21.2712C12.1996 21.2712 12.1875 21.2828 12.1746 21.2828C12.1391 21.2347 12.1026 21.1858 12.0776 21.1258C12.0536 21.0278 11.9807 21.0278 11.9206 21.0643C11.8837 21.0888 11.8592 21.1738 11.8717 21.2103C11.9571 21.4172 12.0541 21.624 12.1515 21.8309C12.1755 21.9039 12.2 21.9648 12.2365 22.0378C12.249 22.0623 12.2854 22.0863 12.2854 22.1228C12.3344 22.2198 12.3709 22.3167 12.4314 22.4026C12.5408 22.5486 12.6623 22.6945 12.7717 22.8404C12.8802 22.9864 12.9772 23.1452 13.0746 23.2907C13.0867 23.3152 13.1231 23.3152 13.1347 23.3276C13.1961 23.51 13.4025 23.6435 13.5485 23.5705C13.5854 23.8504 13.8888 23.9478 14.0103 24.2157C13.8643 24.1547 13.7554 24.1062 13.6579 24.0573C13.6455 24.0693 13.6455 24.0813 13.633 24.1058C13.7789 24.1787 13.9248 24.2517 14.0578 24.3367C14.1802 24.4106 14.3017 24.4831 14.4111 24.5676C14.557 24.7015 14.7275 24.7754 14.933 24.8234C14.9219 24.7865 14.9099 24.774 14.9099 24.774C15.2498 24.9324 15.6026 25.1028 15.8695 25.2358C14.6055 25.2607 13.2566 25.2852 11.8586 25.3097C11.8586 25.0788 11.8466 24.8594 11.8466 24.6281C11.8466 24.5311 11.8706 24.4457 11.8581 24.3482C11.8212 23.7894 11.8212 23.2288 11.7487 22.6811C11.6762 22.0974 11.6762 21.5252 11.6886 20.9401C11.7002 20.6247 11.6762 20.2963 11.6637 19.9795C11.6637 19.5537 11.6637 19.139 11.6766 18.7142C11.6766 18.6532 11.7011 18.6047 11.7256 18.5433H11.7625C11.7741 18.5683 11.7625 18.6047 11.7856 18.6172C11.8226 18.6541 11.8835 18.7142 11.908 18.7022C11.9805 18.6532 12.0899 18.6052 12.1144 18.5313C12.1744 18.3858 12.1994 18.2274 12.1994 18.0815C12.1994 17.9725 12.2483 17.8996 12.2964 17.8261C12.3213 17.7892 12.3333 17.7532 12.3578 17.7047C12.3093 17.6677 12.2608 17.6437 12.1998 17.5952C12.2488 17.4613 12.2368 17.3029 12.4192 17.2304C12.4432 17.2179 12.4432 17.1565 12.4561 17.1205C12.4677 17.0221 12.4792 16.9127 12.4922 16.8157C12.5162 16.8526 12.5291 16.8642 12.5522 16.8882C12.5651 16.8642 12.5771 16.8512 12.5771 16.8512C12.5771 16.8032 12.5651 16.7058 12.5771 16.7058C12.7231 16.6813 12.6621 16.5234 12.7351 16.4504C12.7466 16.4375 12.7226 16.401 12.7226 16.3765C12.7226 16.3525 12.7226 16.3165 12.7346 16.3165C12.9041 16.2795 12.8801 16.0971 12.9895 16.0117C13.0265 15.9872 13.038 15.9516 13.0865 15.8902C13.1835 16.0602 13.0136 16.1456 13.0015 16.2671C13.2075 16.1456 13.2685 15.8537 13.147 15.7683C13.1955 15.7314 13.244 15.6834 13.2809 15.6344C13.4149 15.4885 13.5599 15.3546 13.6818 15.2086C13.7672 15.0996 13.8157 14.9657 13.9007 14.8563C13.9496 14.7953 14.0466 14.7468 14.1196 14.7099C14.3385 14.5889 14.5444 14.455 14.6784 14.2481C14.7028 14.2236 14.7393 14.1996 14.7753 14.1751C14.8123 14.1506 14.8852 14.1506 14.8973 14.1141C14.9097 14.0901 14.8732 14.0292 14.8488 13.9927C14.8968 13.9682 14.9457 13.9197 15.0427 13.8708C15.0058 13.9437 14.9942 13.9927 14.9698 14.0416L15.0298 14.1017C15.1397 14.0167 15.3096 13.9197 15.4191 13.8468C15.4191 13.8352 15.3581 13.7867 15.3581 13.7867C15.2856 13.8237 15.1762 13.8837 15.0672 13.9327C15.0903 13.8957 15.0903 13.8717 15.1042 13.8597C15.2736 13.7502 15.4436 13.6408 15.626 13.5549C16.0508 13.3609 16.4766 13.1661 16.902 12.9837C16.9749 12.9467 17.0728 12.9716 17.1573 12.9716C17.1934 12.9716 17.2174 12.9716 17.2543 12.9596C17.4483 12.8987 17.6432 12.8377 17.8376 12.7888C17.9221 12.7648 18.0191 12.7528 18.1054 12.7528C18.4689 12.7643 18.8337 12.7643 19.1981 12.7888C19.356 12.8008 19.5019 12.8373 19.6479 12.8858C19.8298 12.9472 20.0242 13.0321 20.1946 13.1167C20.4011 13.2275 20.5955 13.3485 20.7904 13.4824C21.1427 13.7133 21.4706 13.9691 21.823 14.176C22.1633 14.3829 22.4307 14.6628 22.6496 14.9796C22.9175 15.3564 23.2209 15.6972 23.3423 16.1595L23.5243 16.963C23.5612 17.109 23.6462 17.2549 23.6097 17.4248C23.5483 17.7296 23.4998 18.046 23.4513 18.3503C23.4273 18.4727 23.4028 18.5951 23.4153 18.7151C23.4384 19.0938 23.2929 19.4217 23.1475 19.7625C23.0985 19.872 23.0255 19.9819 22.965 20.1033C22.977 20.1153 23.05 20.1523 23.062 20.1523L23.1715 19.9334C23.1839 19.9334 23.1839 19.9334 23.1959 19.9459C23.135 20.1158 23.0865 20.2987 23.0251 20.4691C22.8801 20.8464 22.7341 21.2357 22.5517 21.6005C22.4547 21.8074 22.2839 21.9778 22.1629 22.1732C22.0419 22.3431 21.9445 22.5255 21.823 22.6839C21.7136 22.8178 21.6046 22.9518 21.4582 23.0487C21.1303 23.2921 20.7899 23.5355 20.4376 23.7304C20.2191 23.8643 19.9637 23.9373 19.7208 23.9982L19.7242 23.9968ZM13.2465 23.3503L13.2345 23.3627C13.2091 23.3507 13.1726 23.3387 13.1486 23.3142L12.8567 22.8755C12.8327 22.8395 12.8198 22.803 12.8327 22.7545C12.9666 22.9614 13.1005 23.1563 13.246 23.3503L13.2465 23.3503ZM20.8062 25.0174C21.3525 24.7865 21.8023 24.4586 22.2147 24.0808C22.2761 24.0199 22.3366 23.9594 22.4096 23.91C22.9203 23.5941 23.2962 23.1558 23.6371 22.6691C24.0259 22.1094 24.2813 21.4767 24.5976 20.8805C24.6216 20.8316 24.6456 20.7835 24.6701 20.7466C24.6456 22.1339 24.804 23.4967 24.986 24.872C23.613 24.9205 22.2151 24.969 20.8058 25.0179L20.8062 25.0174ZM33.1286 24.6525C33.1166 24.677 33.0916 24.7015 33.0801 24.7264C33.0676 24.7015 33.0676 24.665 33.0556 24.6156C32.9827 24.8109 32.8247 24.7135 32.7153 24.7135C32.0595 24.726 31.3908 24.726 30.7341 24.726C30.1024 24.726 29.4586 24.726 28.8269 24.7371C28.62 24.7371 28.4011 24.7855 28.1942 24.798C27.6964 24.822 27.1981 24.835 26.6998 24.8465C26.6629 24.8465 26.6268 24.7865 26.5659 24.7375C26.5539 24.762 26.5289 24.7985 26.4929 24.847C26.48 24.823 26.456 24.7989 26.4315 24.7625C26.4195 24.7994 26.407 24.8354 26.3946 24.8594H26.3595C26.335 24.6895 26.2865 24.5316 26.2865 24.3607C26.2865 23.9959 26.3234 23.6311 26.335 23.2653C26.3475 23.0953 26.335 22.9374 26.335 22.7786C26.3839 22.8155 26.4204 22.84 26.4689 22.8755C26.4929 22.828 26.5174 22.7915 26.5419 22.7555C26.5419 22.7555 26.5174 22.7425 26.4929 22.7185C26.516 22.7061 26.5409 22.6816 26.5409 22.6696C26.553 22.6326 26.5779 22.5966 26.5779 22.5726C26.5779 22.4872 26.553 22.4142 26.5409 22.3417C26.553 22.3417 26.565 22.3417 26.5779 22.3288L26.6504 22.6936H26.6873C26.6384 22.6091 26.7963 22.5357 26.6629 22.4387C26.6509 22.4262 26.6749 22.3532 26.6749 22.3168C26.6379 22.2443 26.6148 22.1713 26.5779 22.0739C26.5899 22.0618 26.6264 22.0494 26.6629 22.0369C26.6144 22.0129 26.5779 21.9889 26.5414 21.9769C26.6629 21.867 26.6629 21.806 26.5534 21.6845C26.5784 21.673 26.6024 21.673 26.6024 21.6614C26.6024 21.5515 26.6024 21.4421 26.5784 21.3336C26.5539 21.2107 26.6153 21.0657 26.4324 20.9918C26.4444 21.0288 26.4569 21.0528 26.4809 21.0888C26.4809 21.0888 26.444 21.1013 26.408 21.1257C26.25 20.9794 26.3479 20.784 26.311 20.5656C26.3959 20.5901 26.4569 20.6145 26.5174 20.6395C26.4929 20.5536 26.4324 20.4561 26.3959 20.3467H26.3465V19.5432C26.3465 19.5556 26.4315 19.5556 26.4805 19.5681C26.4805 19.5556 26.492 19.5436 26.492 19.5312C26.455 19.4827 26.4066 19.4342 26.3581 19.3732L26.3825 19.3487C26.2856 19.2277 26.3341 19.0578 26.3341 19.0209V18.1688C26.456 18.2907 26.274 18.4487 26.456 18.5216V18.4002H26.4435C26.4315 18.2178 26.4315 18.0353 26.4195 17.8525H26.3955C26.383 17.8774 26.383 17.8894 26.3705 17.9139H26.3465L26.4195 15.0055C26.541 15.1634 26.6744 15.3103 26.7594 15.4673C27.0392 15.979 27.4036 16.4173 27.744 16.8795C28.0358 17.2813 28.3028 17.7191 28.5706 18.1328C28.8985 18.6316 29.2143 19.1304 29.5427 19.6291C29.7856 20.0068 30.0414 20.3841 30.2954 20.7494C30.5263 21.0773 30.7702 21.3941 31.0131 21.7109C31.219 21.9908 31.4379 22.2706 31.6444 22.5505C31.8877 22.8913 32.1306 23.2316 32.374 23.5604C32.495 23.7304 32.6289 23.9008 32.7619 24.0712C32.8358 24.1682 32.9448 24.2421 33.0178 24.3021C33.0062 24.3021 32.9938 24.3021 32.9698 24.2901C33.0067 24.3386 33.0298 24.3751 33.0547 24.3995C33.1886 24.4725 33.2007 24.5455 33.1277 24.6554L33.1286 24.6525ZM33.7483 21.6111V21.5257C33.7483 21.5497 33.7603 21.5857 33.7483 21.6106V21.6111ZM34.1617 16.2449C34.1492 16.2449 34.0767 16.171 34.0647 16.159C34.0522 16.1959 34.0647 16.2319 34.0402 16.2809C34.0277 16.2449 33.9432 16.2569 33.9432 16.2208C33.9308 16.3908 34.0157 16.5612 34.0033 16.7316C34.0402 16.7071 34.1857 16.6946 34.2222 16.6586C34.2346 16.6706 34.2591 16.6826 34.2711 16.6826C34.0277 16.8655 34.0887 17.0475 34.1981 17.2553C34.2222 17.3033 34.2951 17.4008 34.2222 17.4982C34.1981 17.5227 34.2346 17.5952 34.2466 17.6566H34.2822V17.6797L34.1727 17.7166C34.1487 17.6797 34.0033 17.6076 34.0033 17.5458V18.1674C34.1247 18.2043 34.1247 18.3742 34.1732 18.4597C34.1986 18.4227 34.2101 18.3983 34.2226 18.3627L34.2351 18.3738C34.2226 18.4468 34.2106 18.5197 34.1861 18.5932C34.1621 18.7021 34.1376 18.7996 34.1261 18.909C34.1261 18.921 34.1492 18.946 34.1492 18.9575C34.0162 19.2623 34.0891 19.6022 34.0407 19.9181C34.0037 20.149 34.0407 20.3937 34.0162 20.6366C33.9913 20.8435 33.9423 21.0624 33.8943 21.2693C33.8818 21.3062 33.8573 21.3178 33.7973 21.3423C33.8213 21.1963 33.8093 21.0989 33.7848 20.965C33.7719 20.965 33.614 20.88 33.6015 20.88C33.6015 21.0509 33.6985 21.2818 33.7354 21.4757C33.6985 21.4637 33.553 21.3788 33.5415 21.3788C33.5165 21.5247 33.5165 21.7196 33.5045 21.8775C33.4921 21.9994 33.3831 22.1084 33.3706 22.2423C33.3706 22.3162 33.4556 22.3643 33.4436 22.4862H33.5405C33.5405 22.2433 33.6505 22.0244 33.6505 21.7685H33.6865C33.6989 21.793 33.7354 21.8175 33.7234 21.8295C33.6989 21.9634 33.6495 22.1093 33.6625 22.2433C33.6625 22.3162 33.7225 22.3892 33.6994 22.4742C33.6745 22.5481 33.6625 22.6206 33.65 22.73C33.6375 22.6691 33.6255 22.645 33.6255 22.6086C33.6135 22.6086 33.5041 22.5961 33.4916 22.5961C33.4796 22.6691 33.577 22.742 33.5646 22.803C33.5526 22.815 33.5405 22.815 33.5161 22.8275L33.1152 22.2428C32.7984 21.781 32.4826 21.3178 32.1667 20.8435C32.0813 20.7216 32.0083 20.6002 31.9473 20.4787C31.571 19.8331 31.1576 19.2124 30.6958 18.6162C30.3439 18.1664 30.0632 17.6788 29.7353 17.2054C29.4323 16.7552 29.1284 16.3169 28.8246 15.8662C28.7151 15.7207 28.5817 15.5868 28.4842 15.4284C28.1688 14.9297 27.8885 14.4184 27.5736 13.9197C27.3057 13.5055 27.0148 13.1037 26.7349 12.7024C26.6379 12.5684 26.541 12.4221 26.4431 12.2761C26.4311 12.253 26.4191 12.2286 26.4191 12.1921C26.3946 11.9242 26.3701 11.6564 26.3581 11.401C26.3581 11.1576 26.3826 10.9143 26.3826 10.6584V10.4395C26.3826 10.3786 26.3941 10.3301 26.3941 10.2687C26.4057 10.2571 26.4181 10.2326 26.4301 10.2206C26.0778 10.2206 25.713 10.2077 25.3606 10.2206C25.1297 10.2322 25.0083 10.1347 24.8503 9.96433C24.3885 9.4411 24.0481 8.8449 23.6473 8.28522C23.2704 7.74952 22.8816 7.22583 22.4928 6.70259C22.1764 6.27681 21.8601 5.86303 21.5447 5.43725C21.1919 4.95052 20.852 4.46376 20.4872 3.97703C20.0494 3.39329 19.5996 2.80866 19.1502 2.22492C18.9424 1.95708 18.7115 1.70169 18.4806 1.42139C18.639 1.44633 18.7854 1.47034 18.9309 1.48281L19.5146 1.51976C19.9519 1.55532 20.3893 1.57979 20.8261 1.63983C21.191 1.68924 21.5558 1.7622 21.9326 1.8227C22.7352 1.95662 23.5249 2.17598 24.2906 2.43135C24.7404 2.57729 25.1773 2.77217 25.616 2.95459C26.5996 3.35636 27.5357 3.84312 28.4594 4.35387C28.7503 4.51227 28.9212 4.76764 29.1392 4.999C29.4555 5.32781 29.7719 5.65614 30.0753 5.99651C30.4272 6.39827 30.7551 6.81205 31.0959 7.22582C31.3993 7.59066 31.7147 7.95547 32.0195 8.32124C32.1165 8.43068 32.1904 8.56461 32.2744 8.68607C32.4684 8.9784 32.6877 9.25873 32.8577 9.5746C32.9787 9.80642 33.0516 10.0743 33.1366 10.3296C33.2576 10.7069 33.3795 11.0718 33.5014 11.4491C33.586 11.7289 33.6585 12.0217 33.7194 12.3127C33.7684 12.508 33.7564 12.7144 33.8164 12.9084C33.8903 13.1652 33.8164 13.4441 33.8903 13.7004C33.9018 13.7249 33.9134 13.7614 33.9263 13.7858C33.9748 13.8339 34.0113 13.8828 33.9383 13.9558C33.9268 13.9678 33.9268 14.0158 33.9383 14.0528C33.9632 14.0287 33.9753 14.0043 33.9997 13.9678C33.9997 13.9923 34.0113 14.0047 34.0113 14.0163C34.0113 14.0643 33.9988 14.1133 34.0113 14.1617C34.0113 14.1858 34.0353 14.2218 34.0473 14.2467C34.0718 14.2218 34.0958 14.2098 34.1443 14.1728C34.2537 14.5871 34.2662 15.0008 34.2662 15.4266C34.2662 15.8284 34.3387 16.2302 34.1692 16.6195C34.2052 16.4855 34.1203 16.3632 34.1568 16.2417L34.1617 16.2449Z" fill="#DD3A0A"/>
<path d="M29.3439 14.1829C29.3555 14.1829 29.368 14.1954 29.368 14.1954L29.3555 14.1815C29.3555 14.17 29.3555 14.17 29.3435 14.1815L29.3439 14.1829ZM31.2637 26.2066C31.1298 26.3036 30.9958 26.389 30.8259 26.4255C30.813 26.4135 30.813 26.401 30.801 26.3886C30.9349 26.3036 31.0804 26.2186 31.2143 26.1332C31.2267 26.1563 31.2512 26.1812 31.2632 26.2057L31.2637 26.2066ZM8.47736 9.71635C8.61128 9.54687 8.74521 9.37646 8.89021 9.20605C8.90175 9.21806 8.99873 9.243 9.0112 9.25454C8.87728 9.42541 8.69485 9.65631 8.5614 9.83873C8.53646 9.81425 8.49998 9.72928 8.47596 9.71681L8.47736 9.71635ZM5.0253 15.6805C4.92832 15.4737 4.83134 15.2543 4.73438 15.0479C4.74638 15.0354 4.83136 14.9989 4.84336 14.9989C4.97729 15.1929 5.03732 15.4238 5.13522 15.6316C5.13522 15.6316 5.03823 15.6801 5.02577 15.6801L5.0253 15.6805ZM8.12496 9.8387C8.05199 9.94861 7.97903 10.0705 7.90606 10.1804C7.89405 10.1675 7.76013 10.2285 7.74812 10.2165C7.82109 10.107 8.00304 9.91167 8.076 9.80269C8.08847 9.8147 8.10048 9.82717 8.12495 9.83963L8.12496 9.8387ZM29.9637 26.7061C29.9753 26.7061 29.9753 26.6941 29.9878 26.6941C30.0727 26.7061 30.1697 26.7181 30.2671 26.7181C30.1083 26.8276 30.0108 26.8151 29.9624 26.7061L29.9637 26.7061ZM8.14802 10.3497C8.16095 10.3128 8.18496 10.2768 8.20944 10.2403C8.23345 10.2403 8.26947 10.2278 8.26947 10.2278C8.31889 10.1428 8.31889 10.0819 8.36738 10.0089C8.35537 9.9969 8.3429 9.9969 8.33043 9.98444C8.25793 10.0343 8.18496 10.0953 8.112 10.1438C8.13647 10.1678 8.13647 10.1807 8.13647 10.2047C8.03949 10.1922 8.00255 10.2417 7.95406 10.3747C7.94205 10.4116 7.88109 10.4236 7.82013 10.4716C7.80813 10.4966 7.79612 10.5575 7.77164 10.618L7.78411 10.631C7.75964 10.6554 7.72316 10.6679 7.72316 10.6679C7.65019 10.7404 7.56522 10.8018 7.49225 10.8743C7.48024 10.9113 7.46824 10.9473 7.46824 10.9838C7.55368 10.8988 7.69914 10.7404 7.80858 10.643L7.82105 10.6554C7.86954 10.5825 7.90602 10.5095 7.95497 10.4365C7.96652 10.4485 7.96652 10.4606 7.97898 10.4735C7.94204 10.5705 7.90602 10.6794 7.86954 10.7769C7.84414 10.7889 7.80766 10.8138 7.80766 10.8014C7.75917 10.8383 7.72268 10.8863 7.67373 10.9228L7.4553 11.0688C7.33384 11.1782 7.21239 11.2752 7.07845 11.3851C6.99348 11.519 6.9085 11.6405 6.8106 11.7989C6.957 11.7619 6.99348 11.8234 6.98147 11.9453C7.15141 11.9693 7.16388 11.8358 7.21237 11.7384C7.22438 11.7134 7.23685 11.6645 7.26086 11.6525C7.37031 11.5555 7.49177 11.4705 7.61321 11.3731C7.63769 11.3486 7.63769 11.2992 7.63769 11.2632C7.63769 11.2512 7.57627 11.2512 7.53979 11.2387C7.64924 11.1168 7.80764 10.9108 7.91663 10.7769C7.97759 10.74 8.03809 10.691 8.03809 10.6545C8.02608 10.5206 8.11105 10.4846 8.20896 10.4356C8.16001 10.3987 8.14754 10.3631 8.14754 10.3511L8.14802 10.3497Z" fill="#DD3735"/>
<path d="M8.39905 15.2068C8.35056 15.2918 8.30207 15.3647 8.25358 15.4502L8.18061 15.4132C8.13212 15.6926 7.96172 15.936 7.79179 15.9845C7.84028 16.009 7.88877 16.0334 7.92571 16.0214C7.96173 16.009 7.98575 15.9475 8.01022 15.9115L8.3381 15.4368L8.44801 15.2539L8.39952 15.2054L8.39905 15.2068ZM4.3527 20.5489C4.41366 20.5489 4.47462 20.5609 4.54666 20.5609C4.54666 20.5124 4.60808 20.5239 4.60808 20.4759H4.64503C4.64503 20.5369 4.65703 20.5853 4.65703 20.6468H4.40212C4.38965 20.6343 4.34116 20.5609 4.35316 20.5489H4.3527ZM4.25572 19.9891C4.21878 19.9522 4.15875 19.9162 4.15875 19.8797C4.14628 19.8317 4.18276 19.7712 4.21878 19.7102C4.24372 19.7952 4.25573 19.8682 4.27974 19.9536C4.26727 19.9651 4.25526 19.9776 4.25526 19.9896L4.25572 19.9891ZM4.55959 19.2101C4.60808 19.3329 4.65657 19.4669 4.70551 19.5888C4.69351 19.5888 4.62054 19.6257 4.60853 19.6373C4.56004 19.5153 4.49909 19.3814 4.4506 19.26C4.4626 19.2479 4.53557 19.211 4.56004 19.211L4.55959 19.2101ZM31.6122 30.8448C31.6722 30.8208 31.7452 30.8079 31.8431 30.7848C31.7332 30.8693 31.6482 30.9303 31.5752 31.0032C31.5628 30.9912 31.5508 30.9788 31.5383 30.9788C31.5628 30.9303 31.5872 30.8938 31.6122 30.8448ZM16.6747 5.13099C16.7472 5.08204 16.8086 5.04556 16.8811 4.99707L16.9051 5.02108C16.8313 5.11806 16.7712 5.21504 16.6858 5.33743C16.6738 5.25292 16.6738 5.20351 16.6613 5.14347C16.6493 5.14347 16.6613 5.14348 16.6738 5.13147L16.6747 5.13099ZM20.2353 11.2881C20.3448 11.2392 20.4542 11.1911 20.5877 11.1297C20.5757 11.2027 20.5757 11.2516 20.5757 11.3006C20.5387 11.2881 20.4902 11.2756 20.4538 11.2756C20.3808 11.2881 20.2469 11.3856 20.1859 11.3976C20.1744 11.3976 20.2349 11.3006 20.2349 11.2881L20.2353 11.2881ZM29.3515 21.6077C29.3755 21.7292 29.6064 21.7902 29.3755 21.9116C29.4125 21.937 29.448 21.9485 29.4845 21.9735C29.4845 21.986 29.4725 22.0104 29.4605 22.0224C29.436 22.034 29.3875 22.0585 29.3635 22.0455C29.351 22.0455 29.3266 21.9975 29.3266 21.973C29.3266 21.8636 29.339 21.7541 29.351 21.6082L29.3515 21.6077Z" fill="#DD3735"/>
</g>
<defs>
<clipPath id="clip0_6926_1990">
<rect width="36" height="36" fill="white" transform="translate(0 0.000244141)"/>
</clipPath>
</defs>
</svg>
