<svg width="36" height="36" viewBox="0 0 36 36" fill="none" xmlns="http://www.w3.org/2000/svg">
<path d="M26.5714 6.85718H28.2857C28.7657 6.85718 29.1429 7.23432 29.1429 7.71432C29.1429 8.19432 28.7657 8.57146 28.2857 8.57146H26.5714C26.0914 8.57146 25.7143 8.19432 25.7143 7.71432C25.7143 7.23432 26.0914 6.85718 26.5714 6.85718Z" fill="#56B3B4"/>
<path d="M0.857112 34.2856H9.42854C9.90854 34.2856 10.2857 34.6628 10.2857 35.1428C10.2857 35.6228 9.90854 35.9999 9.42854 35.9999H0.857112C0.377112 35.9999 -3.05176e-05 35.6228 -3.05176e-05 35.1428C-3.05176e-05 34.6628 0.377112 34.2856 0.857112 34.2856Z" fill="#EA5E5E"/>
<path d="M21.4286 20.5715H26.5714C27.0514 20.5715 27.4286 20.9487 27.4286 21.4287C27.4286 21.9087 27.0514 22.2858 26.5714 22.2858H21.4286C20.9486 22.2858 20.5714 21.9087 20.5714 21.4287C20.5714 20.9487 20.9486 20.5715 21.4286 20.5715Z" fill="#BF85BF"/>
<path d="M11.1428 20.5715H18C18.48 20.5715 18.8571 20.9487 18.8571 21.4287C18.8571 21.9087 18.48 22.2858 18 22.2858H11.1428C10.6628 22.2858 10.2857 21.9087 10.2857 21.4287C10.2857 20.9487 10.6628 20.5715 11.1428 20.5715Z" fill="#EA5E5E"/>
<path d="M0.857112 20.5715H7.71425C8.19425 20.5715 8.5714 20.9487 8.5714 21.4287C8.5714 21.9087 8.19425 22.2858 7.71425 22.2858H0.857112C0.377112 22.2858 -3.05176e-05 21.9087 -3.05176e-05 21.4287C-3.05176e-05 20.9487 0.377112 20.5715 0.857112 20.5715Z" fill="#56B3B4"/>
<path d="M0.857112 27.4285H9.42854C9.90854 27.4285 10.2857 27.8056 10.2857 28.2856C10.2857 28.7656 9.90854 29.1428 9.42854 29.1428H0.857112C0.377112 29.1428 -3.05176e-05 28.7656 -3.05176e-05 28.2856C-3.05176e-05 27.8056 0.377112 27.4285 0.857112 27.4285Z" fill="#BF85BF"/>
<path d="M0.857112 13.7144H9.42854C9.90854 13.7144 10.2857 14.0915 10.2857 14.5715C10.2857 15.0515 9.90854 15.4286 9.42854 15.4286H0.857112C0.377112 15.4286 -3.05176e-05 15.0515 -3.05176e-05 14.5715C-3.05176e-05 14.0915 0.377112 13.7144 0.857112 13.7144Z" fill="#BF85BF"/>
<path d="M9.42858 3.42847H26.5714C27.0514 3.42847 27.4286 3.80561 27.4286 4.28561C27.4286 4.76561 27.0514 5.14275 26.5714 5.14275H9.42858C8.94858 5.14275 8.57144 4.76561 8.57144 4.28561C8.57144 3.80561 8.94858 3.42847 9.42858 3.42847Z" fill="#F7BA3E"/>
<path d="M0.857112 3.42847H5.99997C6.47997 3.42847 6.85711 3.80561 6.85711 4.28561C6.85711 4.76561 6.47997 5.14275 5.99997 5.14275H0.857112C0.377112 5.14275 -3.05176e-05 4.76561 -3.05176e-05 4.28561C-3.05176e-05 3.80561 0.377112 3.42847 0.857112 3.42847Z" fill="#EA5E5E"/>
<path d="M7.71429 30.8572H9.42858C9.90858 30.8572 10.2857 31.2343 10.2857 31.7143C10.2857 32.1943 9.90858 32.5715 9.42858 32.5715H7.71429C7.23429 32.5715 6.85715 32.1943 6.85715 31.7143C6.85715 31.2343 7.23429 30.8572 7.71429 30.8572Z" fill="#F7BA3E"/>
<path d="M7.71429 10.2856H9.42858C9.90858 10.2856 10.2857 10.6628 10.2857 11.1428C10.2857 11.6228 9.90858 11.9999 9.42858 11.9999H7.71429C7.23429 11.9999 6.85715 11.6228 6.85715 11.1428C6.85715 10.6628 7.23429 10.2856 7.71429 10.2856Z" fill="#56B3B4"/>
<path d="M0.857112 30.8572H4.28568C4.76568 30.8572 5.14283 31.2343 5.14283 31.7143C5.14283 32.1943 4.76568 32.5715 4.28568 32.5715H0.857112C0.377112 32.5715 -3.05176e-05 32.1943 -3.05176e-05 31.7143C-3.05176e-05 31.2343 0.377112 30.8572 0.857112 30.8572Z" fill="#56B3B4"/>
<path d="M0.857112 10.2856H4.28568C4.76568 10.2856 5.14283 10.6628 5.14283 11.1428C5.14283 11.6228 4.76568 11.9999 4.28568 11.9999H0.857112C0.377112 11.9999 -3.05176e-05 11.6228 -3.05176e-05 11.1428C-3.05176e-05 10.6628 0.377112 10.2856 0.857112 10.2856Z" fill="#F7BA3E"/>
<path opacity="0.5" d="M23.1428 30.8572H24.8571C25.3371 30.8572 25.7143 31.2343 25.7143 31.7143C25.7143 32.1943 25.3371 32.5715 24.8571 32.5715H23.1428C22.6628 32.5715 22.2857 32.1943 22.2857 31.7143C22.2857 31.2343 22.6628 30.8572 23.1428 30.8572Z" fill="#4D616E"/>
<path opacity="0.5" d="M12.8571 30.8572H19.7143C20.1943 30.8572 20.5714 31.2343 20.5714 31.7143C20.5714 32.1943 20.1943 32.5715 19.7143 32.5715H12.8571C12.3771 32.5715 12 32.1943 12 31.7143C12 31.2343 12.3771 30.8572 12.8571 30.8572Z" fill="#4D616E"/>
<path opacity="0.5" d="M28.2857 30.8572H35.1428C35.6228 30.8572 36 31.2343 36 31.7143C36 32.1943 35.6228 32.5715 35.1428 32.5715H28.2857C27.8057 32.5715 27.4286 32.1943 27.4286 31.7143C27.4286 31.2343 27.8057 30.8572 28.2857 30.8572Z" fill="#4D616E"/>
<path d="M14.5714 17.1428H28.2857C28.7657 17.1428 29.1429 17.52 29.1429 18C29.1429 18.48 28.7657 18.8571 28.2857 18.8571H14.5714C14.0914 18.8571 13.7143 18.48 13.7143 18C13.7143 17.52 14.0914 17.1428 14.5714 17.1428Z" fill="#56B3B4"/>
<path d="M6 17.1428H11.1429C11.6229 17.1428 12 17.52 12 18C12 18.48 11.6229 18.8571 11.1429 18.8571H6C5.52 18.8571 5.14285 18.48 5.14285 18C5.14285 17.52 5.52 17.1428 6 17.1428Z" fill="#F7BA3E"/>
<path d="M0.857112 17.1428H2.5714C3.0514 17.1428 3.42854 17.52 3.42854 18C3.42854 18.48 3.0514 18.8571 2.5714 18.8571H0.857112C0.377112 18.8571 -3.05176e-05 18.48 -3.05176e-05 18C-3.05176e-05 17.52 0.377112 17.1428 0.857112 17.1428Z" fill="#EA5E5E"/>
<path d="M16.2857 6.85718H23.1428C23.6228 6.85718 24 7.23432 24 7.71432C24 8.19432 23.6228 8.57146 23.1428 8.57146H16.2857C15.8057 8.57146 15.4286 8.19432 15.4286 7.71432C15.4286 7.23432 15.8057 6.85718 16.2857 6.85718Z" fill="#BF85BF"/>
<path d="M0.857112 6.85718H12.8571C13.3371 6.85718 13.7143 7.23432 13.7143 7.71432C13.7143 8.19432 13.3371 8.57146 12.8571 8.57146H0.857112C0.377112 8.57146 -3.05176e-05 8.19432 -3.05176e-05 7.71432C-3.05176e-05 7.23432 0.377112 6.85718 0.857112 6.85718Z" fill="#56B3B4"/>
<path d="M6 24H21.4286C21.9086 24 22.2857 24.3771 22.2857 24.8571C22.2857 25.3371 21.9086 25.7143 21.4286 25.7143H6C5.52 25.7143 5.14285 25.3371 5.14285 24.8571C5.14285 24.3771 5.52 24 6 24Z" fill="#F7BA3E"/>
<path d="M0.857112 24H2.5714C3.0514 24 3.42854 24.3771 3.42854 24.8571C3.42854 25.3371 3.0514 25.7143 2.5714 25.7143H0.857112C0.377112 25.7143 -3.05176e-05 25.3371 -3.05176e-05 24.8571C-3.05176e-05 24.3771 0.377112 24 0.857112 24Z" fill="#BF85BF"/>
<path d="M21.4286 10.2856H30C30.48 10.2856 30.8572 10.6628 30.8572 11.1428C30.8572 11.6228 30.48 11.9999 30 11.9999H21.4286C20.9486 11.9999 20.5714 11.6228 20.5714 11.1428C20.5714 10.6628 20.9486 10.2856 21.4286 10.2856Z" fill="#EA5E5E"/>
<path d="M21.4286 13.7144H30C30.48 13.7144 30.8572 14.0915 30.8572 14.5715C30.8572 15.0515 30.48 15.4286 30 15.4286H21.4286C20.9486 15.4286 20.5714 15.0515 20.5714 14.5715C20.5714 14.0915 20.9486 13.7144 21.4286 13.7144Z" fill="#F7BA3E"/>
<path d="M0.857143 0H21.4286C21.9086 0 22.2857 0.377143 22.2857 0.857143C22.2857 1.33714 21.9086 1.71429 21.4286 1.71429H0.857143C0.377143 1.71429 0 1.33714 0 0.857143C0 0.377143 0.377143 0 0.857143 0Z" fill="#56B3B4"/>
<path opacity="0.5" d="M24.8571 0H35.1429C35.6229 0 36 0.377143 36 0.857143C36 1.33714 35.6229 1.71429 35.1429 1.71429H24.8571C24.3771 1.71429 24 1.33714 24 0.857143C24 0.377143 24.3771 0 24.8571 0Z" fill="#4D616E"/>
<path opacity="0.5" d="M24.8571 24H28.2857C28.7657 24 29.1429 24.3771 29.1429 24.8571C29.1429 25.3371 28.7657 25.7143 28.2857 25.7143H24.8571C24.3771 25.7143 24 25.3371 24 24.8571C24 24.3771 24.3771 24 24.8571 24Z" fill="#4D616E"/>
<path opacity="0.5" d="M31.7143 24H35.1429C35.6229 24 36 24.3771 36 24.8571C36 25.3371 35.6229 25.7143 35.1429 25.7143H31.7143C31.2343 25.7143 30.8571 25.3371 30.8571 24.8571C30.8571 24.3771 31.2343 24 31.7143 24Z" fill="#4D616E"/>
<path opacity="0.5" d="M30 20.5715H35.1429C35.6229 20.5715 36 20.9487 36 21.4287C36 21.9087 35.6229 22.2858 35.1429 22.2858H30C29.52 22.2858 29.1429 21.9087 29.1429 21.4287C29.1429 20.9487 29.52 20.5715 30 20.5715Z" fill="#4D616E"/>
<path opacity="0.5" d="M30 3.42847H35.1429C35.6229 3.42847 36 3.80561 36 4.28561C36 4.76561 35.6229 5.14275 35.1429 5.14275H30C29.52 5.14275 29.1429 4.76561 29.1429 4.28561C29.1429 3.80561 29.52 3.42847 30 3.42847Z" fill="#4D616E"/>
<path opacity="0.5" d="M31.7143 17.1428H35.1429C35.6229 17.1428 36 17.52 36 18C36 18.48 35.6229 18.8571 35.1429 18.8571H31.7143C31.2343 18.8571 30.8571 18.48 30.8571 18C30.8571 17.52 31.2343 17.1428 31.7143 17.1428Z" fill="#4D616E"/>
<path opacity="0.5" d="M31.7143 6.85718H35.1429C35.6229 6.85718 36 7.23432 36 7.71432C36 8.19432 35.6229 8.57146 35.1429 8.57146H31.7143C31.2343 8.57146 30.8571 8.19432 30.8571 7.71432C30.8571 7.23432 31.2343 6.85718 31.7143 6.85718Z" fill="#4D616E"/>
<path opacity="0.5" d="M33.4286 10.2856H35.1429C35.6229 10.2856 36 10.6628 36 11.1428C36 11.6228 35.6229 11.9999 35.1429 11.9999H33.4286C32.9486 11.9999 32.5714 11.6228 32.5714 11.1428C32.5714 10.6628 32.9486 10.2856 33.4286 10.2856Z" fill="#4D616E"/>
<path opacity="0.5" d="M33.4286 13.7144H35.1429C35.6229 13.7144 36 14.0915 36 14.5715C36 15.0515 35.6229 15.4286 35.1429 15.4286H33.4286C32.9486 15.4286 32.5714 15.0515 32.5714 14.5715C32.5714 14.0915 32.9486 13.7144 33.4286 13.7144Z" fill="#4D616E"/>
<path opacity="0.5" d="M19.7143 27.4285H35.1429C35.6229 27.4285 36 27.8056 36 28.2856C36 28.7656 35.6229 29.1428 35.1429 29.1428H19.7143C19.2343 29.1428 18.8571 28.7656 18.8571 28.2856C18.8571 27.8056 19.2343 27.4285 19.7143 27.4285Z" fill="#4D616E"/>
<path opacity="0.5" d="M12.8571 27.4285H16.2857C16.7657 27.4285 17.1429 27.8056 17.1429 28.2856C17.1429 28.7656 16.7657 29.1428 16.2857 29.1428H12.8571C12.3771 29.1428 12 28.7656 12 28.2856C12 27.8056 12.3771 27.4285 12.8571 27.4285Z" fill="#4D616E"/>
<path opacity="0.5" d="M26.5714 34.2856H35.1429C35.6229 34.2856 36 34.6628 36 35.1428C36 35.6228 35.6229 35.9999 35.1429 35.9999H26.5714C26.0914 35.9999 25.7143 35.6228 25.7143 35.1428C25.7143 34.6628 26.0914 34.2856 26.5714 34.2856Z" fill="#4D616E"/>
<path opacity="0.5" d="M12.8571 34.2856H23.1429C23.6229 34.2856 24 34.6628 24 35.1428C24 35.6228 23.6229 35.9999 23.1429 35.9999H12.8571C12.3771 35.9999 12 35.6228 12 35.1428C12 34.6628 12.3771 34.2856 12.8571 34.2856Z" fill="#4D616E"/>
<path opacity="0.5" d="M12.8571 10.2856H18C18.48 10.2856 18.8571 10.6628 18.8571 11.1428C18.8571 11.6228 18.48 11.9999 18 11.9999H12.8571C12.3771 11.9999 12 11.6228 12 11.1428C12 10.6628 12.3771 10.2856 12.8571 10.2856Z" fill="#4D616E"/>
<path opacity="0.5" d="M12.8571 13.7144H18C18.48 13.7144 18.8571 14.0915 18.8571 14.5715C18.8571 15.0515 18.48 15.4286 18 15.4286H12.8571C12.3771 15.4286 12 15.0515 12 14.5715C12 14.0915 12.3771 13.7144 12.8571 13.7144Z" fill="#4D616E"/>
</svg>
