<svg width="36" height="32" viewBox="0 0 36 32" fill="none" xmlns="http://www.w3.org/2000/svg">
<path d="M18 19.2062C19.7708 19.2062 21.2062 17.7707 21.2062 16C21.2062 14.2292 19.7708 12.7937 18 12.7937C16.2292 12.7937 14.7937 14.2292 14.7937 16C14.7937 17.7707 16.2292 19.2062 18 19.2062Z" fill="#61DAFB"/>
<path d="M30.1781 10.7125C29.5594 10.4875 28.9125 10.2625 28.2375 10.0656C28.4062 9.39058 28.5469 8.71558 28.6594 8.0687C29.25 4.3562 28.6031 1.74058 26.8031 0.728076C26.2687 0.418701 25.6781 0.278076 25.0031 0.278076C23.0344 0.278076 20.5312 1.74058 18 4.18745C15.4687 1.74058 12.9656 0.278076 10.9969 0.278076C10.3219 0.278076 9.73124 0.418701 9.19686 0.728076C7.39686 1.7687 6.74999 4.38433 7.34061 8.0687C7.45311 8.71558 7.59374 9.39058 7.76249 10.0656C7.08749 10.2625 6.44061 10.4593 5.82186 10.7125C2.30624 12.0625 0.393738 13.9187 0.393738 16C0.393738 18.0812 2.33436 19.9375 5.82186 21.2875C6.44061 21.5125 7.08749 21.7375 7.76249 21.9343C7.59374 22.6093 7.45311 23.2843 7.34061 23.9312C6.74999 27.6437 7.39686 30.2593 9.19686 31.2718C9.73124 31.5812 10.3219 31.7218 10.9969 31.7218C12.9937 31.7218 15.4969 30.2593 18 27.8125C20.5312 30.2593 23.0344 31.7218 25.0031 31.7218C25.6781 31.7218 26.2687 31.5812 26.8031 31.2718C28.6031 30.2312 29.25 27.6156 28.6594 23.9312C28.5469 23.2843 28.4062 22.6093 28.2375 21.9343C28.9125 21.7375 29.5594 21.5406 30.1781 21.2875C33.6937 19.9375 35.6062 18.0812 35.6062 16C35.6062 13.9187 33.6937 12.0625 30.1781 10.7125V10.7125ZM26.0156 2.13433C27.1687 2.80933 27.5625 4.89058 27.0844 7.8437C27 8.43433 26.8594 9.05308 26.6906 9.69995C25.2281 9.36245 23.6812 9.13745 22.05 8.99683C21.0937 7.64683 20.1094 6.43745 19.125 5.34058C21.2062 3.28745 23.3156 1.8812 25.0312 1.8812C25.3969 1.8812 25.7344 1.96558 26.0156 2.13433V2.13433ZM22.8656 18.8125C22.3594 19.7125 21.7687 20.6125 21.15 21.5125C20.1094 21.5968 19.0687 21.625 18 21.625C16.9031 21.625 15.8625 21.5968 14.85 21.5125C14.2312 20.6125 13.6687 19.7125 13.1625 18.8125C12.6281 17.8843 12.1219 16.9281 11.6719 16C12.1219 15.0718 12.6281 14.1156 13.1625 13.1875C13.6687 12.2875 14.2594 11.3875 14.8781 10.4875C15.9187 10.4031 16.9594 10.375 18.0281 10.375C19.125 10.375 20.1656 10.4031 21.1781 10.4875C21.7969 11.3875 22.3594 12.2875 22.8656 13.1875C23.4 14.1156 23.9062 15.0718 24.3562 16C23.8781 16.9281 23.4 17.8562 22.8656 18.8125ZM25.2 17.8843C25.6219 18.8687 25.9594 19.825 26.2687 20.7812C25.3125 21.0062 24.3 21.175 23.2312 21.3156C23.5687 20.7812 23.9344 20.2187 24.2437 19.6281C24.5812 19.0375 24.8906 18.4468 25.2 17.8843ZM18 25.5062C17.325 24.775 16.6781 23.9875 16.0594 23.1718C16.7062 23.2 17.3531 23.2281 18 23.2281C18.6469 23.2281 19.2937 23.2 19.9406 23.1718C19.3219 23.9875 18.675 24.775 18 25.5062ZM12.7687 21.2875C11.7 21.1468 10.6875 20.9781 9.73124 20.7531C10.0406 19.825 10.3781 18.8406 10.8 17.8562C11.1094 18.4187 11.4187 19.0093 11.7562 19.5718C12.0937 20.1906 12.4312 20.725 12.7687 21.2875V21.2875ZM10.8 14.1156C10.3781 13.1312 10.0406 12.175 9.73124 11.2187C10.6875 10.9937 11.7 10.825 12.7687 10.6843C12.4312 11.2187 12.0656 11.7812 11.7562 12.3718C11.4187 12.9625 11.1094 13.5531 10.8 14.1156V14.1156ZM18 6.4937C18.675 7.22495 19.3219 8.01245 19.9406 8.82808C19.2937 8.79995 18.6469 8.77183 18 8.77183C17.3531 8.77183 16.7062 8.79995 16.0594 8.82808C16.6781 8.01245 17.325 7.22495 18 6.4937ZM24.2437 12.4L23.2312 10.7125C24.3 10.8531 25.3125 11.0218 26.2687 11.2468C25.9594 12.175 25.6219 13.1593 25.2 14.1437C24.8906 13.5531 24.5812 12.9625 24.2437 12.4ZM8.91561 7.8437C8.43749 4.89058 8.83124 2.80933 9.98436 2.13433C10.2656 1.96558 10.6031 1.8812 10.9687 1.8812C12.6562 1.8812 14.7656 3.25933 16.875 5.34058C15.8906 6.40933 14.9062 7.64683 13.95 8.99683C12.3187 9.13745 10.7719 9.39058 9.30936 9.69995C9.14061 9.05308 9.02811 8.43433 8.91561 7.8437V7.8437ZM1.96874 16C1.96874 14.6781 3.57186 13.2718 6.38436 12.2312C6.94686 12.0062 7.56561 11.8093 8.18436 11.6406C8.63436 13.0468 9.19686 14.5375 9.87186 16.0281C9.19686 17.5187 8.60624 18.9812 8.18436 20.3875C4.30311 19.2625 1.96874 17.575 1.96874 16ZM9.98436 29.8656C8.83124 29.1906 8.43749 27.1093 8.91561 24.1562C8.99999 23.5656 9.14061 22.9468 9.30936 22.3C10.7719 22.6375 12.3187 22.8625 13.95 23.0031C14.9062 24.3531 15.8906 25.5625 16.875 26.6593C14.7937 28.7125 12.6844 30.1187 10.9687 30.1187C10.6031 30.1187 10.2656 30.0343 9.98436 29.8656ZM27.0844 24.1562C27.5625 27.1093 27.1687 29.1906 26.0156 29.8656C25.7344 30.0343 25.3969 30.1187 25.0312 30.1187C23.3437 30.1187 21.2344 28.7406 19.125 26.6593C20.1094 25.5906 21.0937 24.3531 22.05 23.0031C23.6812 22.8625 25.2281 22.6093 26.6906 22.3C26.8594 22.9468 26.9719 23.5656 27.0844 24.1562V24.1562ZM29.6156 19.7687C29.0531 19.9937 28.4344 20.1906 27.8156 20.3593C27.3656 18.9531 26.8031 17.4625 26.1281 15.9718C26.8031 14.4812 27.3937 13.0187 27.8156 11.6125C31.6969 12.7375 34.0312 14.425 34.0312 16C34.0312 17.3218 32.4 18.7281 29.6156 19.7687Z" fill="#61DAFB"/>
</svg>
