<svg width="36" height="35" viewBox="0 0 36 35" fill="none" xmlns="http://www.w3.org/2000/svg">
<path d="M24.9433 23.8697C22.412 29.0447 17.9795 32.5266 12.1155 33.6713C11.2164 33.8915 10.2933 33.9992 9.36766 33.9919C5.99266 33.9919 2.89891 32.5856 1.39704 30.2822C-0.619523 27.2138 -1.30577 20.7084 5.34298 15.8962C5.47798 16.6303 5.7536 17.6372 5.93641 18.2334C4.63123 19.2031 3.56288 20.4561 2.81173 21.8981C1.57423 24.3281 1.71204 26.7553 3.17735 28.9997C4.18985 30.5128 5.79298 31.4325 7.85454 31.7138C10.4295 32.0397 13.0417 31.5477 15.3217 30.3075C18.8964 28.4288 21.2786 26.1844 22.8367 23.1159C22.3961 22.6606 22.1354 22.0612 22.1027 21.4284C22.0791 20.7495 22.3259 20.0889 22.7889 19.5916C23.2518 19.0944 23.8931 18.8012 24.572 18.7763H24.6677C25.328 18.7729 25.9644 19.0236 26.4451 19.4764C26.9258 19.9292 27.214 20.5495 27.2501 21.2089C27.2863 21.8682 27.0675 22.5163 26.6392 23.0189C26.2109 23.5215 25.6057 23.8402 24.9489 23.9091L24.9433 23.8697ZM33.0067 18.1884C36.4408 22.0809 36.5336 26.6625 35.2061 29.3203C33.9686 31.7475 30.7061 34.1775 26.3186 34.1775C24.2704 34.1357 22.2556 33.6512 20.4124 32.7572C21.0564 32.2988 21.9705 31.5647 22.4739 31.1062C23.8953 31.722 25.425 32.049 26.9739 32.0681C29.8145 32.0681 31.9661 30.7406 33.2486 28.3134C34.0727 26.7103 34.1205 24.8316 33.3414 22.9078C32.3855 20.4873 30.6844 18.4336 28.4842 17.0437C25.5977 15.0979 22.1948 14.0606 18.7136 14.0653H17.8895C17.6974 14.5092 17.3848 14.8904 16.9871 15.1658C16.5895 15.4412 16.1227 15.5997 15.6395 15.6234H15.5524C14.8841 15.6152 14.2455 15.3468 13.772 14.8753C13.2985 14.4037 13.0274 13.7662 13.0164 13.098C13.0055 12.4299 13.2554 11.7837 13.7131 11.2969C14.1709 10.81 14.8004 10.5208 15.468 10.4906H15.5608C16.026 10.491 16.4821 10.6195 16.879 10.8621C17.276 11.1048 17.5983 11.4521 17.8108 11.8659H18.5449C24.3949 11.8659 29.5305 14.1103 33.0067 18.1884V18.1884ZM9.73329 24.6572C9.68513 24.1901 9.79827 23.7207 10.0539 23.3269C7.48891 18.8831 6.11641 13.2497 8.22298 7.38563C9.73329 2.97844 13.5358 0 17.6589 0C22.0577 0 26.6392 3.85031 27.1877 11.2697C26.5014 11.0419 25.5002 10.7072 24.8983 10.5834C24.7492 8.15625 22.6989 2.10938 17.8417 2.19938C16.1008 2.24719 13.5358 3.07125 12.2167 4.76438C10.5851 6.78549 9.63591 9.27168 9.50548 11.8659C9.1963 15.4231 10.0309 18.9861 11.8877 22.0359C11.9902 21.9985 12.0994 21.9832 12.2083 21.9909H12.2983C12.9786 21.9786 13.6359 22.2371 14.1256 22.7094C14.6153 23.1817 14.8974 23.8293 14.9097 24.5095C14.922 25.1898 14.6636 25.8471 14.1912 26.3369C13.7189 26.8266 13.0714 27.1086 12.3911 27.1209H12.2983C11.6346 27.1186 10.9975 26.8602 10.5196 26.3996C10.0418 25.9391 9.76009 25.3119 9.73329 24.6487V24.6572Z" fill="#764ABC"/>
</svg>
