<svg width="100" height="36" viewBox="0 0 100 36" fill="none" xmlns="http://www.w3.org/2000/svg">
<path fill-rule="evenodd" clip-rule="evenodd" d="M99.3142 18.5958C99.3142 12.4452 95.9044 7.59204 89.3872 7.59204C82.8426 7.59204 78.8828 12.4452 78.8828 18.5477C78.8828 25.7794 83.5576 29.4313 90.2672 29.4313C93.5395 29.4313 96.0144 28.7826 97.8843 27.8697V23.0645C96.0144 23.8814 93.8695 24.386 91.1471 24.386C88.4798 24.386 86.1149 23.5691 85.8124 20.7341H99.2592C99.2592 20.4217 99.3142 19.1724 99.3142 18.5958ZM85.7299 16.3133C85.7299 13.5984 87.6273 12.4692 89.3597 12.4692C91.0371 12.4692 92.8245 13.5984 92.8245 16.3133H85.7299Z" fill="#635BFF"/>
<path fill-rule="evenodd" clip-rule="evenodd" d="M68.2695 7.59204C65.5746 7.59204 63.8422 8.69722 62.8798 9.46604L62.5223 7.97645H56.4727V35.9903L63.3473 34.717L63.3748 27.9177C64.3647 28.5424 65.8221 29.4313 68.242 29.4313C73.1642 29.4313 77.6465 25.9716 77.6465 18.3555C77.619 11.3881 73.0817 7.59204 68.2695 7.59204ZM66.6196 24.1457C64.9972 24.1457 64.0347 23.6412 63.3748 23.0165L63.3473 14.103C64.0622 13.4062 65.0522 12.9257 66.6196 12.9257C69.122 12.9257 70.8544 15.3763 70.8544 18.5237C70.8544 21.7431 69.1495 24.1457 66.6196 24.1457Z" fill="#635BFF"/>
<path fill-rule="evenodd" clip-rule="evenodd" d="M47.0117 6.17459L53.9138 4.8772V0L47.0117 1.27336V6.17459Z" fill="#635BFF"/>
<path d="M53.9138 8.00049H47.0117V29.0229H53.9138V8.00049Z" fill="#635BFF"/>
<path fill-rule="evenodd" clip-rule="evenodd" d="M39.614 9.77843L39.174 8.00054H33.2344V29.023H40.109V14.7758C41.7314 12.9258 44.4812 13.2622 45.3337 13.5264V8.00054C44.4538 7.71223 41.2364 7.18367 39.614 9.77843Z" fill="#635BFF"/>
<path fill-rule="evenodd" clip-rule="evenodd" d="M25.866 2.78687L19.1564 4.0362L19.1289 23.2807C19.1289 26.8365 22.1812 29.4553 26.251 29.4553C28.5059 29.4553 30.1558 29.0949 31.0632 28.6625V23.7853C30.1833 24.0976 25.8385 25.2028 25.8385 21.647V13.1179H31.0632V8.00043H25.8385L25.866 2.78687Z" fill="#635BFF"/>
<path fill-rule="evenodd" clip-rule="evenodd" d="M7.27743 14.103C7.27743 13.166 8.15738 12.8056 9.6148 12.8056C11.7047 12.8056 14.3445 13.3582 16.4344 14.3432V8.69722C14.152 7.90437 11.8972 7.59204 9.6148 7.59204C4.03261 7.59204 0.320312 10.1388 0.320312 14.3913C0.320312 21.0224 10.7697 19.9652 10.7697 22.8243C10.7697 23.9295 9.66979 24.2899 8.12988 24.2899C5.84751 24.2899 2.93267 23.473 0.622795 22.3678V28.0859C3.18015 29.0469 5.76501 29.4554 8.12988 29.4554C13.8496 29.4554 17.7818 26.9807 17.7818 22.6801C17.7543 15.5205 7.27743 16.7939 7.27743 14.103Z" fill="#635BFF"/>
</svg>
