<svg width="36" height="22" viewBox="0 0 36 22" fill="none" xmlns="http://www.w3.org/2000/svg">
<path d="M18 0C13.1999 0 10.2009 2.39906 9 7.19916C10.7994 4.79981 12.9001 3.90009 15.2994 4.5C16.6694 4.84144 17.6484 5.83481 18.7327 6.93563C20.4972 8.72634 22.5397 10.7994 27 10.7994C31.7998 10.7994 34.7991 8.40009 36 3.59887C34.2003 5.99962 32.0999 6.89934 29.7003 6.29944C28.3306 5.95772 27.3527 4.96463 26.2671 3.86381C24.5036 2.07309 22.4617 0 18 0V0ZM9 10.7994C4.20019 10.7994 1.20094 13.1988 0 18C1.79944 15.5992 3.89981 14.6995 6.29944 15.2994C7.66941 15.6412 8.64844 16.6343 9.73266 17.7351C11.4972 19.5258 13.5397 21.5989 18 21.5989C22.7998 21.5989 25.7991 19.1998 27 14.3997C25.2003 16.7991 23.0999 17.6988 20.7003 17.0989C19.3306 16.7574 18.3527 15.7641 17.2671 14.6633C15.5036 12.8725 13.4618 10.7994 9 10.7994Z" fill="#38B2AC"/>
</svg>
