<svg width="36" height="26" viewBox="0 0 36 26" fill="none" xmlns="http://www.w3.org/2000/svg">
<path d="M6.22996 16.7828C6.66199 17.3137 7.1178 17.8247 7.59599 18.3145C6.13743 18.7532 5.18118 19.5683 4.58493 20.288C3.64106 21.4271 3.14156 22.9312 3.25659 24.2221H0.745026C1.24846 23.1289 3.2594 19.971 6.23024 16.7831L6.22996 16.7828ZM35.325 24.907H32.2715C25.2655 21.251 19.1146 18.6731 12.5806 18.11C12.5944 17.2007 12.7561 16.1713 13.0674 15.0241L12.4656 14.8621C12.1461 16.0411 11.9784 17.1079 11.9593 18.0627C11.2784 18.0172 10.5933 17.9952 9.9014 17.9952C9.31612 17.9952 8.78203 18.049 8.2949 18.1432C7.65984 17.5092 7.11871 16.9034 6.65943 16.3291C9.67274 13.1906 14.6365 10.3511 18.9565 9.28296C20.1729 13.3262 22.7841 16.0965 25.9529 17.9604C26.1853 17.828 26.4137 17.6887 26.6377 17.5427L32.166 23.494L32.4079 23.4734C33.9176 23.3435 34.7757 24.1625 35.0027 24.4173C35.17 24.6026 35.2699 24.7728 35.325 24.907V24.907Z" fill="#D1A41A"/>
<path d="M32.6281 5.00002C32.7403 10.4923 29.9382 14.8635 26.015 17.105C19.3565 13.7885 18.1026 5.38364 19.2375 0.875488C19.553 2.59955 20.1274 3.68039 21.3671 4.21027C24.071 3.43683 27.792 3.3758 30.533 4.13152C31.6749 3.30127 32.1176 2.03227 32.3598 0.923864C32.6613 2.21339 32.627 5.0003 32.6281 5.0003V5.00002Z" fill="#FFDC76"/>
<path d="M13.8091 11.141L15.8791 10.2002L16.8947 13.2101L13.8091 11.141ZM11.702 12.2322L12.9068 11.5173L13.9972 13.3983L11.702 12.2322ZM9.36899 13.7746L10.4226 12.9843L10.9493 14.8664L9.36899 13.7746ZM27.9953 18.7423L27.2424 18.0271L26.2642 19.5326L27.9953 18.7423ZM29.3886 20.3975L28.7854 19.7579L27.2053 20.9617L29.3886 20.3975ZM26.8675 3.38916L24.9483 3.42685L26.1149 5.98566L26.8675 3.38916ZM19.2276 8.24325L19.0395 7.152L20.8842 8.13047L19.2276 8.24325ZM19.6788 9.86128L19.4906 9.14663L20.6198 9.59803L19.6788 9.86128ZM32.3983 8.69522L32.6627 7.86722L31.1571 8.50679L32.3983 8.69522ZM31.8338 10.3883L32.0594 9.7111L30.8928 10.0497L31.8338 10.3883Z" fill="black"/>
<path d="M18.4334 12.5351H22.0652V12.9834H18.4334V12.5351ZM18.4334 11.459H22.0652V11.9074H18.4334V11.459ZM29.5231 12.5351H33.1546V12.9834H29.5231V12.5351ZM29.5231 11.459H33.1546V11.9074H29.5231V11.459ZM28.2431 8.80095H22.3248V8.39707H24.1664C24.3934 7.42592 24.4381 6.49779 24.1647 6.02726C24.0477 5.82757 23.8863 5.73392 23.6562 5.73392C22.6032 5.73392 22.1684 6.84738 22.1501 6.89463L22.1504 6.89435L21.7727 6.7526C21.7943 6.69439 22.3211 5.33032 23.6562 5.33032C24.0289 5.33032 24.325 5.50132 24.5129 5.82448C24.8465 6.39738 24.8074 7.38879 24.5813 8.39707H27.8128C28.2423 7.13567 29.1386 6.54082 30.6366 6.54082V6.94442C29.0132 6.94442 28.5581 7.63264 28.2336 8.39707H29.997L29.9928 8.7987L28.2428 8.80067L28.2431 8.80095ZM28.5086 10.7936L28.5114 10.7933ZM28.5086 10.7936L28.5114 10.7933Z" fill="black"/>
<path d="M28.5086 10.7937L28.5114 10.7934C28.0327 10.0875 27.8809 9.48504 28.0811 8.79907L27.6699 8.80104C27.5268 9.25779 27.5841 9.94573 27.9371 10.5364H23.8309C24.0806 10.0357 24.3121 9.4257 24.4814 8.80104H24.0635C23.8767 9.46338 23.6149 10.119 23.3198 10.6382L23.2245 10.8061L25.5288 12.2565L24.2316 13.1115L24.4538 13.4484L25.9037 12.4924L27.4691 13.5139L27.684 13.1725L26.2327 12.2748C26.2327 12.2748 28.4029 10.8651 28.5106 10.7962C28.5097 10.7954 28.5095 10.7945 28.5089 10.7934L28.5086 10.7937ZM25.8989 12.0126L24.1945 10.9397L27.5254 10.9405L25.8989 12.0126Z" fill="black"/>
<path d="M33.3048 4.5135C33.3023 3.81178 33.0837 0.846562 32.6821 0.0300933C31.5931 0.443812 29.6117 1.78481 29.1631 3.15562C27.0138 2.835 24.5908 2.87269 22.4682 3.24C22.1139 1.76484 20.3341 0.636188 18.9914 0C18.425 0.955688 18.1741 3.17166 18.2377 4.74356L18.2304 4.74863C18.4795 11.349 21.7176 15.4586 25.9515 17.9494C30.3081 15.4603 33.4201 10.6076 33.2994 4.51041L33.3051 4.51322L33.3048 4.5135ZM29.68 3.24084L29.7276 3.24956L29.6798 3.24113L29.68 3.24084ZM29.4089 3.19416C29.4472 3.20034 29.4857 3.20709 29.5239 3.21384L29.4089 3.19416ZM32.6273 4.98966C32.7392 10.4819 29.9371 14.8531 26.0142 17.0947C19.3559 13.7773 18.1015 5.37328 19.2369 0.865125C19.5528 2.58834 20.1257 3.66947 21.3671 4.19963C24.0699 3.42619 27.7909 3.36516 30.5319 4.12087C31.6741 3.29034 32.1171 2.02191 32.3589 0.9135C32.6613 2.20331 32.6261 4.98937 32.6273 4.98994V4.98966Z" fill="black"/>
<path d="M35.4676 23.991C34.7839 23.226 33.4443 22.864 32.3255 22.8907C31.5315 21.9457 26.9283 17.0981 26.9283 17.0981L26.6093 17.5L32.1668 23.483L32.4079 23.4622C33.9179 23.3328 34.776 24.1518 35.0035 24.4058C35.17 24.5923 35.2707 24.7622 35.3253 24.8957H32.2709C25.2647 21.2395 19.114 18.6618 12.5797 18.0999C12.5938 17.1906 12.7558 16.1612 13.0663 15.0146L12.4656 14.8515C12.1463 16.0305 11.9779 17.0981 11.959 18.0527C11.2784 18.0077 10.593 17.984 9.90169 17.984C9.31528 17.984 8.78147 18.0386 8.29463 18.1331C7.65928 17.4983 7.11844 16.8933 6.65859 16.319C9.69328 13.1575 14.7052 10.2997 19.0471 9.24896L18.9062 8.64062C14.2304 9.76843 9.11222 12.8377 6.26034 15.8032C4.93678 14.0167 4.41169 12.5508 4.25559 11.4399C4.05872 10.0367 4.39341 8.74975 5.22422 7.71756C6.52444 6.10234 8.37197 5.98843 10.2715 6.30793C10.2347 6.60803 10.2741 6.8949 10.3942 7.07209C10.8965 7.81431 13.5967 8.07503 15.2083 7.35587C14.0189 5.68918 11.6097 4.87524 10.9423 5.20149C10.7212 5.30949 10.5542 5.50806 10.44 5.73925C9.78328 5.62168 9.13106 5.53421 8.65462 5.53787C6.97922 5.55025 5.69841 6.13553 4.73906 7.32746C3.79772 8.49662 3.41719 9.94871 3.63881 11.5265C3.84863 13.0211 4.58859 14.6107 5.82863 16.2588C5.62275 16.4799 5.42363 16.6982 5.23181 16.9125C2.2095 20.2945 0 23.9212 0 24.5222V24.8336H3.98728L3.91753 24.4643C3.69253 23.2741 4.14197 21.7868 5.06306 20.6747C5.64159 19.977 6.59925 19.1802 8.10309 18.8129C9.44016 20.1179 11.144 21.5036 13.0402 22.8407H16.0034V22.5293C16.0034 22.178 15.829 21.8706 15.5129 21.6636C15.0446 21.3576 14.3221 21.3154 13.6583 21.5418C13.0255 20.837 12.6706 19.8957 12.5941 18.7262C19.0249 19.2955 25.1761 21.8926 32.1162 25.5184H35.935L35.9851 25.2681C36.0565 24.9118 35.8622 24.4342 35.4659 23.991H35.4676ZM4.58522 20.2768C3.64191 21.4153 3.14184 22.9191 3.25659 24.2101H0.744187C1.24903 23.118 3.25941 19.9604 6.22997 16.771C6.66198 17.3022 7.11788 17.8134 7.59628 18.3032C6.13772 18.7417 5.18147 19.5568 4.58494 20.2768H4.58522Z" fill="black"/>
</svg>
