<svg width="37" height="36" viewBox="0 0 37 36" fill="none" xmlns="http://www.w3.org/2000/svg">
<path d="M35.5913 5.30412L19.4354 34.6228C19.1018 35.2281 18.2448 35.2317 17.9062 34.6293L1.42998 5.30694C1.06112 4.65051 1.61423 3.85538 2.34722 3.98834L18.5204 6.92214C18.6236 6.94085 18.7292 6.94068 18.8324 6.9216L34.6674 3.99254C35.3979 3.85742 35.9537 4.64639 35.5913 5.30412Z" fill="url(#paint0_linear_6975_6519)"/>
<path d="M26.2256 0.140195L14.2698 2.51769C14.0733 2.55677 13.9278 2.72577 13.9159 2.92859L13.1805 15.5343C13.1632 15.8312 13.4319 16.0616 13.7174 15.9948L17.0461 15.2152C17.3575 15.1423 17.6389 15.4206 17.5749 15.7385L16.586 20.6531C16.5194 20.9839 16.8254 21.2667 17.1437 21.1686L19.1997 20.5347C19.5184 20.4365 19.8247 20.7201 19.7572 21.0512L18.1856 28.7709C18.0873 29.2538 18.7202 29.5171 18.9841 29.1031L19.1604 28.8266L28.9027 9.09543C29.0659 8.76506 28.7845 8.38835 28.427 8.45837L25.0007 9.12947C24.6787 9.19247 24.4048 8.88816 24.4956 8.56846L26.7319 0.700912C26.8229 0.380677 26.548 0.0761066 26.2256 0.140195Z" fill="url(#paint1_linear_6975_6519)"/>
<defs>
<linearGradient id="paint0_linear_6975_6519" x1="1.0277" y1="2.94053" x2="21.5211" y2="30.3649" gradientUnits="userSpaceOnUse">
<stop stop-color="#41D1FF"/>
<stop offset="1" stop-color="#BD34FE"/>
</linearGradient>
<linearGradient id="paint1_linear_6975_6519" x1="17.5932" y1="0.785681" x2="21.337" y2="26.0921" gradientUnits="userSpaceOnUse">
<stop stop-color="#FFEA83"/>
<stop offset="0.0833333" stop-color="#FFDD35"/>
<stop offset="1" stop-color="#FFA800"/>
</linearGradient>
</defs>
</svg>
