<svg width="35" height="35" viewBox="0 0 35 35" fill="none" xmlns="http://www.w3.org/2000/svg">
<path d="M0.332241 12.0997C0.332241 12.0997 -0.519103 11.4834 0.503803 10.6616L2.88543 8.52582C2.88543 8.52582 3.56774 7.8061 4.28858 8.43357L26.2753 25.1196V33.1211C26.2753 33.1211 26.2643 34.3778 24.6561 34.2394L0.332241 12.0997Z" fill="#2489CA"/>
<path d="M6.00027 17.2568L0.332236 22.4214C0.332236 22.4214 -0.249951 22.8554 0.332236 23.6322L2.96361 26.0304C2.96361 26.0304 3.58855 26.704 4.51274 25.9382L10.52 21.3712L6.00027 17.2568Z" fill="#1070B3"/>
<path d="M15.9495 17.2995L26.3425 9.34435L26.2753 1.38581C26.2753 1.38581 25.8315 -0.351185 24.3507 0.553596L10.52 13.1708L15.9495 17.2995Z" fill="#0877B9"/>
<path d="M24.6559 34.2493C25.2591 34.8689 25.991 34.6656 25.991 34.6656L34.0901 30.6657C35.1271 29.9569 34.982 29.078 34.982 29.078V5.18722C34.982 4.13675 33.9098 3.77422 33.9098 3.77422L26.8896 0.382065C25.3559 -0.568279 24.3507 0.553627 24.3507 0.553627C24.3507 0.553627 25.6425 -0.379279 26.2753 1.38613V32.9753C26.2753 33.1927 26.2292 33.4056 26.1369 33.598C25.9524 33.9726 25.5502 34.3208 24.5889 34.1748L24.6559 34.2493Z" fill="#3C99D4"/>
</svg>
